<svg id="Layer_2" data-name="Layer 2" xmlns="http://www.w3.org/2000/svg" viewBox="0 0 195.82 131.62"><defs><style>.cls-1{font-size:26.72px;font-family:Calibri-Light, Calibri;font-weight:300;}.cls-1,.cls-3,.cls-4,.cls-7{fill:#fff;}.cls-2{letter-spacing:0em;}.cls-3{font-size:23px;font-family:CenturyGothic, Century Gothic;}.cls-4{font-size:31.12px;font-family:Calibri-Bold, Calibri;font-weight:700;}.cls-5{fill:#f2e600;}.cls-6{fill:#17de47;}.cls-7{font-size:18.35px;font-family:MonotypeCorsiva, Monotype Corsiva;}</style></defs><text class="cls-1" transform="translate(1.79 81.55) scale(0.97 1)">IN<tspan class="cls-2" x="23.58" y="0">S</tspan><tspan x="35.54" y="0">TITUTE OF</tspan></text><text class="cls-3" transform="translate(0 107.46) scale(1.08 1)">TECHNOLOGY</text><text class="cls-4" transform="translate(0.77 57.01) scale(0.88 1)">CHENNAI</text><path class="cls-5" d="M266.62,211s8.81-1.53,3.44-5.75-8.93-20.68-.25-28.59,32.68,27.19,27.83,36.51S280.4,237.77,268.4,232,260.23,212.87,266.62,211Z" transform="translate(-152.36 -175.46)"/><path class="cls-5" d="M322.88,239.1s-4.15-7.91,2.45-6.23,21.85-5.52,22.83-17.23-41.48-9.33-45.91.19-9,28.68,2.84,34.69S325.25,245.33,322.88,239.1Z" transform="translate(-152.36 -175.46)"/><circle class="cls-5" cx="153.79" cy="29.41" r="2.38"/><circle class="cls-5" cx="159.65" cy="25.29" r="1.07"/><circle class="cls-5" cx="154.9" cy="22.41" r="1.07"/><path class="cls-5" d="M312,200.55s-4.23,2.56-5,2.41.7,1.28.7,1.28,4.9-3.7,5.21-3.12S312,200.55,312,200.55Z" transform="translate(-152.36 -175.46)"/><path class="cls-5" d="M306.82,198.29s-.69,4.89-1.3,5.42S307,204,307,204s.22-6.13.86-6S306.82,198.29,306.82,198.29Z" transform="translate(-152.36 -175.46)"/><polyline class="cls-6" points="3.28 111.45 0.89 130.47 159.5 131.62 162.89 111.96 3.23 111.49"/><text class="cls-7" transform="translate(11.21 125.74) scale(1.08 1)">Transforming Lives</text></svg>