<svg xmlns="http://www.w3.org/2000/svg" xmlns:xlink="http://www.w3.org/1999/xlink" viewBox="0 0 1920 1080"><defs><style>.cls-1{fill:none;}.cls-2{isolation:isolate;}.cls-3{fill:#0f054c;}.cls-4,.cls-8{opacity:0.9;}.cls-10,.cls-4,.cls-55{mix-blend-mode:lighten;}.cls-4{fill:url(#Áåçûìÿííûé_ãðàäèåíò_11);}.cls-34,.cls-35,.cls-45,.cls-5{opacity:0.8;}.cls-5{fill:url(#Áåçûìÿííûé_ãðàäèåíò_19);}.cls-11,.cls-32,.cls-6{fill:#42e8e0;}.cls-6{opacity:0.1;}.cls-7{opacity:0.67;}.cls-9{fill:#080344;}.cls-12{fill:url(#Áåçûìÿííûé_ãðàäèåíò_24);}.cls-13{fill:url(#Áåçûìÿííûé_ãðàäèåíò_2);}.cls-14{fill:#fff;}.cls-15{fill:#2842a2;}.cls-16{fill:#adb1f2;}.cls-17{fill:#9198db;}.cls-18{fill:#24126a;}.cls-19{fill:url(#Áåçûìÿííûé_ãðàäèåíò_2-2);}.cls-20{fill:url(#Áåçûìÿííûé_ãðàäèåíò_2-3);}.cls-21{fill:url(#Áåçûìÿííûé_ãðàäèåíò_24-2);}.cls-22,.cls-31{fill:#453c9e;}.cls-23{fill:url(#Áåçûìÿííûé_ãðàäèåíò_24-3);}.cls-24{fill:url(#Áåçûìÿííûé_ãðàäèåíò_2-4);}.cls-25{fill:url(#Áåçûìÿííûé_ãðàäèåíò_2-5);}.cls-26{fill:url(#Áåçûìÿííûé_ãðàäèåíò_2-6);}.cls-27{fill:url(#Áåçûìÿííûé_ãðàäèåíò_24-4);}.cls-28{fill:#bcbeff;}.cls-29{fill:url(#Áåçûìÿííûé_ãðàäèåíò_2-7);}.cls-30,.cls-31{opacity:0.51;}.cls-32{opacity:0.4;}.cls-33{fill:url(#Áåçûìÿííûé_ãðàäèåíò_2-8);}.cls-34{fill:#ff2c9c;}.cls-35{fill:url(#Áåçûìÿííûé_ãðàäèåíò_19-2);}.cls-36{fill:url(#Áåçûìÿííûé_ãðàäèåíò_2-9);}.cls-37{fill:url(#Áåçûìÿííûé_ãðàäèåíò_24-5);}.cls-38{fill:url(#Áåçûìÿííûé_ãðàäèåíò_24-6);}.cls-39{fill:url(#Áåçûìÿííûé_ãðàäèåíò_2-10);}.cls-40{fill:url(#Áåçûìÿííûé_ãðàäèåíò_2-11);}.cls-41{opacity:0.11;}.cls-42{clip-path:url(#clip-path);}.cls-43{fill:url(#Áåçûìÿííûé_ãðàäèåíò_2-12);}.cls-44{fill:url(#Áåçûìÿííûé_ãðàäèåíò_2-13);}.cls-46{fill:url(#Áåçûìÿííûé_ãðàäèåíò_26);}.cls-47{fill:url(#Áåçûìÿííûé_ãðàäèåíò_2-14);}.cls-48{fill:url(#Áåçûìÿííûé_ãðàäèåíò_24-7);}.cls-49{fill:url(#Áåçûìÿííûé_ãðàäèåíò_24-8);}.cls-50{fill:url(#Áåçûìÿííûé_ãðàäèåíò_2-15);}.cls-51{fill:url(#Áåçûìÿííûé_ãðàäèåíò_2-16);}.cls-52{clip-path:url(#clip-path-2);}.cls-53{fill:url(#Áåçûìÿííûé_ãðàäèåíò_2-17);}.cls-54{fill:url(#Áåçûìÿííûé_ãðàäèåíò_2-18);}.cls-55{opacity:0.5;fill:url(#Áåçûìÿííûé_ãðàäèåíò_21);}</style><radialGradient id="Áåçûìÿííûé_ãðàäèåíò_11" cx="-2013.1" cy="669.05" r="868.24" gradientTransform="matrix(0.86, 0, 0, -0.99, 2797.55, 1159.97)" gradientUnits="userSpaceOnUse"><stop offset="0" stop-color="#5761d7"/><stop offset="0.03" stop-color="#525bce"/><stop offset="0.18" stop-color="#3e41a6"/><stop offset="0.33" stop-color="#2d2b85"/><stop offset="0.48" stop-color="#201a6c"/><stop offset="0.64" stop-color="#160e5a"/><stop offset="0.81" stop-color="#11074f"/><stop offset="1" stop-color="#0f054c"/></radialGradient><radialGradient id="Áåçûìÿííûé_ãðàäèåíò_19" cx="-2732.25" cy="169.92" r="1104.34" gradientTransform="matrix(-1.03, 0, 0, 1.17, -868.85, -38.06)" gradientUnits="userSpaceOnUse"><stop offset="0" stop-color="#ff2c9c"/><stop offset="0.03" stop-color="#f62f9f"/><stop offset="0.2" stop-color="#c63eb0"/><stop offset="0.37" stop-color="#9e4bbe"/><stop offset="0.54" stop-color="#7f54c9"/><stop offset="0.7" stop-color="#695bd1"/><stop offset="0.86" stop-color="#5c60d5"/><stop offset="1" stop-color="#5761d7"/></radialGradient><linearGradient id="Áåçûìÿííûé_ãðàäèåíò_24" x1="3846.44" y1="463.69" x2="4117.62" y2="463.69" gradientTransform="translate(-2743.73)" gradientUnits="userSpaceOnUse"><stop offset="0" stop-color="#5761d7"/><stop offset="0.18" stop-color="#5c66d9"/><stop offset="0.39" stop-color="#6a73df"/><stop offset="0.61" stop-color="#8289e8"/><stop offset="0.85" stop-color="#a3a7f5"/><stop offset="1" stop-color="#bcbeff"/></linearGradient><linearGradient id="Áåçûìÿííûé_ãðàäèåíò_2" x1="3937.56" y1="454.65" x2="4208.89" y2="454.65" gradientTransform="translate(-2743.73)" gradientUnits="userSpaceOnUse"><stop offset="0" stop-color="#c0bff6"/><stop offset="0.29" stop-color="#c5c4f7"/><stop offset="0.64" stop-color="#d3d2f9"/><stop offset="1" stop-color="#e9e9fd"/></linearGradient><linearGradient id="Áåçûìÿííûé_ãðàäèåíò_2-2" x1="3919.96" y1="433.77" x2="3989.41" y2="433.77" xlink:href="#Áåçûìÿííûé_ãðàäèåíò_2"/><linearGradient id="Áåçûìÿííûé_ãðàäèåíò_2-3" x1="3925.39" y1="421.25" x2="4117.4" y2="421.25" xlink:href="#Áåçûìÿííûé_ãðàäèåíò_2"/><linearGradient id="Áåçûìÿííûé_ãðàäèåíò_24-2" x1="3925.39" y1="470.5" x2="3958.36" y2="470.5" xlink:href="#Áåçûìÿííûé_ãðàäèåíò_24"/><linearGradient id="Áåçûìÿííûé_ãðàäèåíò_24-3" x1="-2450.97" y1="463.69" x2="-2179.78" y2="463.69" gradientTransform="matrix(-1, 0, 0, 1, -673.06, 0)" xlink:href="#Áåçûìÿííûé_ãðàäèåíò_24"/><linearGradient id="Áåçûìÿííûé_ãðàäèåíò_2-4" x1="-2359.85" y1="454.65" x2="-2088.52" y2="454.65" gradientTransform="matrix(-1, 0, 0, 1, -673.06, 0)" xlink:href="#Áåçûìÿííûé_ãðàäèåíò_2"/><linearGradient id="Áåçûìÿííûé_ãðàäèåíò_2-5" x1="-2377.45" y1="433.77" x2="-2308" y2="433.77" gradientTransform="matrix(-1, 0, 0, 1, -673.06, 0)" xlink:href="#Áåçûìÿííûé_ãðàäèåíò_2"/><linearGradient id="Áåçûìÿííûé_ãðàäèåíò_2-6" x1="-2372.02" y1="421.25" x2="-2180.01" y2="421.25" gradientTransform="matrix(-1, 0, 0, 1, -673.06, 0)" xlink:href="#Áåçûìÿííûé_ãðàäèåíò_2"/><linearGradient id="Áåçûìÿííûé_ãðàäèåíò_24-4" x1="-2372.02" y1="470.5" x2="-2339.05" y2="470.5" gradientTransform="matrix(-1, 0, 0, 1, -673.06, 0)" xlink:href="#Áåçûìÿííûé_ãðàäèåíò_24"/><linearGradient id="Áåçûìÿííûé_ãðàäèåíò_2-7" x1="1517.69" y1="604.72" x2="1517.69" y2="498.96" gradientTransform="matrix(1, 0, 0, 1, 0, 0)" xlink:href="#Áåçûìÿííûé_ãðàäèåíò_2"/><linearGradient id="Áåçûìÿííûé_ãðàäèåíò_2-8" x1="1517.69" y1="517.03" x2="1517.69" y2="411.27" gradientTransform="matrix(1, 0, 0, 1, 0, 0)" xlink:href="#Áåçûìÿííûé_ãðàäèåíò_2"/><radialGradient id="Áåçûìÿííûé_ãðàäèåíò_19-2" cx="1489.57" cy="402.55" r="4.01" gradientTransform="matrix(1, 0, 0, 1, 0, 0)" xlink:href="#Áåçûìÿííûé_ãðàäèåíò_19"/><linearGradient id="Áåçûìÿííûé_ãðàäèåíò_2-9" x1="3754.4" y1="570.31" x2="3949.81" y2="570.31" gradientTransform="translate(-2278.69)" xlink:href="#Áåçûìÿííûé_ãðàäèåíò_2"/><linearGradient id="Áåçûìÿííûé_ãðàäèåíò_24-5" x1="3754.41" y1="620.42" x2="3787.96" y2="620.42" gradientTransform="translate(-2278.69)" xlink:href="#Áåçûìÿííûé_ãðàäèåíò_24"/><linearGradient id="Áåçûìÿííûé_ãðàäèåíò_24-6" x1="3780.58" y1="676.75" x2="4056.56" y2="676.75" gradientTransform="translate(-2278.69)" xlink:href="#Áåçûìÿííûé_ãðàäèåíò_24"/><linearGradient id="Áåçûìÿííûé_ãðàäèåíò_2-10" x1="3873.31" y1="667.55" x2="4149.44" y2="667.55" gradientTransform="translate(-2278.69)" xlink:href="#Áåçûìÿííûé_ãðàäèåíò_2"/><linearGradient id="Áåçûìÿííûé_ãðàäèåíò_2-11" x1="3920.07" y1="683.23" x2="3990.75" y2="683.23" gradientTransform="translate(-2278.69)" xlink:href="#Áåçûìÿííûé_ãðàäèåíò_2"/><clipPath id="clip-path" transform="translate(0)"><polygon id="SVGID" class="cls-1" points="1647.54 464.46 1484.49 558.6 1504.71 677.8 1667.65 583.72 1647.54 464.46"/></clipPath><linearGradient id="Áåçûìÿííûé_ãðàäèåíò_2-12" x1="3767.82" y1="606.35" x2="4043.94" y2="606.35" gradientTransform="translate(-2278.69)" xlink:href="#Áåçûìÿííûé_ãðàäèåíò_2"/><linearGradient id="Áåçûìÿííûé_ãðàäèåíò_2-13" x1="3749.64" y1="586.08" x2="3820.32" y2="586.08" gradientTransform="translate(-2278.69)" xlink:href="#Áåçûìÿííûé_ãðàäèåíò_2"/><linearGradient id="Áåçûìÿííûé_ãðàäèåíò_26" x1="1111.65" y1="693.96" x2="1371.78" y2="693.96" gradientUnits="userSpaceOnUse"><stop offset="0" stop-color="#5761d7"/><stop offset="0.14" stop-color="#5c60d5"/><stop offset="0.3" stop-color="#695bd1"/><stop offset="0.46" stop-color="#7f54c9"/><stop offset="0.63" stop-color="#9e4bbe"/><stop offset="0.8" stop-color="#c63eb0"/><stop offset="0.97" stop-color="#f62f9f"/><stop offset="1" stop-color="#ff2c9c"/></linearGradient><linearGradient id="Áåçûìÿííûé_ãðàäèåíò_2-14" x1="-2543" y1="570.31" x2="-2347.6" y2="570.31" gradientTransform="matrix(-1, 0, 0, 1, -1138.1, 0)" xlink:href="#Áåçûìÿííûé_ãðàäèåíò_2"/><linearGradient id="Áåçûìÿííûé_ãðàäèåíò_24-7" x1="-2543" y1="620.42" x2="-2509.45" y2="620.42" gradientTransform="matrix(-1, 0, 0, 1, -1138.1, 0)" xlink:href="#Áåçûìÿííûé_ãðàäèåíò_24"/><linearGradient id="Áåçûìÿííûé_ãðàäèåíò_24-8" x1="-2516.82" y1="676.75" x2="-2240.85" y2="676.75" gradientTransform="matrix(-1, 0, 0, 1, -1138.1, 0)" xlink:href="#Áåçûìÿííûé_ãðàäèåíò_24"/><linearGradient id="Áåçûìÿííûé_ãðàäèåíò_2-15" x1="-2424.1" y1="667.55" x2="-2147.97" y2="667.55" gradientTransform="matrix(-1, 0, 0, 1, -1138.1, 0)" xlink:href="#Áåçûìÿííûé_ãðàäèåíò_2"/><linearGradient id="Áåçûìÿííûé_ãðàäèåíò_2-16" x1="-2377.33" y1="683.23" x2="-2306.65" y2="683.23" gradientTransform="matrix(-1, 0, 0, 1, -1138.1, 0)" xlink:href="#Áåçûìÿííûé_ãðàäèåíò_2"/><clipPath id="clip-path-2" transform="translate(0)"><polygon id="SVGID-2" data-name="SVGID" class="cls-1" points="1233.08 464.46 1396.13 558.6 1375.91 677.8 1212.97 583.72 1233.08 464.46"/></clipPath><linearGradient id="Áåçûìÿííûé_ãðàäèåíò_2-17" x1="-2529.59" y1="606.35" x2="-2253.47" y2="606.35" gradientTransform="matrix(-1, 0, 0, 1, -1138.1, 0)" xlink:href="#Áåçûìÿííûé_ãðàäèåíò_2"/><linearGradient id="Áåçûìÿííûé_ãðàäèåíò_2-18" x1="-2547.76" y1="586.08" x2="-2477.08" y2="586.08" gradientTransform="matrix(-1, 0, 0, 1, -1138.1, 0)" xlink:href="#Áåçûìÿííûé_ãðàäèåíò_2"/><linearGradient id="Áåçûìÿííûé_ãðàäèåíò_21" x1="1440.31" y1="473.25" x2="1440.31" y2="84.71" gradientUnits="userSpaceOnUse"><stop offset="0" stop-color="#42e8e0"/><stop offset="0.11" stop-color="#37b6bf"/><stop offset="0.22" stop-color="#2c87a1"/><stop offset="0.34" stop-color="#235f87"/><stop offset="0.46" stop-color="#1c3f72"/><stop offset="0.58" stop-color="#162561"/><stop offset="0.71" stop-color="#121355"/><stop offset="0.85" stop-color="#10084e"/><stop offset="1" stop-color="#0f054c"/></linearGradient></defs><g class="cls-2"><g id="Ñëîé_1" data-name="Ñëîé 1"><rect class="cls-3" width="1920" height="1080" transform="translate(1920 1080) rotate(180)"/><rect class="cls-4" x="518.56" width="1401.44" height="1080" transform="translate(2438.56 1080) rotate(180)"/><path class="cls-5" d="M1876.81,2.26a11.58,11.58,0,0,0-11.66,0c-2.42,1.58-3,3.9-1.81,5.85L1682.8,126v148.8l-44,28.72V465.37l-150.67,98.37-23.47-15.33,116.18-75.86V383.83l-.46-.3-132.09-86.25V267.19l74.7-48.77a11.67,11.67,0,0,0,10.64-.55c3.22-2.1,3.22-5.51,0-7.61a11.58,11.58,0,0,0-11.66,0c-2.9,1.89-3.16,4.84-.83,7L1446.46,266v32.49l.46.31L1579,385v86.32l-87.78,57.31v-37l40.24-26.28a11.66,11.66,0,0,0,10.65-.54c3.22-2.1,3.22-5.51,0-7.61a11.53,11.53,0,0,0-11.66,0c-2.91,1.89-3.17,4.84-.83,7l-40.24,26.27v39.38l-26.55,17.34-31.39-20.5V462.33l59.22-38.66V379.16l-.46-.3-124.66-81.39c2.33-2.11,2.07-5.06-.83-7a11.53,11.53,0,0,0-11.66,0c-3.22,2.1-3.22,5.51,0,7.61a11.64,11.64,0,0,0,10.64.54l125.12,81.7v42.09l-57.37,37.46V415.55l-.46-.3-76.27-49.8c2.33-2.11,2.07-5.06-.83-6.95a11.58,11.58,0,0,0-11.66,0c-3.22,2.1-3.22,5.51,0,7.61a11.64,11.64,0,0,0,10.64.54l76.74,50.1V525.5l-22-14.4-36.33,23.73-32.91-21.49V461.13l-.46-.31-87-56.8V354.8a10.36,10.36,0,0,0,4.91-1.52c3.22-2.1,3.22-5.51,0-7.61a11.58,11.58,0,0,0-11.66,0c-3.22,2.1-3.22,5.51,0,7.61a10.4,10.4,0,0,0,4.91,1.52v50.43l.46.3,87,56.8v49.8l-141.58-92.44v-98l76.79-50.14h70.47l.21-.14,120.92-79a11.69,11.69,0,0,0,10.65-.55c3.22-2.1,3.22-5.51,0-7.61a11.6,11.6,0,0,0-11.67,0c-2.9,1.9-3.16,4.85-.83,6.95l-119.78,78.21h-66.77l222.14-145a11.7,11.7,0,0,0,10.64-.54c3.22-2.11,3.22-5.52,0-7.62a11.58,11.58,0,0,0-11.66,0c-2.9,1.9-3.16,4.85-.83,6.95L1193,320.48V420.89l.46.3L1369.36,536,1334,559.15,1033.68,363.08v-117l-.46-.3L931.1,179.1c2.34-2.1,2.08-5-.83-6.95a11.58,11.58,0,0,0-11.66,0c-3.22,2.11-3.22,5.52,0,7.62a11.72,11.72,0,0,0,10.65.54l102.58,67v117l.47.3,299.82,195.77-33.7,22-297-193.9H824.36L713.68,316.19V205.13a9.64,9.64,0,0,0,3.2-1.28c3.22-2.1,3.22-5.51,0-7.61a11.58,11.58,0,0,0-11.66,0c-3.22,2.1-3.22,5.51,0,7.61a11,11,0,0,0,6.61,1.53v112l.46.31,111.58,72.85H1001l250.68,163.69h-50.42l-85.55-55.87h-65.91l-.21.14-91.4,59.68a11.72,11.72,0,0,0-10.65.54c-3.22,2.11-3.22,5.52,0,7.62a11.58,11.58,0,0,0,11.66,0c2.91-1.9,3.17-4.85.83-7l90.27-58.94h64.91l85.56,55.87h54.11l41.73,27.25-90,58.74L1181,625.59V581.76l-65-42.43c2.33-2.1,2.07-5.05-.83-7a11.58,11.58,0,0,0-11.66,0c-3.22,2.1-3.22,5.51,0,7.61a11.67,11.67,0,0,0,10.64.55l65,42.42v41.43l-69.29-45.25h-32.82l-.21.14-39.12,25.55a11.66,11.66,0,0,0-10.65.54c-3.22,2.1-3.22,5.51,0,7.61a11.58,11.58,0,0,0,11.66,0c2.91-1.89,3.17-4.84.83-7l38-24.8h31.82l95.37,62.27-17.33,11.31,55.3,36.11-25.89,16.9h-39.16l-28-18.29c2.23-2.1,1.93-5-.94-6.87a11.58,11.58,0,0,0-11.66,0c-3.22,2.1-3.22,5.51,0,7.61a11.66,11.66,0,0,0,10.78.48l29.34,19.16h36.45l-66,43.11L992.28,651.58H880.5l-.21.14-62.94,41.09a11.7,11.7,0,0,0-10.64.54c-3.22,2.1-3.22,5.51,0,7.62a11.58,11.58,0,0,0,11.66,0c2.9-1.9,3.16-4.85.83-7L881,653.68H991.78L1111.6,731.9h-51.29l-50.12-32.72c2.33-2.11,2.07-5.06-.83-7a11.58,11.58,0,0,0-11.66,0c-3.23,2.11-3.23,5.52,0,7.62a11.7,11.7,0,0,0,10.64.54L1059.82,734h55l31,20.23-78.87,51.5H814.86L619,677.86c2.33-2.1,2.07-5.05-.83-7a11.58,11.58,0,0,0-11.66,0c-3.22,2.11-3.22,5.51,0,7.62a11.7,11.7,0,0,0,10.64.54L814.36,807.81h249.35l-31.28,20.42H845.85l-.22.14-92,60.08A11.66,11.66,0,0,0,743,889c-3.22,2.1-3.22,5.51,0,7.61a11.55,11.55,0,0,0,11.67,0c2.9-1.89,3.16-4.84.83-7l90.87-59.34h186.58l.22-.14,211.44-138.06,23.48,15.33L1045.75,852.6H883.18l-.22.14L686.59,981h-272L362,946.63V949l52.09,34H687.09l.21-.14,123.23-80.47v47.63l-81.23,53a11.64,11.64,0,0,0-10.64.54c-3.22,2.1-3.22,5.51,0,7.61a11.53,11.53,0,0,0,11.66,0c2.9-1.89,3.16-4.84.83-7l81.23-53V901.51H812l71.71-46.82h162.58l.21-.14,223.44-145.9,26.67,17.42L863,1009.15v51.15h1.85v-49.95l433.55-283.08,32.95,21.51-223.64,146v26.11l-39.65,25.88v60.05l-76.9,50.2a11.67,11.67,0,0,0-10.64.55,5.17,5.17,0,0,0-2.23,2.7h16.08a4.73,4.73,0,0,0-1.36-2l76.89-50.21V948l37.81-24.69v96.15L1130,1034l-40.21,26.26h3.69l38.36-25,38.37,25h3.69l-64.37-42V896l223.65-146,30,19.58L1204.93,872.91a11.67,11.67,0,0,0-10.64.54c-3.22,2.1-3.22,5.51,0,7.62a11.55,11.55,0,0,0,11.66,0c2.9-1.89,3.16-4.84.83-6.95L1365,770.78l29,18.9L1204.68,913.29h-51.45a5.25,5.25,0,0,0-2.26-2.76,11.58,11.58,0,0,0-11.66,0c-3.22,2.1-3.22,5.51,0,7.62a11.58,11.58,0,0,0,11.66,0,5.26,5.26,0,0,0,2.26-2.77h52l.21-.14,190.45-124.35,11.69,7.63,9-5.87,45.36,29.61v41.22L1424.41,888v-.11h-58.8l-.22.14-64.52,42.13a11.72,11.72,0,0,0-10.65.54c-3.22,2.11-3.22,5.52,0,7.62a11.58,11.58,0,0,0,11.66,0c2.91-1.9,3.17-4.85.83-6.95l63.39-41.39h55.29l-110.17,71.93a11.66,11.66,0,0,0-10.88.42c-3.22,2.1-3.22,5.51,0,7.61a11.53,11.53,0,0,0,11.66,0c2.84-1.85,3.17-4.71,1-6.8l137.42-89.72V893.2l-81.76,53.38v37.69l-66.56,43.47a11.66,11.66,0,0,0-10.65.54c-3.22,2.1-3.22,5.51,0,7.61a11.58,11.58,0,0,0,11.66,0c2.91-1.89,3.17-4.84.83-7l66.57-43.46V947.79l81.75-53.38V872.16l11.45-7.47V821.06l-45.37-29.62L1448.18,772l93.34,60.94V902.2l-63.38,41.38a11.67,11.67,0,0,0-10.87.42c-3.22,2.11-3.22,5.52,0,7.62a11.58,11.58,0,0,0,11.66,0c2.83-1.85,3.17-4.71,1-6.8l61.58-40.21v56l-48.65,31.76v68h1.85V993.55l46.8-30.56v97.31h1.84V831.72l-93.34-61,33.47-21.85,122,79.65v189.7l58.64,38.29v3.74H1666v-4.94l-58.64-38.29V827.37l-122-79.66,24.81-16.2L1674.79,839v161.86l91,59.43h3.69l-92.87-60.64V837.81L1512,730.31l40.21-26.25,273.92,178.85v80.54l93.88,61.29v-2.41l-92-60.09V881.7L1673.9,781.1h121.85L1920,862.23v-2.41L1796.24,779H1670.7l-116.65-76.16,46.73-30.51,100.27,65.47h161l58,37.84v-2.41l-12.7-8.3H1920v-2.09h-15.9l-41.55-27.13h-161l-28.06-18.32h68.44l.22-.14,34.33-22.42h143l.47.31v-2.4H1779.68l38.65-25.24A11.72,11.72,0,0,0,1829,667c3.22-2.11,3.22-5.51,0-7.62a11.58,11.58,0,0,0-11.66,0c-2.91,1.9-3.17,4.85-.83,7l-75,49h-71.15l-67.66-44.19,25-16.32-16.09-10.51h46.77l61.14,39.92c-2.33,2.11-2.07,5.06.83,6.95a11.53,11.53,0,0,0,11.66,0c3.22-2.1,3.22-5.51,0-7.61a11.64,11.64,0,0,0-10.64-.54l-62.49-40.8h-50.46l-34.22-22.35,21-13.74h37.33l32.81-21.42h24.49l55.3,36.11c-2.48,2.11-2.27,5.13.69,7.07a11.58,11.58,0,0,0,11.66,0c3.22-2.11,3.22-5.52,0-7.62a11.71,11.71,0,0,0-10.47-.64l-56.68-37h-25.48L1632,604.05h-33.63l67.27-43.93H1702l75.72,49.44H1920v-2.09H1778.17L1702.46,558h-37.31l-.22.14-92.65,60.5L1548,602.8l104.69-68.36h73.85l60.91,39.77H1920v-2.09H1787.92l-57.72-37.69H1920v-2.09H1652.17l-.21.14-105.83,69.1-27.62-18,146-95.32H1920v-2.08H1733.81L1920,364.58v-2.41l-189.88,124h-64.28l138.42-90.38V375.85l66.23-43.24a11.7,11.7,0,0,0,10.64-.54c3.22-2.11,3.22-5.52,0-7.62a11.58,11.58,0,0,0-11.66,0c-2.9,1.9-3.16,4.85-.83,6.95L1832.58,355V300.36L1920,243.28v-2.41l-89.27,58.29v57l-28.32,18.5v19.92l-139.55,91.11.47.91-146.67,95.76L1490,564.94l150.66-98.37V304.72L1920,122.33v-2.41L1684.65,273.59V127.2L1864.78,9.58c.13.1.23.21.37.3a11.58,11.58,0,0,0,11.66,0C1880,7.77,1880,4.37,1876.81,2.26ZM1623.94,654.81l-216.41,141.3-216.39-141.3,216.4-141.3Z" transform="translate(0)"/><path class="cls-6" d="M1915.43,148.05l-44.55,29.09v93.71l-395.7,258.36-30.06-19.63,204.11-133.27V352.48l36.19-23.63v-54.8l70.18-45.82a10.65,10.65,0,0,0,9.71-.49c2.94-1.92,2.94-5,0-7a10.55,10.55,0,0,0-10.64,0c-2.65,1.73-2.89,4.42-.76,6.34L1683.73,273v54.8l-34.5,22.53V262.53l-.42-.28-19.94-13,119.65-78.13V83.24l85-55.5a10.67,10.67,0,0,0,9.72-.49c2.94-1.92,2.94-5,0-6.95a10.57,10.57,0,0,0-10.65,0c-2.65,1.73-2.88,4.42-.75,6.34l-85,55.5V170l-119.65,78.13-194.53-127V22.83a9.49,9.49,0,0,0,4.48-1.39c2.94-1.91,2.94-5,0-7a10.59,10.59,0,0,0-10.64,0c-2.94,1.92-2.94,5,0,7a9.49,9.49,0,0,0,4.48,1.39v99.38l.42.28,117,76.4h-85.27l-68.95-45c2.13-1.92,1.9-4.62-.75-6.35a10.61,10.61,0,0,0-10.65,0c-2.94,1.92-2.94,5,0,6.95a10.67,10.67,0,0,0,9.72.5l70.18,45.82h88.6v0l96.28,62.86V375.21L1443.43,508.48l-27.37-17.87,144.44-94.32a10.67,10.67,0,0,0,9.72-.49c2.94-1.92,2.94-5,0-6.95a10.55,10.55,0,0,0-10.64,0c-2.65,1.73-2.89,4.42-.76,6.34l-144.45,94.32-26.43-17.26,172.79-112.81h47a4.73,4.73,0,0,0,2.06,2.53,10.55,10.55,0,0,0,10.64,0c2.94-1.92,2.94-5,0-6.95a10.55,10.55,0,0,0-10.64,0,4.72,4.72,0,0,0-2.06,2.52h-47.41l-.2.13L1386.26,471.15l-10.67-7-.42.27-7.79,5.09-41.4-27V404.9l34.2-22.33v.1h53.67l59.08-38.58a10.67,10.67,0,0,0,9.72-.5c2.94-1.92,2.94-5,0-6.95a10.55,10.55,0,0,0-10.64,0c-2.65,1.73-2.89,4.43-.76,6.35l-57.85,37.77H1363l100.55-65.65a10.64,10.64,0,0,0,9.92-.38c2.94-1.92,2.94-5,0-7a10.55,10.55,0,0,0-10.64,0c-2.58,1.69-2.89,4.3-.93,6.21l-125.41,81.88v-18.1l74.61-48.72v-34.4L1471.81,255a10.65,10.65,0,0,0,9.71-.5c2.94-1.92,2.94-5,0-7a10.55,10.55,0,0,0-10.64,0c-2.65,1.73-2.89,4.43-.76,6.35l-60.75,39.66V328l-74.62,48.72V397l-10.45,6.83v39.82l41.39,27-27.2,17.76-85.18-55.62V369.56l57.84-37.77a10.66,10.66,0,0,0,9.93-.38c2.94-1.92,2.94-5,0-7a10.57,10.57,0,0,0-10.65,0c-2.58,1.69-2.89,4.3-.93,6.21l-56.19,36.69V316.28l44.4-29V191.2a9.56,9.56,0,0,0,4.48-1.38c2.94-1.92,2.94-5,0-6.95a10.55,10.55,0,0,0-10.64,0c-2.94,1.92-2.94,5,0,6.95a9.48,9.48,0,0,0,4.47,1.38v95l-42.71,27.89V144.65h-1.68V433.89l85.19,55.62-30.55,19.95-111.34-72.7V263.63l-53.52-34.95V163.56l-47.26-30.86c2.13-1.92,1.9-4.61-.75-6.34a10.57,10.57,0,0,0-10.65,0c-2.94,1.92-2.94,5,0,7a10.67,10.67,0,0,0,9.72.49l47.25,30.86v65.12l53.52,34.94V437.86l111.33,72.7-22.64,14.78-150.26-98.11V279.51l-.43-.28-133-86.84c2.13-1.92,1.89-4.61-.76-6.34a10.55,10.55,0,0,0-10.64,0c-2.94,1.92-2.94,5,0,6.95a10.67,10.67,0,0,0,9.72.49L1130,280.61V428.33l.42.28,149.83,97.83-36.69,24-250-163.23V313.66l-.42-.27L783.84,176.73c2.13-1.92,1.89-4.62-.76-6.35a10.59,10.59,0,0,0-10.64,0c-2.94,1.92-2.94,5,0,7a10.65,10.65,0,0,0,9.71.5L991.87,314.76v73.51l.42.27,140.19,91.54h-111.2L892.54,396c2.13-1.92,1.9-4.62-.75-6.35a10.57,10.57,0,0,0-10.65,0c-2.93,1.92-2.93,5,0,6.95a10.67,10.67,0,0,0,9.72.5l130,84.86H1135.4l106.47,69.51-42.65,27.85-91.51-59.76H960.77L793.64,410.47H700.93l-37.8-24.68c2.13-1.92,1.89-4.61-.76-6.34a10.55,10.55,0,0,0-10.64,0c-2.94,1.92-2.94,5,0,6.95a10.65,10.65,0,0,0,9.71.49l39,25.49h92.71l126.28,82.45H810.4l-52.53-34.29c2.13-1.93,1.89-4.62-.76-6.35a10.57,10.57,0,0,0-10.65,0c-2.93,1.92-2.93,5,0,6.95a10.67,10.67,0,0,0,9.72.5l53.76,35.1H922.39l37.92,24.76h146.94l25.61,16.72h-62.47l-.19.13-31.34,20.46H908.31l-36.83-24H797.63a4.75,4.75,0,0,0-2.06-2.52,10.55,10.55,0,0,0-10.64,0c-2.94,1.92-2.94,5,0,7a10.55,10.55,0,0,0,10.64,0,4.71,4.71,0,0,0,2.06-2.52H871l36.83,24.05H1036l-35.28,23a10.67,10.67,0,0,0-9.72.49c-2.94,1.92-2.94,5,0,7a10.55,10.55,0,0,0,10.64,0c2.65-1.73,2.89-4.42.76-6.34l68.5-44.72h64.93l61.75,40.32-22.82,14.9,1.27.82,13.42,8.76h-42.69l-55.79-36.44c2.12-1.92,1.89-4.61-.76-6.34a10.57,10.57,0,0,0-10.65,0c-2.93,1.92-2.93,5,0,7a10.67,10.67,0,0,0,9.72.49l57,37.24h46l31.24,20.39-19.21,12.54h-34.06l-.2.13-29.75,19.43H1118l-50.48-33c2.27-1.93,2.08-4.69-.62-6.45a10.55,10.55,0,0,0-10.64,0c-2.94,1.92-2.94,5,0,7a10.65,10.65,0,0,0,9.55.58l51.73,33.78h23.26l.19-.12,29.76-19.43h30.69L1140,681.77h-33.15l-69.11-45.12H829.39l-129.26-84.4c2.24-1.92,2-4.67-.65-6.43a10.55,10.55,0,0,0-10.64,0c-2.94,1.92-2.94,5,0,6.95a10.66,10.66,0,0,0,9.58.57l130.51,85.21h208.39l69.1,45.12h34.06l.19-.12,84.56-55.22,22.19,14.49-95.55,62.39h-67.39l-55.6-36.31H886.19a4.78,4.78,0,0,0-2.06-2.53,10.61,10.61,0,0,0-10.65,0c-2.94,1.92-2.94,5,0,7a10.57,10.57,0,0,0,10.65,0,4.66,4.66,0,0,0,2-2.52h142.25l52.67,34.4H880l-.19.12L688.22,830.45a10.67,10.67,0,0,0-9.72.5c-2.94,1.92-2.94,5,0,6.95a10.55,10.55,0,0,0,10.64,0c2.65-1.73,2.89-4.42.76-6.35L880.48,707.11h271.84l.2-.12,96.58-63.07,25.21,16.46-133.24,87H906.46l-.2.12L700.82,881.64H461.45L321.85,790.5c2.13-1.93,1.89-4.62-.76-6.35a10.59,10.59,0,0,0-10.64,0c-2.94,1.92-2.94,5,0,7a10.65,10.65,0,0,0,9.71.5L461,883.55H701.27l.2-.13L906.91,749.28h170.9L826.87,913.13v43.13l-100.1,65.36a10.67,10.67,0,0,0-9.72.49c-2.93,1.92-2.93,5,0,6.95a10.57,10.57,0,0,0,10.65,0c2.65-1.73,2.89-4.42.76-6.34l100.09-65.36V914.23l252.62-165h58.66l-126.33,82.49v18.17l-60.44,39.47a10.67,10.67,0,0,0-9.72.5c-2.94,1.92-2.94,5,0,7a10.55,10.55,0,0,0,10.64,0c2.65-1.73,2.89-4.42.76-6.35L987.66,869v49.81L797.52,1043a10.65,10.65,0,0,0-9.71.5c-2.94,1.92-2.94,5,0,7a10.55,10.55,0,0,0,10.64,0c2.65-1.73,2.89-4.42.76-6.35L989.35,919.94v-52l25.85-16.87V832.87l127.36-83.16-.42-.83L1276,661.48l24.34,15.88-137.51,89.79V914.87L909.91,1080h3.38l209.39-136.72v133.61l-4.77,3.11h3.38l3.08-2V942.18L1164.5,916V768.25L1302,678.47l21.43,14-106,69.24v81l.42.27,120.56,78.72v27.46l-68.18,44.51a10.65,10.65,0,0,0-9.71.5c-2.94,1.92-2.94,5,0,7a10.55,10.55,0,0,0,10.64,0c2.65-1.73,2.89-4.42.76-6.34l68.18-44.52V920.56l-.42-.28-120.56-78.71V762.79l80.12-52.31v33.73l-36.72,24a10.67,10.67,0,0,0-9.72.49c-2.94,1.92-2.94,5,0,6.95a10.55,10.55,0,0,0,10.64,0c2.65-1.73,2.89-4.42.76-6.34l36.73-24V709.38l24.23-15.82,28.66,18.7V771l-54,35.28v40.63l.42.27,113.77,74.29c-2.13,1.92-1.89,4.61.76,6.34a10.55,10.55,0,0,0,10.64,0c2.94-1.92,2.94-5,0-7a10.62,10.62,0,0,0-9.71-.49l-114.2-74.57V807.41l52.36-34.19v40.5l70,45.72c-2.13,1.92-1.89,4.61.76,6.34a10.55,10.55,0,0,0,10.64,0c2.94-1.91,2.94-5,0-6.94a10.62,10.62,0,0,0-9.71-.5l-70-45.73V713.36l20.13,13.14.42-.27,32.74-21.38,30,19.62v47.65l79.82,52.12v44.92a9.64,9.64,0,0,0-4.48,1.38c-2.94,1.92-2.94,5,0,7a10.55,10.55,0,0,0,10.64,0c2.94-1.91,2.94-5,0-7a9.6,9.6,0,0,0-4.47-1.38v-46L1440.46,771V725.57l129.22,84.37v89.44l-70.09,45.76h-64.31l-.2.13-110.36,72.06a10.65,10.65,0,0,0-9.71.49c-2.94,1.92-2.94,5,0,6.95a10.55,10.55,0,0,0,10.64,0c2.65-1.73,2.89-4.42.76-6.34l109.32-71.38h60.94l-202.74,132.37a10.65,10.65,0,0,0-9.71.5l-.11.08h12.32l274.93-179.52V808.84l-.42-.28L1410.43,703.75l32.31-21.09,274.06,179V968.38l93.62,61.13c-2.13,1.92-1.89,4.62.76,6.35a10.59,10.59,0,0,0,10.64,0c2.94-1.92,2.94-5,0-6.95a10.65,10.65,0,0,0-9.71-.5l-93.63-61.13V860.5l-.42-.27L1444.43,681.56l30.75-20.08,271,177h161.63l7.59,4.95v-2.2l-7.14-4.66H1746.66L1517.87,687.15h46l78.09,51h60.14l.2-.13,83.42-54.46a10.65,10.65,0,0,0,9.71-.5c2.94-1.92,2.94-5,0-6.95a10.55,10.55,0,0,0-10.64,0c-2.65,1.73-2.89,4.42-.76,6.35l-82.38,53.78h-59.24l-78.09-51H1515l-38.08-24.87,82.1-53.6L1582.31,622v40l59.3,38.72c-2.12,1.93-1.89,4.62.76,6.35a10.57,10.57,0,0,0,10.65,0c2.94-1.92,2.94-5,0-7a10.67,10.67,0,0,0-9.72-.5L1584,660.92V623.11l63.24,41.3h30l.2-.13,35.7-23.31a10.67,10.67,0,0,0,9.72-.5c2.93-1.92,2.93-5,0-7a10.57,10.57,0,0,0-10.65,0c-2.65,1.73-2.88,4.43-.76,6.35l-34.66,22.63h-29l-87-56.83,15.82-10.33-1.27-.82L1526,562.39,1549.63,547h35.73l25.57,16.7c-2,1.92-1.76,4.56.85,6.27a10.57,10.57,0,0,0,10.65,0c2.94-1.92,2.94-5,0-6.95a10.66,10.66,0,0,0-9.83-.43l-26.79-17.49h-33.26l60.26-39.34,141.78,92.57h102l.2-.13,57.44-37.5a8.69,8.69,0,0,0,1.19.37v-8.77a8.51,8.51,0,0,0-2.12,1c-2.65,1.73-2.89,4.42-.76,6.35l-56.4,36.82H1755L1645.69,525h46.8l45.75,29.88c-2.13,1.92-1.89,4.61.76,6.34a10.55,10.55,0,0,0,10.64,0c2.94-1.92,2.94-5,0-7a10.65,10.65,0,0,0-9.71-.49l-47-30.68h-50.17l-28.29-18.47,72-47h229v-1.9h-226l28.55-18.64h170.29l.2-.12,27-17.63v-2.2l-27.65,18.05H1717.49l-.19.13-193,126-21.42-14,202.89-132.47h148.38l.2-.13,61.07-39.87v-2.21l-61.72,40.3H1705.33l-.2.13L1501.2,546.2l-24.33-15.88L1872.56,272V178.24l42.86-28ZM1573.09,595.34l-197.5,129-197.51-129,197.51-129Z" transform="translate(0)"/><g class="cls-7"><polygon class="cls-3" points="1449.28 811.44 1000.66 552.43 1449.27 293.43 1897.88 552.44 1449.28 811.44"/></g><g class="cls-7"><polygon class="cls-3" points="1449.28 771.27 1070.24 552.43 1449.27 333.6 1828.31 552.44 1449.28 771.27"/></g><g class="cls-8"><polygon class="cls-9" points="1449.28 724.6 1151.08 552.43 1449.27 380.27 1747.47 552.44 1449.28 724.6"/></g><g class="cls-10"><path class="cls-11" d="M1205.9,555.58a15,15,0,0,1-7.5-2L1112,503.69a4.34,4.34,0,0,1,0-7.52l156.35-90.27a.85.85,0,0,1,.87,0l.72.42,92.76,53.55a4.34,4.34,0,0,1,0,7.52l-149.28,86.19A15,15,0,0,1,1205.9,555.58Zm62.87-147.93-155.92,90a2.61,2.61,0,0,0,0,4.52l86.41,49.89a13.52,13.52,0,0,0,13.27,0l149.28-86.19a2.6,2.6,0,0,0,0-4.52Z" transform="translate(0)"/></g><path class="cls-12" d="M1373.9,435.63l-9.07,4.74-91-52.51a6.61,6.61,0,0,0-5.94.24l-156.87,90.58c-1.5-.84-8.35-4.14-8.35-4.14l3.32,8.66,0,0a2,2,0,0,0,.93,1l95.79,55.3a6.61,6.61,0,0,0,5.94-.24l160.53-92.69a2.89,2.89,0,0,0,1.35-1.43h0Z" transform="translate(0)"/><path class="cls-13" d="M1372.49,437.13l-164.52,95a6.76,6.76,0,0,1-6.08.26l-98.18-56.69c-1.56-.9-1.36-2.47.44-3.51l164.52-95a6.75,6.75,0,0,1,6.08-.25l98.18,56.68C1374.49,434.51,1374.29,436.09,1372.49,437.13Z" transform="translate(0)"/><path class="cls-14" d="M1372.49,436.18l-164.52,95a6.76,6.76,0,0,1-6.08.26l-98.18-56.69a2,2,0,0,1-1-1.06,1.66,1.66,0,0,0,1,2l98.18,56.69a6.76,6.76,0,0,0,6.08-.26l164.52-95c1.22-.7,1.68-1.64,1.39-2.46A2.85,2.85,0,0,1,1372.49,436.18Z" transform="translate(0)"/><path class="cls-15" d="M1158.35,511.57v-1.81c0-.17.1-.25.23-.17l6.36,3.67a.54.54,0,0,1,.23.44v1.81c0,.17-.1.25-.23.17l-6.36-3.67A.54.54,0,0,1,1158.35,511.57Z" transform="translate(0)"/><path class="cls-15" d="M1167.86,517.06v-1.8c0-.18.11-.25.24-.18l6.36,3.67a.57.57,0,0,1,.23.45V521c0,.17-.1.25-.23.18l-6.36-3.68A.55.55,0,0,1,1167.86,517.06Z" transform="translate(0)"/><path class="cls-16" d="M1159.06,488.57l136.72-78.94a3,3,0,0,1,3,0l48.68,28.16a1.05,1.05,0,0,1,0,1.82l-136.66,78.9a3,3,0,0,1-2.94,0l-48.75-28.13A1.05,1.05,0,0,1,1159.06,488.57Z" transform="translate(0)"/><path class="cls-17" d="M1159.06,490.39l.49.28L1295.78,412a2.94,2.94,0,0,1,3,0l48.19,27.88.49-.28a1.05,1.05,0,0,0,0-1.82l-48.68-28.16a3,3,0,0,0-3,0l-136.72,78.94A1.05,1.05,0,0,0,1159.06,490.39Z" transform="translate(0)"/><polygon class="cls-18" points="1302.4 416.77 1176.46 489.48 1170.22 486.99 1297.12 413.72 1302.4 416.77"/><polygon class="cls-18" points="1315.35 424.24 1203.95 488.56 1198.67 485.51 1310.07 421.19 1315.35 424.24"/><polygon class="cls-18" points="1323.78 429.11 1192.63 504.83 1187.35 501.78 1318.5 426.06 1323.78 429.11"/><polygon class="cls-18" points="1332.21 433.98 1201.06 509.7 1195.78 506.65 1326.93 430.93 1332.21 433.98"/><polygon class="cls-18" points="1340.64 438.85 1209.49 514.57 1204.21 511.52 1335.36 435.8 1340.64 438.85"/><polygon class="cls-18" points="1176.46 489.48 1171.18 492.53 1165.9 489.48 1171.18 486.43 1176.46 489.48"/><polygon class="cls-18" points="1210.36 484.86 1184.13 500 1178.85 496.95 1205.27 481.7 1210.36 484.86"/><path class="cls-19" d="M1207.74,453.19l36.86-21.28c1.44-.83,1.44-2.18,0-3l-25.21-14.56a5.78,5.78,0,0,0-5.22,0l-36.86,21.29c-1.44.83-1.44,2.18,0,3l25.21,14.55A5.72,5.72,0,0,0,1207.74,453.19Z" transform="translate(0)"/><path class="cls-17" d="M1177.31,436.86l36.86-21.28a5.78,5.78,0,0,1,5.22,0l25.21,14.55a2.32,2.32,0,0,1,.9.89c.39-.73.1-1.55-.9-2.12l-25.21-14.56a5.78,5.78,0,0,0-5.22,0l-36.86,21.29c-1,.57-1.29,1.39-.91,2.12A2.29,2.29,0,0,1,1177.31,436.86Z" transform="translate(0)"/><path class="cls-20" d="M1373.63,433.2l-20.79-123.39,1.67-.71-2.51-1.44v0a1.8,1.8,0,0,0-1.94.13l-166.21,96a4.71,4.71,0,0,0-2.16,4.23l21,124.37a1.57,1.57,0,0,0,.87,1.26h0l2.46,1.42.42-2.29-.14,0,165.21-95.38A4.7,4.7,0,0,0,1373.63,433.2Z" transform="translate(0)"/><path class="cls-21" d="M1184.78,407.15l-2.74-1.21a3.88,3.88,0,0,0-.35,2.06l21,124.37a1.57,1.57,0,0,0,.87,1.26h0l2.46,1.42.42-2.29-.14,0,8.36-4.83Z" transform="translate(0)"/><path class="cls-22" d="M1374.08,438.91l-166.21,96c-1.28.74-2.38.31-2.61-1l-21-124.37a4.69,4.69,0,0,1,2.16-4.22l166.21-96c1.29-.74,2.38-.32,2.61,1l21,124.37A4.67,4.67,0,0,1,1374.08,438.91Z" transform="translate(0)"/><g class="cls-10"><path class="cls-11" d="M1674.71,555.58a15,15,0,0,1-7.5-2l-149.29-86.19a4.35,4.35,0,0,1,0-7.52l93.49-54a.85.85,0,0,1,.87,0l156.35,90.27a4.34,4.34,0,0,1,0,7.52l-86.41,49.89A15,15,0,0,1,1674.71,555.58Zm-62.87-147.93-.29.17-92.76,53.55a2.61,2.61,0,0,0,0,4.52l149.29,86.19h0a13.52,13.52,0,0,0,13.27,0l86.41-49.89a2.61,2.61,0,0,0,0-4.52Z" transform="translate(0)"/></g><path class="cls-23" d="M1506.72,435.63l9.07,4.74,91-52.51a6.59,6.59,0,0,1,5.93.24l156.88,90.58c1.5-.84,8.34-4.14,8.34-4.14l-3.32,8.66v0a2,2,0,0,1-.93,1l-95.79,55.3a6.61,6.61,0,0,1-5.94-.24l-160.53-92.69a2.85,2.85,0,0,1-1.35-1.43h0Z" transform="translate(0)"/><path class="cls-24" d="M1508.12,437.13l164.52,95a6.78,6.78,0,0,0,6.09.26l98.18-56.69c1.56-.9,1.36-2.47-.44-3.51l-164.52-95a6.77,6.77,0,0,0-6.09-.25l-98.17,56.68C1506.13,434.51,1506.32,436.09,1508.12,437.13Z" transform="translate(0)"/><path class="cls-14" d="M1508.12,436.18l164.52,95a6.78,6.78,0,0,0,6.09.26l98.18-56.69a2,2,0,0,0,.95-1.06,1.66,1.66,0,0,1-.95,2l-98.18,56.69a6.78,6.78,0,0,1-6.09-.26l-164.52-95c-1.21-.7-1.68-1.64-1.39-2.46A2.94,2.94,0,0,0,1508.12,436.18Z" transform="translate(0)"/><path class="cls-15" d="M1722.27,511.57v-1.81c0-.17-.1-.25-.23-.17l-6.37,3.67a.57.57,0,0,0-.23.44v1.81c0,.17.11.25.23.17L1722,512A.54.54,0,0,0,1722.27,511.57Z" transform="translate(0)"/><path class="cls-15" d="M1712.75,517.06v-1.8c0-.18-.1-.25-.23-.18l-6.36,3.67a.57.57,0,0,0-.23.45V521c0,.17.1.25.23.18l6.36-3.68A.54.54,0,0,0,1712.75,517.06Z" transform="translate(0)"/><path class="cls-16" d="M1721.56,488.57l-136.72-78.94a3,3,0,0,0-2.95,0l-48.68,28.16a1.05,1.05,0,0,0,0,1.82l136.65,78.9a3,3,0,0,0,2.94,0l48.75-28.13A1.05,1.05,0,0,0,1721.56,488.57Z" transform="translate(0)"/><path class="cls-17" d="M1721.55,490.39l-.48.28L1584.84,412a2.94,2.94,0,0,0-2.95,0L1533.7,439.9l-.49-.28a1.05,1.05,0,0,1,0-1.82l48.68-28.16a3,3,0,0,1,2.95,0l136.72,78.94A1.05,1.05,0,0,1,1721.55,490.39Z" transform="translate(0)"/><polygon class="cls-18" points="1578.22 416.77 1704.15 489.48 1710.39 486.99 1583.5 413.72 1578.22 416.77"/><polygon class="cls-18" points="1565.27 424.24 1676.66 488.56 1681.94 485.51 1570.55 421.19 1565.27 424.24"/><polygon class="cls-18" points="1556.84 429.11 1687.99 504.83 1693.27 501.78 1562.12 426.06 1556.84 429.11"/><polygon class="cls-18" points="1548.41 433.98 1679.56 509.7 1684.84 506.65 1553.69 430.93 1548.41 433.98"/><polygon class="cls-18" points="1539.98 438.85 1671.13 514.57 1676.41 511.52 1545.26 435.8 1539.98 438.85"/><polygon class="cls-18" points="1704.15 489.48 1709.43 492.53 1714.71 489.48 1709.43 486.43 1704.15 489.48"/><polygon class="cls-18" points="1670.26 484.86 1696.49 500 1701.77 496.95 1675.35 481.7 1670.26 484.86"/><path class="cls-25" d="M1672.88,453.19,1636,431.91c-1.44-.83-1.44-2.18,0-3l25.21-14.56a5.76,5.76,0,0,1,5.21,0l36.87,21.29c1.44.83,1.44,2.18,0,3l-25.21,14.55A5.72,5.72,0,0,1,1672.88,453.19Z" transform="translate(0)"/><path class="cls-17" d="M1703.31,436.86l-36.87-21.28a5.76,5.76,0,0,0-5.21,0L1636,430.13a2.29,2.29,0,0,0-.91.89c-.38-.73-.09-1.55.91-2.12l25.21-14.56a5.76,5.76,0,0,1,5.21,0l36.87,21.29c1,.57,1.28,1.39.9,2.12A2.32,2.32,0,0,0,1703.31,436.86Z" transform="translate(0)"/><path class="cls-26" d="M1507,433.2l20.8-123.39-1.67-.71,2.51-1.44v0a1.78,1.78,0,0,1,1.93.13l166.21,96a4.69,4.69,0,0,1,2.16,4.23l-21,124.37a1.56,1.56,0,0,1-.88,1.26h0l-2.46,1.42-.42-2.29.14,0-165.21-95.38A4.69,4.69,0,0,1,1507,433.2Z" transform="translate(0)"/><path class="cls-27" d="M1695.84,407.15l2.73-1.21a3.7,3.7,0,0,1,.35,2.06l-21,124.37a1.56,1.56,0,0,1-.88,1.26h0l-2.46,1.42-.42-2.29.14,0L1666,528Z" transform="translate(0)"/><path class="cls-22" d="M1506.53,438.91l166.22,96c1.28.74,2.38.31,2.6-1l21-124.37a4.71,4.71,0,0,0-2.16-4.22l-166.22-96c-1.28-.74-2.38-.32-2.6,1l-21,124.37A4.7,4.7,0,0,0,1506.53,438.91Z" transform="translate(0)"/><polygon class="cls-28" points="1440.31 585.34 1285.55 495.99 1440.31 406.64 1595.07 495.99 1440.31 585.34"/><polygon class="cls-22" points="1440.31 560.95 1327.8 495.99 1440.31 431.04 1552.81 495.99 1440.31 560.95"/><polygon class="cls-14" points="1440.31 435.44 1549 498.19 1552.81 495.99 1440.31 431.04 1327.8 495.99 1331.61 498.19 1440.31 435.44"/><polygon class="cls-29" points="1595.07 495.99 1595.07 546.64 1440.31 635.99 1440.31 585.34 1595.07 495.99"/><polygon class="cls-18" points="1285.55 495.99 1285.55 546.64 1440.31 635.99 1440.31 585.34 1285.55 495.99"/><g class="cls-30"><polygon class="cls-22" points="1296.03 518.75 1296.03 534.69 1429.83 611.94 1429.83 595.99 1296.03 518.75"/></g><polygon class="cls-14" points="1440.31 582.44 1288.06 494.54 1285.55 495.99 1440.31 585.34 1595.07 495.99 1592.56 494.54 1440.31 582.44"/><polygon class="cls-22" points="1571.86 531.48 1571.86 540.55 1463.53 603.1 1463.53 594.03 1571.86 531.48"/><polygon class="cls-31" points="1285.55 495.99 1285.55 546.64 1440.31 635.99 1440.31 585.34 1285.55 495.99"/><polygon class="cls-11" points="1395.13 582.65 1367.11 566.47 1367.1 569.81 1395.13 585.99 1395.13 582.65"/><polygon class="cls-11" points="1363.07 564.17 1355.47 559.79 1355.47 563.13 1363.06 567.51 1363.07 564.17"/><polygon class="cls-11" points="1327.49 543.64 1311.96 534.67 1311.95 538.01 1327.49 546.98 1327.49 543.64"/><polygon class="cls-11" points="1341.67 551.83 1330.44 545.34 1330.43 548.68 1341.67 555.17 1341.67 551.83"/><polygon class="cls-11" points="1352.21 557.91 1344.61 553.52 1344.61 556.87 1352.2 561.25 1352.21 557.91"/><polygon class="cls-11" points="1440.47 453.34 1435.55 450.5 1440.47 447.66 1445.38 450.5 1440.47 453.34"/><polygon class="cls-6" points="1450.3 459.01 1445.38 456.18 1450.3 453.34 1455.21 456.18 1450.3 459.01"/><polygon class="cls-32" points="1460.13 464.69 1455.21 461.85 1460.13 459.01 1465.04 461.85 1460.13 464.69"/><polygon class="cls-11" points="1469.95 470.36 1465.04 467.52 1469.95 464.69 1474.87 467.52 1469.95 470.36"/><polygon class="cls-32" points="1479.78 476.04 1474.87 473.2 1479.78 470.36 1484.7 473.2 1479.78 476.04"/><polygon class="cls-11" points="1489.61 481.71 1484.7 478.87 1489.61 476.04 1494.53 478.87 1489.61 481.71"/><polygon class="cls-11" points="1499.44 487.39 1494.53 484.55 1499.44 481.71 1504.35 484.55 1499.44 487.39"/><polygon class="cls-11" points="1509.27 493.06 1504.36 490.22 1509.27 487.39 1514.18 490.22 1509.27 493.06"/><polygon class="cls-6" points="1519.1 498.74 1514.18 495.9 1519.1 493.06 1524.01 495.9 1519.1 498.74"/><polygon class="cls-11" points="1430.6 459.04 1425.68 456.2 1430.6 453.36 1435.51 456.2 1430.6 459.04"/><polygon class="cls-11" points="1440.43 464.71 1435.51 461.87 1440.43 459.04 1445.34 461.87 1440.43 464.71"/><polygon class="cls-11" points="1450.26 470.38 1445.34 467.55 1450.26 464.71 1455.17 467.55 1450.26 470.38"/><polygon class="cls-11" points="1460.09 476.06 1455.17 473.22 1460.09 470.38 1465 473.22 1460.09 476.06"/><polygon class="cls-11" points="1469.91 481.73 1465 478.9 1469.91 476.06 1474.83 478.9 1469.91 481.73"/><polygon class="cls-11" points="1479.74 487.41 1474.83 484.57 1479.74 481.74 1484.66 484.57 1479.74 487.41"/><polygon class="cls-11" points="1489.57 493.08 1484.66 490.25 1489.57 487.41 1494.49 490.25 1489.57 493.08"/><polygon class="cls-11" points="1499.4 498.76 1494.49 495.92 1499.4 493.08 1504.32 495.92 1499.4 498.76"/><polygon class="cls-11" points="1509.23 504.43 1504.32 501.6 1509.23 498.76 1514.14 501.6 1509.23 504.43"/><polygon class="cls-11" points="1420.73 464.73 1415.82 461.9 1420.73 459.06 1425.64 461.9 1420.73 464.73"/><polygon class="cls-11" points="1430.56 470.41 1425.64 467.57 1430.56 464.73 1435.47 467.57 1430.56 470.41"/><polygon class="cls-11" points="1440.39 476.08 1435.47 473.25 1440.39 470.41 1445.3 473.25 1440.39 476.08"/><polygon class="cls-6" points="1450.22 481.76 1445.3 478.92 1450.22 476.08 1455.13 478.92 1450.22 481.76"/><polygon class="cls-32" points="1460.05 487.43 1455.13 484.6 1460.05 481.76 1464.96 484.6 1460.05 487.43"/><polygon class="cls-32" points="1469.87 493.11 1464.96 490.27 1469.87 487.43 1474.79 490.27 1469.87 493.11"/><polygon class="cls-11" points="1479.7 498.78 1474.79 495.94 1479.7 493.11 1484.62 495.94 1479.7 498.78"/><polygon class="cls-11" points="1489.53 504.46 1484.62 501.62 1489.53 498.78 1494.45 501.62 1489.53 504.46"/><polygon class="cls-11" points="1499.36 510.13 1494.45 507.29 1499.36 504.46 1504.28 507.29 1499.36 510.13"/><polygon class="cls-32" points="1410.86 470.43 1405.95 467.59 1410.86 464.76 1415.78 467.59 1410.86 470.43"/><polygon class="cls-32" points="1420.69 476.11 1415.78 473.27 1420.69 470.43 1425.61 473.27 1420.69 476.11"/><polygon class="cls-6" points="1430.52 481.78 1425.61 478.94 1430.52 476.11 1435.43 478.94 1430.52 481.78"/><polygon class="cls-11" points="1440.35 487.45 1435.43 484.62 1440.35 481.78 1445.26 484.62 1440.35 487.45"/><polygon class="cls-11" points="1450.18 493.13 1445.26 490.29 1450.18 487.45 1455.09 490.29 1450.18 493.13"/><polygon class="cls-11" points="1460.01 498.8 1455.09 495.97 1460.01 493.13 1464.92 495.97 1460.01 498.8"/><polygon class="cls-32" points="1469.83 504.48 1464.92 501.64 1469.83 498.81 1474.75 501.64 1469.83 504.48"/><polygon class="cls-11" points="1479.66 510.15 1474.75 507.32 1479.66 504.48 1484.58 507.32 1479.66 510.15"/><polygon class="cls-11" points="1489.49 515.83 1484.58 512.99 1489.49 510.15 1494.41 512.99 1489.49 515.83"/><polygon class="cls-11" points="1400.99 476.13 1396.08 473.29 1400.99 470.45 1405.91 473.29 1400.99 476.13"/><polygon class="cls-11" points="1410.82 481.8 1405.91 478.97 1410.82 476.13 1415.74 478.97 1410.82 481.8"/><polygon class="cls-11" points="1420.65 487.48 1415.74 484.64 1420.65 481.8 1425.57 484.64 1420.65 487.48"/><polygon class="cls-11" points="1430.48 493.15 1425.57 490.31 1430.48 487.48 1435.39 490.32 1430.48 493.15"/><polygon class="cls-11" points="1440.31 498.83 1435.39 495.99 1440.31 493.15 1445.22 495.99 1440.31 498.83"/><polygon class="cls-11" points="1450.14 504.5 1445.22 501.67 1450.14 498.83 1455.05 501.67 1450.14 504.5"/><polygon class="cls-11" points="1459.97 510.18 1455.05 507.34 1459.97 504.5 1464.88 507.34 1459.97 510.18"/><polygon class="cls-11" points="1469.79 515.85 1464.88 513.01 1469.79 510.18 1474.71 513.01 1469.79 515.85"/><polygon class="cls-11" points="1479.62 521.53 1474.71 518.69 1479.62 515.85 1484.54 518.69 1479.62 521.53"/><polygon class="cls-11" points="1391.12 481.83 1386.21 478.99 1391.12 476.15 1396.04 478.99 1391.12 481.83"/><polygon class="cls-11" points="1400.95 487.5 1396.04 484.66 1400.95 481.83 1405.87 484.66 1400.95 487.5"/><polygon class="cls-32" points="1410.78 493.18 1405.87 490.34 1410.78 487.5 1415.7 490.34 1410.78 493.18"/><polygon class="cls-11" points="1420.61 498.85 1415.7 496.01 1420.61 493.18 1425.53 496.01 1420.61 498.85"/><polygon class="cls-6" points="1430.44 504.52 1425.53 501.69 1430.44 498.85 1435.35 501.69 1430.44 504.52"/><polygon class="cls-11" points="1440.27 510.2 1435.35 507.36 1440.27 504.52 1445.18 507.36 1440.27 510.2"/><polygon class="cls-11" points="1450.1 515.87 1445.18 513.04 1450.1 510.2 1455.01 513.04 1450.1 515.87"/><polygon class="cls-11" points="1459.93 521.55 1455.01 518.71 1459.93 515.87 1464.84 518.71 1459.93 521.55"/><polygon class="cls-11" points="1469.76 527.22 1464.84 524.39 1469.76 521.55 1474.67 524.39 1469.76 527.22"/><polygon class="cls-11" points="1381.26 487.52 1376.34 484.69 1381.26 481.85 1386.17 484.69 1381.26 487.52"/><polygon class="cls-11" points="1391.09 493.2 1386.17 490.36 1391.08 487.52 1396 490.36 1391.09 493.2"/><polygon class="cls-32" points="1400.91 498.87 1396 496.04 1400.91 493.2 1405.83 496.04 1400.91 498.87"/><polygon class="cls-11" points="1410.74 504.55 1405.83 501.71 1410.74 498.87 1415.66 501.71 1410.74 504.55"/><polygon class="cls-11" points="1420.57 510.22 1415.66 507.38 1420.57 504.55 1425.48 507.38 1420.57 510.22"/><polygon class="cls-6" points="1430.4 515.9 1425.48 513.06 1430.4 510.22 1435.31 513.06 1430.4 515.9"/><polygon class="cls-32" points="1440.23 521.57 1435.31 518.74 1440.23 515.9 1445.14 518.74 1440.23 521.57"/><polygon class="cls-11" points="1450.06 527.25 1445.14 524.41 1450.06 521.57 1454.97 524.41 1450.06 527.25"/><polygon class="cls-6" points="1459.89 532.92 1454.97 530.08 1459.89 527.25 1464.8 530.08 1459.89 532.92"/><polygon class="cls-11" points="1371.39 493.22 1366.47 490.38 1371.39 487.55 1376.3 490.38 1371.39 493.22"/><polygon class="cls-32" points="1381.22 498.9 1376.3 496.06 1381.22 493.22 1386.13 496.06 1381.22 498.9"/><polygon class="cls-11" points="1391.05 504.57 1386.13 501.73 1391.05 498.9 1395.96 501.73 1391.05 504.57"/><polygon class="cls-11" points="1400.87 510.25 1395.96 507.41 1400.87 504.57 1405.79 507.41 1400.87 510.25"/><polygon class="cls-11" points="1410.7 515.92 1405.79 513.08 1410.7 510.25 1415.62 513.08 1410.7 515.92"/><polygon class="cls-11" points="1420.53 521.6 1415.62 518.76 1420.53 515.92 1425.44 518.76 1420.53 521.6"/><polygon class="cls-11" points="1430.36 527.27 1425.45 524.43 1430.36 521.6 1435.27 524.43 1430.36 527.27"/><polygon class="cls-32" points="1440.19 532.94 1435.27 530.11 1440.19 527.27 1445.1 530.11 1440.19 532.94"/><polygon class="cls-11" points="1450.02 538.62 1445.1 535.78 1450.02 532.94 1454.93 535.78 1450.02 538.62"/><polygon class="cls-11" points="1361.52 498.92 1356.6 496.08 1361.52 493.25 1366.43 496.08 1361.52 498.92"/><polygon class="cls-6" points="1371.35 504.59 1366.43 501.76 1371.35 498.92 1376.26 501.76 1371.35 504.59"/><polygon class="cls-11" points="1381.18 510.27 1376.26 507.43 1381.18 504.59 1386.09 507.43 1381.18 510.27"/><polygon class="cls-11" points="1391.01 515.94 1386.09 513.11 1391.01 510.27 1395.92 513.11 1391.01 515.94"/><polygon class="cls-11" points="1400.83 521.62 1395.92 518.78 1400.83 515.94 1405.75 518.78 1400.83 521.62"/><polygon class="cls-11" points="1410.66 527.29 1405.75 524.46 1410.66 521.62 1415.58 524.46 1410.66 527.29"/><polygon class="cls-32" points="1420.49 532.97 1415.58 530.13 1420.49 527.29 1425.41 530.13 1420.49 532.97"/><polygon class="cls-11" points="1430.32 538.64 1425.41 535.8 1430.32 532.97 1435.23 535.8 1430.32 538.64"/><polygon class="cls-11" points="1440.15 544.32 1435.23 541.48 1440.15 538.64 1445.06 541.48 1440.15 544.32"/><polygon class="cls-28" points="1440.31 497.65 1285.55 408.29 1440.31 318.94 1595.07 408.3 1440.31 497.65"/><polygon class="cls-22" points="1440.31 473.25 1327.8 408.3 1440.31 343.34 1552.81 408.3 1440.31 473.25"/><polygon class="cls-14" points="1440.31 347.74 1549 410.5 1552.81 408.3 1440.31 343.34 1327.8 408.3 1331.61 410.49 1440.31 347.74"/><polygon class="cls-33" points="1595.07 408.3 1595.07 458.94 1440.31 548.3 1440.31 497.65 1595.07 408.3"/><polygon class="cls-18" points="1285.55 408.29 1285.55 458.94 1440.31 548.3 1440.31 497.65 1285.55 408.29"/><g class="cls-30"><polygon class="cls-22" points="1296.03 431.05 1296.03 447 1429.83 524.25 1429.83 508.3 1296.03 431.05"/></g><polygon class="cls-14" points="1440.31 494.75 1288.06 406.84 1285.55 408.29 1440.31 497.65 1595.07 408.3 1592.56 406.85 1440.31 494.75"/><polygon class="cls-22" points="1571.86 443.79 1571.86 452.86 1463.53 515.4 1463.53 506.33 1571.86 443.79"/><polygon class="cls-31" points="1285.55 408.29 1285.55 458.94 1440.31 548.3 1440.31 497.65 1285.55 408.29"/><polygon class="cls-11" points="1395.13 494.96 1367.11 478.77 1367.1 482.12 1395.13 498.3 1395.13 494.96"/><polygon class="cls-11" points="1363.07 476.48 1355.47 472.09 1355.47 475.44 1363.06 479.82 1363.07 476.48"/><polygon class="cls-11" points="1327.49 455.94 1311.96 446.97 1311.95 450.32 1327.49 459.29 1327.49 455.94"/><polygon class="cls-11" points="1341.67 464.13 1330.44 457.64 1330.43 460.99 1341.67 467.47 1341.67 464.13"/><polygon class="cls-11" points="1352.21 470.21 1344.61 465.83 1344.61 469.17 1352.2 473.56 1352.21 470.21"/><polygon class="cls-11" points="1440.47 365.64 1435.55 362.81 1440.47 359.97 1445.38 362.81 1440.47 365.64"/><polygon class="cls-6" points="1450.3 371.32 1445.38 368.48 1450.3 365.64 1455.21 368.48 1450.3 371.32"/><polygon class="cls-32" points="1460.13 376.99 1455.21 374.16 1460.13 371.32 1465.04 374.16 1460.13 376.99"/><polygon class="cls-11" points="1469.95 382.67 1465.04 379.83 1469.95 376.99 1474.87 379.83 1469.95 382.67"/><polygon class="cls-32" points="1479.78 388.34 1474.87 385.5 1479.78 382.67 1484.7 385.5 1479.78 388.34"/><polygon class="cls-11" points="1489.61 394.02 1484.7 391.18 1489.61 388.34 1494.53 391.18 1489.61 394.02"/><polygon class="cls-11" points="1499.44 399.69 1494.53 396.85 1499.44 394.02 1504.35 396.85 1499.44 399.69"/><polygon class="cls-11" points="1509.27 405.37 1504.36 402.53 1509.27 399.69 1514.18 402.53 1509.27 405.37"/><polygon class="cls-6" points="1519.1 411.04 1514.18 408.2 1519.1 405.37 1524.01 408.2 1519.1 411.04"/><polygon class="cls-11" points="1430.6 371.34 1425.68 368.5 1430.6 365.67 1435.51 368.5 1430.6 371.34"/><polygon class="cls-11" points="1440.43 377.02 1435.51 374.18 1440.43 371.34 1445.34 374.18 1440.43 377.02"/><polygon class="cls-11" points="1450.26 382.69 1445.34 379.85 1450.26 377.02 1455.17 379.85 1450.26 382.69"/><polygon class="cls-34" points="1460.09 388.37 1455.17 385.53 1460.09 382.69 1465 385.53 1460.09 388.37"/><polygon class="cls-11" points="1469.91 394.04 1465 391.2 1469.91 388.37 1474.83 391.2 1469.91 394.04"/><polygon class="cls-11" points="1479.74 399.71 1474.83 396.88 1479.74 394.04 1484.66 396.88 1479.74 399.71"/><polygon class="cls-35" points="1489.57 405.39 1484.66 402.55 1489.57 399.71 1494.49 402.55 1489.57 405.39"/><polygon class="cls-11" points="1499.4 411.06 1494.49 408.23 1499.4 405.39 1504.32 408.23 1499.4 411.06"/><polygon class="cls-34" points="1509.23 416.74 1504.32 413.9 1509.23 411.06 1514.14 413.9 1509.23 416.74"/><polygon class="cls-11" points="1420.73 377.04 1415.82 374.2 1420.73 371.36 1425.64 374.2 1420.73 377.04"/><polygon class="cls-34" points="1430.56 382.71 1425.64 379.88 1430.56 377.04 1435.47 379.88 1430.56 382.71"/><polygon class="cls-11" points="1440.39 388.39 1435.47 385.55 1440.39 382.71 1445.3 385.55 1440.39 388.39"/><polygon class="cls-6" points="1450.22 394.06 1445.3 391.23 1450.22 388.39 1455.13 391.23 1450.22 394.06"/><polygon class="cls-32" points="1460.05 399.74 1455.13 396.9 1460.05 394.06 1464.96 396.9 1460.05 399.74"/><polygon class="cls-32" points="1469.87 405.41 1464.96 402.57 1469.87 399.74 1474.79 402.57 1469.87 405.41"/><polygon class="cls-11" points="1479.7 411.09 1474.79 408.25 1479.7 405.41 1484.62 408.25 1479.7 411.09"/><polygon class="cls-11" points="1489.53 416.76 1484.62 413.92 1489.53 411.09 1494.45 413.92 1489.53 416.76"/><polygon class="cls-11" points="1499.36 422.44 1494.45 419.6 1499.36 416.76 1504.28 419.6 1499.36 422.44"/><polygon class="cls-32" points="1410.86 382.74 1405.95 379.9 1410.86 377.06 1415.78 379.9 1410.86 382.74"/><polygon class="cls-32" points="1420.69 388.41 1415.78 385.57 1420.69 382.74 1425.61 385.57 1420.69 388.41"/><polygon class="cls-6" points="1430.52 394.09 1425.61 391.25 1430.52 388.41 1435.43 391.25 1430.52 394.09"/><polygon class="cls-11" points="1440.35 399.76 1435.43 396.92 1440.35 394.09 1445.26 396.92 1440.35 399.76"/><polygon class="cls-11" points="1450.18 405.44 1445.26 402.6 1450.18 399.76 1455.09 402.6 1450.18 405.44"/><polygon class="cls-34" points="1460.01 411.11 1455.09 408.27 1460.01 405.44 1464.92 408.27 1460.01 411.11"/><polygon class="cls-32" points="1469.83 416.79 1464.92 413.95 1469.83 411.11 1474.75 413.95 1469.83 416.79"/><polygon class="cls-11" points="1479.66 422.46 1474.75 419.62 1479.66 416.79 1484.58 419.62 1479.66 422.46"/><polygon class="cls-11" points="1489.49 428.13 1484.58 425.3 1489.49 422.46 1494.41 425.3 1489.49 428.13"/><polygon class="cls-34" points="1400.99 388.43 1396.08 385.6 1400.99 382.76 1405.91 385.6 1400.99 388.43"/><polygon class="cls-11" points="1410.82 394.11 1405.91 391.27 1410.82 388.43 1415.74 391.27 1410.82 394.11"/><polygon class="cls-11" points="1420.65 399.78 1415.74 396.95 1420.65 394.11 1425.57 396.95 1420.65 399.78"/><polygon class="cls-11" points="1430.48 405.46 1425.57 402.62 1430.48 399.78 1435.39 402.62 1430.48 405.46"/><polygon class="cls-34" points="1440.31 411.13 1435.39 408.3 1440.31 405.46 1445.22 408.3 1440.31 411.13"/><polygon class="cls-34" points="1450.14 416.81 1445.22 413.97 1450.14 411.13 1455.05 413.97 1450.14 416.81"/><polygon class="cls-11" points="1459.97 422.48 1455.05 419.64 1459.97 416.81 1464.88 419.64 1459.97 422.48"/><polygon class="cls-11" points="1469.79 428.16 1464.88 425.32 1469.79 422.48 1474.71 425.32 1469.79 428.16"/><polygon class="cls-11" points="1479.62 433.83 1474.71 430.99 1479.62 428.16 1484.54 430.99 1479.62 433.83"/><polygon class="cls-11" points="1391.12 394.13 1386.21 391.3 1391.12 388.46 1396.04 391.3 1391.12 394.13"/><polygon class="cls-11" points="1400.95 399.81 1396.04 396.97 1400.95 394.13 1405.87 396.97 1400.95 399.81"/><polygon class="cls-32" points="1410.78 405.48 1405.87 402.64 1410.78 399.81 1415.7 402.64 1410.78 405.48"/><polygon class="cls-34" points="1420.61 411.16 1415.7 408.32 1420.61 405.48 1425.53 408.32 1420.61 411.16"/><polygon class="cls-6" points="1430.44 416.83 1425.53 413.99 1430.44 411.16 1435.35 413.99 1430.44 416.83"/><polygon class="cls-11" points="1440.27 422.5 1435.35 419.67 1440.27 416.83 1445.18 419.67 1440.27 422.5"/><polygon class="cls-11" points="1450.1 428.18 1445.18 425.34 1450.1 422.5 1455.01 425.34 1450.1 428.18"/><polygon class="cls-34" points="1459.93 433.86 1455.01 431.02 1459.93 428.18 1464.84 431.02 1459.93 433.86"/><polygon class="cls-11" points="1469.76 439.53 1464.84 436.69 1469.76 433.86 1474.67 436.69 1469.76 439.53"/><polygon class="cls-11" points="1381.26 399.83 1376.34 396.99 1381.26 394.15 1386.17 396.99 1381.26 399.83"/><polygon class="cls-11" points="1391.09 405.5 1386.17 402.67 1391.08 399.83 1396 402.67 1391.09 405.5"/><polygon class="cls-32" points="1400.91 411.18 1396 408.34 1400.91 405.5 1405.83 408.34 1400.91 411.18"/><polygon class="cls-11" points="1410.74 416.85 1405.83 414.02 1410.74 411.18 1415.66 414.02 1410.74 416.85"/><polygon class="cls-11" points="1420.57 422.53 1415.66 419.69 1420.57 416.85 1425.48 419.69 1420.57 422.53"/><polygon class="cls-6" points="1430.4 428.2 1425.48 425.37 1430.4 422.53 1435.31 425.37 1430.4 428.2"/><polygon class="cls-32" points="1440.23 433.88 1435.31 431.04 1440.23 428.2 1445.14 431.04 1440.23 433.88"/><polygon class="cls-11" points="1450.06 439.55 1445.14 436.71 1450.06 433.88 1454.97 436.71 1450.06 439.55"/><polygon class="cls-6" points="1459.89 445.23 1454.97 442.39 1459.89 439.55 1464.8 442.39 1459.89 445.23"/><polygon class="cls-11" points="1371.39 405.53 1366.47 402.69 1371.39 399.85 1376.3 402.69 1371.39 405.53"/><polygon class="cls-32" points="1381.22 411.2 1376.3 408.37 1381.22 405.53 1386.13 408.37 1381.22 411.2"/><polygon class="cls-11" points="1391.05 416.88 1386.13 414.04 1391.05 411.2 1395.96 414.04 1391.05 416.88"/><polygon class="cls-11" points="1400.87 422.55 1395.96 419.71 1400.87 416.88 1405.79 419.71 1400.87 422.55"/><polygon class="cls-11" points="1410.7 428.23 1405.79 425.39 1410.7 422.55 1415.62 425.39 1410.7 428.23"/><polygon class="cls-11" points="1420.53 433.9 1415.62 431.06 1420.53 428.23 1425.44 431.06 1420.53 433.9"/><polygon class="cls-11" points="1430.36 439.57 1425.45 436.74 1430.36 433.9 1435.27 436.74 1430.36 439.57"/><polygon class="cls-32" points="1440.19 445.25 1435.27 442.41 1440.19 439.57 1445.1 442.41 1440.19 445.25"/><polygon class="cls-11" points="1450.02 450.93 1445.1 448.09 1450.02 445.25 1454.93 448.09 1450.02 450.93"/><polygon class="cls-11" points="1361.52 411.23 1356.6 408.39 1361.52 405.55 1366.43 408.39 1361.52 411.23"/><polygon class="cls-6" points="1371.35 416.9 1366.43 414.06 1371.35 411.23 1376.26 414.06 1371.35 416.9"/><polygon class="cls-34" points="1381.18 422.57 1376.26 419.74 1381.18 416.9 1386.09 419.74 1381.18 422.57"/><polygon class="cls-11" points="1391.01 428.25 1386.09 425.41 1391.01 422.57 1395.92 425.41 1391.01 428.25"/><polygon class="cls-11" points="1400.83 433.92 1395.92 431.09 1400.83 428.25 1405.75 431.09 1400.83 433.92"/><polygon class="cls-11" points="1410.66 439.6 1405.75 436.76 1410.66 433.92 1415.58 436.76 1410.66 439.6"/><polygon class="cls-32" points="1420.49 445.27 1415.58 442.44 1420.49 439.6 1425.41 442.44 1420.49 445.27"/><polygon class="cls-34" points="1430.32 450.95 1425.41 448.11 1430.32 445.27 1435.23 448.11 1430.32 450.95"/><polygon class="cls-11" points="1440.15 456.62 1435.23 453.79 1440.15 450.95 1445.06 453.79 1440.15 456.62"/><g class="cls-10"><path class="cls-11" d="M1606.91,770.26a15.32,15.32,0,0,1-7.63-2l-87.94-50.77a4.41,4.41,0,0,1,0-7.63L1670.46,618a.88.88,0,0,1,.86,0l95.14,54.93a4.41,4.41,0,0,1,0,7.63l-151.92,87.71A15.32,15.32,0,0,1,1606.91,770.26Zm64-150.55-158.68,91.61a2.66,2.66,0,0,0,0,4.62l87.94,50.78a13.79,13.79,0,0,0,13.52,0L1765.59,679a2.67,2.67,0,0,0,0-4.62Z" transform="translate(0)"/></g><path class="cls-36" d="M1671.08,582.46l-21.16-125.57,1.7-.72-2.56-1.46h0a1.83,1.83,0,0,0-2,.14l-169.16,97.66a4.78,4.78,0,0,0-2.19,4.3l21.33,126.56a1.59,1.59,0,0,0,.89,1.29h0l2.5,1.45.43-2.34-.14.05,168.13-97.07A4.77,4.77,0,0,0,1671.08,582.46Z" transform="translate(0)"/><path class="cls-37" d="M1478.89,556l-2.78-1.23a3.74,3.74,0,0,0-.36,2.1l21.33,126.56a1.59,1.59,0,0,0,.89,1.29h0l2.5,1.45.43-2.34-.14.05,8.51-4.92Z" transform="translate(0)"/><path class="cls-18" d="M1671.54,588.28l-169.15,97.66c-1.31.75-2.42.32-2.65-1L1478.4,558.34a4.79,4.79,0,0,1,2.2-4.3l169.15-97.66c1.31-.75,2.42-.32,2.65,1L1673.74,584A4.79,4.79,0,0,1,1671.54,588.28Z" transform="translate(0)"/><g class="cls-30"><polygon class="cls-22" points="1647.54 464.46 1484.49 558.6 1504.71 677.8 1667.65 583.72 1647.54 464.46"/></g><path class="cls-38" d="M1777.87,648.2l-9.23,4.82-92.56-53.44a6.75,6.75,0,0,0-6,.25L1510.39,692c-1.53-.85-8.5-4.2-8.5-4.2l3.38,8.8h0a2,2,0,0,0,.94,1l97.49,56.28a6.67,6.67,0,0,0,6-.25l163.37-94.32a2.93,2.93,0,0,0,1.37-1.45h0Z" transform="translate(0)"/><path class="cls-39" d="M1776.44,649.72,1609,746.39a6.89,6.89,0,0,1-6.19.25L1502.91,689c-1.59-.92-1.39-2.52.44-3.58l167.43-96.66a6.86,6.86,0,0,1,6.19-.26l99.92,57.68C1778.47,647.06,1778.28,648.66,1776.44,649.72Z" transform="translate(0)"/><path class="cls-14" d="M1776.44,648.75,1609,745.42a6.89,6.89,0,0,1-6.19.26L1502.91,688a2,2,0,0,1-1-1.08,1.68,1.68,0,0,0,1,2.05l99.91,57.68a6.89,6.89,0,0,0,6.19-.25l167.43-96.67c1.24-.71,1.71-1.67,1.42-2.5A2.92,2.92,0,0,1,1776.44,648.75Z" transform="translate(0)"/><path class="cls-15" d="M1558.51,725.47v-1.83c0-.18.11-.26.24-.18l6.47,3.74a.57.57,0,0,1,.24.45v1.84c0,.17-.11.25-.24.18l-6.47-3.74A.59.59,0,0,1,1558.51,725.47Z" transform="translate(0)"/><path class="cls-15" d="M1568.19,731.07v-1.84c0-.17.11-.25.24-.18l6.48,3.74a.57.57,0,0,1,.23.45v1.84c0,.17-.1.25-.23.18l-6.48-3.74A.58.58,0,0,1,1568.19,731.07Z" transform="translate(0)"/><path class="cls-16" d="M1529,683.55l139.14-80.33a3,3,0,0,1,3,0l49.54,28.66a1.06,1.06,0,0,1,0,1.85L1581.56,714a3,3,0,0,1-3,0L1529,685.4A1.07,1.07,0,0,1,1529,683.55Z" transform="translate(0)"/><path class="cls-17" d="M1529,685.4l.5.29,138.64-80a3,3,0,0,1,3,0L1720.14,634l.49-.29a1.06,1.06,0,0,0,0-1.85l-49.54-28.66a3,3,0,0,0-3,0L1529,683.55A1.07,1.07,0,0,0,1529,685.4Z" transform="translate(0)"/><polygon class="cls-18" points="1674.83 610.49 1553.97 680.26 1548.59 677.16 1669.45 607.38 1674.83 610.49"/><polygon class="cls-18" points="1688 618.09 1574.64 683.54 1569.27 680.44 1682.63 614.99 1688 618.09"/><polygon class="cls-18" points="1696.58 623.05 1563.11 700.11 1557.74 697 1691.21 619.94 1696.58 623.05"/><polygon class="cls-18" points="1705.16 628 1571.69 705.06 1566.32 701.96 1699.79 624.9 1705.16 628"/><polygon class="cls-18" points="1713.74 632.96 1580.27 710.01 1574.9 706.91 1708.37 629.85 1713.74 632.96"/><polygon class="cls-18" points="1546.67 684.48 1541.29 687.58 1535.92 684.48 1541.29 681.38 1546.67 684.48"/><polygon class="cls-18" points="1565.62 688.75 1554.47 695.19 1549.09 692.09 1560.25 685.65 1565.62 688.75"/><path class="cls-40" d="M1673.45,703,1711,681.33c1.47-.84,1.47-2.21,0-3.06l-25.65-14.81a5.85,5.85,0,0,0-5.31,0l-37.52,21.66c-1.46.84-1.46,2.22,0,3.06L1668.14,703A5.85,5.85,0,0,0,1673.45,703Z" transform="translate(0)"/><path class="cls-17" d="M1642.48,686.37,1680,664.71a5.85,5.85,0,0,1,5.31,0L1711,679.52a2.32,2.32,0,0,1,.93.91c.38-.74.09-1.58-.93-2.16l-25.65-14.81a5.85,5.85,0,0,0-5.31,0l-37.52,21.66c-1,.58-1.31,1.42-.92,2.16A2.36,2.36,0,0,1,1642.48,686.37Z" transform="translate(0)"/><g class="cls-41"><g class="cls-42"><path class="cls-43" d="M1671,588.52l-167.43,96.66a6.88,6.88,0,0,1-6.2.26l-99.91-57.68c-1.59-.92-1.39-2.52.45-3.58l167.43-96.67a6.89,6.89,0,0,1,6.19-.25l99.91,57.68C1673,585.86,1672.78,587.46,1671,588.52Z" transform="translate(0)"/><path class="cls-44" d="M1503,605.85l37.51-21.66c1.47-.85,1.47-2.22,0-3.07l-25.65-14.81a5.85,5.85,0,0,0-5.31,0L1472.05,588c-1.46.85-1.46,2.22,0,3.07l25.66,14.81A5.91,5.91,0,0,0,1503,605.85Z" transform="translate(0)"/><path class="cls-17" d="M1472.05,589.22l37.52-21.66a5.91,5.91,0,0,1,5.31,0l25.65,14.82a2.31,2.31,0,0,1,.93.9c.38-.74.09-1.57-.93-2.16l-25.65-14.81a5.85,5.85,0,0,0-5.31,0L1472.05,588c-1,.59-1.31,1.42-.92,2.16A2.36,2.36,0,0,1,1472.05,589.22Z" transform="translate(0)"/><path class="cls-16" d="M1455.56,639.7l139.14-80.33a3,3,0,0,1,3,0L1647.24,588a1.07,1.07,0,0,1,0,1.85l-139.07,80.3a3,3,0,0,1-3,0l-49.61-28.63A1.07,1.07,0,0,1,1455.56,639.7Z" transform="translate(0)"/><path class="cls-17" d="M1455.56,641.55l.5.28,138.64-80a3,3,0,0,1,3,0l49,28.38.5-.29a1.07,1.07,0,0,0,0-1.85l-49.55-28.66a3,3,0,0,0-3,0L1455.56,639.7A1.07,1.07,0,0,0,1455.56,641.55Z" transform="translate(0)"/><polygon class="cls-18" points="1634.28 586.08 1513.06 656.06 1517.86 658.83 1639.08 588.85 1634.28 586.08"/><polygon class="cls-18" points="1621.5 578.71 1506.29 645.22 1511.1 647.99 1626.31 581.48 1621.5 578.71"/><polygon class="cls-18" points="1497.69 650.19 1486.93 656.4 1491.73 659.17 1502.49 652.96 1497.69 650.19"/><polygon class="cls-18" points="1507.19 659.45 1499.7 663.77 1504.5 666.55 1512 662.22 1507.19 659.45"/><polygon class="cls-18" points="1613.5 574.09 1478.93 651.78 1483.73 654.55 1618.3 576.86 1613.5 574.09"/><polygon class="cls-18" points="1605.5 569.47 1470.93 647.16 1475.73 649.93 1610.3 572.24 1605.5 569.47"/><polygon class="cls-18" points="1597.5 564.85 1462.92 642.54 1467.72 645.31 1602.3 567.62 1597.5 564.85"/></g></g><polygon class="cls-11" points="1545.89 632.35 1559.08 624.73 1559.46 627.02 1546.27 634.64 1545.89 632.35"/><polygon class="cls-11" points="1561.2 623.51 1568.39 619.35 1568.77 621.64 1561.59 625.8 1561.2 623.51"/><polygon class="cls-11" points="1579.57 612.9 1584.77 609.89 1585.16 612.18 1579.96 615.19 1579.57 612.9"/><polygon class="cls-11" points="1575.78 615.09 1577.56 614.06 1577.94 616.35 1576.16 617.38 1575.78 615.09"/><polygon class="cls-11" points="1570.53 618.12 1573.76 616.26 1574.15 618.55 1570.92 620.41 1570.53 618.12"/><polygon class="cls-11" points="1556.32 614.83 1561.52 611.82 1561.91 614.12 1556.71 617.12 1556.32 614.83"/><polygon class="cls-11" points="1544.12 621.88 1554.31 615.99 1554.69 618.28 1544.51 624.17 1544.12 621.88"/><polygon class="cls-11" points="1558.73 584.76 1568.92 578.87 1569.3 581.16 1559.11 587.05 1558.73 584.76"/><polygon class="cls-11" points="1553.48 587.79 1556.71 585.92 1557.1 588.22 1553.87 590.08 1553.48 587.79"/><polygon class="cls-11" points="1560.43 595.24 1570.62 589.35 1571 591.64 1560.82 597.53 1560.43 595.24"/><polygon class="cls-11" points="1555.18 598.27 1558.41 596.4 1558.8 598.69 1555.57 600.56 1555.18 598.27"/><polygon class="cls-11" points="1551.21 539.54 1532.01 550.63 1531.62 548.34 1550.82 537.25 1551.21 539.54"/><polygon class="cls-11" points="1557.97 535.63 1553.22 538.37 1552.83 536.08 1557.58 533.34 1557.97 535.63"/><polygon class="cls-11" points="1591.7 533.4 1572.51 544.49 1572.12 542.2 1591.32 531.11 1591.7 533.4"/><polygon class="cls-11" points="1598.47 529.49 1593.72 532.24 1593.33 529.95 1598.08 527.2 1598.47 529.49"/><polygon class="cls-11" points="1538.1 552.86 1532.89 555.86 1532.51 553.57 1537.71 550.57 1538.1 552.86"/><polygon class="cls-11" points="1569.73 546.07 1564.54 549.08 1564.15 546.78 1569.35 543.78 1569.73 546.07"/><polygon class="cls-11" points="1550.3 545.8 1540.11 551.69 1539.72 549.4 1549.91 543.51 1550.3 545.8"/><polygon class="cls-11" points="1555.54 542.77 1552.32 544.64 1551.93 542.35 1555.15 540.48 1555.54 542.77"/><polygon class="cls-11" points="1567.84 535.68 1557.65 541.57 1557.26 539.28 1567.45 533.39 1567.84 535.68"/><polygon class="cls-11" points="1573.08 532.65 1569.86 534.51 1569.47 532.22 1572.7 530.36 1573.08 532.65"/><polygon class="cls-11" points="1568.85 540.84 1563.65 543.84 1563.26 541.55 1568.46 538.54 1568.85 540.84"/><polygon class="cls-11" points="1581.06 533.78 1570.87 539.67 1570.48 537.38 1580.67 531.49 1581.06 533.78"/><polygon class="cls-11" points="1586.3 530.75 1583.07 532.62 1582.68 530.33 1585.91 528.46 1586.3 530.75"/><polygon class="cls-11" points="1544.42 554.95 1533.78 561.1 1533.39 558.8 1544.03 552.65 1544.42 554.95"/><polygon class="cls-11" points="1554.13 549.33 1546.43 553.78 1546.05 551.49 1553.74 547.04 1554.13 549.33"/><polygon class="cls-11" points="1561.35 545.16 1556.14 548.17 1555.76 545.88 1560.96 542.87 1561.35 545.16"/><polygon class="cls-11" points="1611.78 521.82 1601.14 527.97 1600.75 525.68 1611.39 519.53 1611.78 521.82"/><polygon class="cls-11" points="1621.49 516.21 1613.8 520.65 1613.41 518.36 1621.1 513.92 1621.49 516.21"/><polygon class="cls-11" points="1628.71 512.04 1623.51 515.04 1623.12 512.75 1628.32 509.75 1628.71 512.04"/><polygon class="cls-11" points="1607.63 590.96 1618.27 584.81 1618.65 587.1 1608.01 593.25 1607.63 590.96"/><polygon class="cls-11" points="1597.91 596.57 1605.61 592.12 1606 594.41 1598.3 598.86 1597.91 596.57"/><polygon class="cls-11" points="1590.7 600.74 1595.9 597.74 1596.29 600.02 1591.09 603.03 1590.7 600.74"/><polygon class="cls-11" points="1604.09 598.76 1614.73 592.61 1615.12 594.9 1604.48 601.05 1604.09 598.76"/><polygon class="cls-11" points="1594.38 604.38 1602.08 599.93 1602.46 602.22 1594.77 606.67 1594.38 604.38"/><polygon class="cls-11" points="1587.17 608.55 1592.37 605.54 1592.75 607.83 1587.55 610.84 1587.17 608.55"/><polygon class="cls-11" points="1561.13 589.09 1564.72 587.01 1565.11 589.3 1561.52 591.38 1561.13 589.09"/><polygon class="cls-11" points="1554.36 593 1559.11 590.25 1559.5 592.54 1554.75 595.29 1554.36 593"/><polygon class="cls-11" points="1545.37 560.15 1534.73 566.3 1534.34 564.01 1544.98 557.86 1545.37 560.15"/><polygon class="cls-11" points="1555.08 554.53 1547.39 558.98 1547 556.69 1554.69 552.24 1555.08 554.53"/><polygon class="cls-11" points="1562.3 550.36 1557.1 553.37 1556.71 551.08 1561.91 548.07 1562.3 550.36"/><polygon class="cls-11" points="1539.21 569.45 1535.61 571.53 1535.23 569.24 1538.82 567.16 1539.21 569.45"/><polygon class="cls-11" points="1545.97 565.54 1541.22 568.29 1540.84 566 1545.59 563.25 1545.97 565.54"/><polygon class="cls-11" points="1555.64 559.95 1547.99 564.38 1547.6 562.09 1555.25 557.66 1555.64 559.95"/><polygon class="cls-11" points="1566.02 603.51 1569.61 601.44 1570 603.73 1566.4 605.8 1566.02 603.51"/><polygon class="cls-11" points="1559.25 607.42 1564 604.68 1564.39 606.97 1559.64 609.72 1559.25 607.42"/><polygon class="cls-11" points="1549.59 613.01 1557.24 608.59 1557.63 610.88 1549.97 615.3 1549.59 613.01"/><polygon class="cls-11" points="1571.49 595.02 1579.14 590.6 1579.53 592.89 1571.88 597.31 1571.49 595.02"/><polygon class="cls-11" points="1558.98 601.84 1569.29 595.88 1569.68 598.17 1559.36 604.13 1558.98 601.84"/><polygon class="cls-11" points="1553.73 604.87 1556.96 603.01 1557.35 605.3 1554.12 607.16 1553.73 604.87"/><polygon class="cls-11" points="1548.7 607.78 1551.93 605.91 1552.32 608.21 1549.09 610.07 1548.7 607.78"/><polygon class="cls-11" points="1549.39 578.21 1559.58 572.32 1559.97 574.62 1549.78 580.5 1549.39 578.21"/><polygon class="cls-11" points="1544.15 581.24 1547.38 579.38 1547.76 581.67 1544.54 583.53 1544.15 581.24"/><polygon class="cls-11" points="1550.09 572.06 1553.69 569.98 1554.08 572.27 1550.48 574.35 1550.09 572.06"/><polygon class="cls-11" points="1562.78 576.25 1566.38 574.18 1566.76 576.47 1563.17 578.54 1562.78 576.25"/><polygon class="cls-11" points="1567.91 573.3 1576.53 568.32 1576.92 570.61 1568.29 575.59 1567.91 573.3"/><polygon class="cls-11" points="1578.06 567.43 1583.19 564.47 1583.58 566.76 1578.45 569.73 1578.06 567.43"/><polygon class="cls-11" points="1543.33 575.97 1548.08 573.23 1548.47 575.52 1543.72 578.26 1543.33 575.97"/><polygon class="cls-11" points="1542.88 570.59 1546.47 568.52 1546.86 570.81 1543.27 572.88 1542.88 570.59"/><polygon class="cls-11" points="1536.12 574.5 1540.87 571.76 1541.25 574.05 1536.5 576.79 1536.12 574.5"/><polygon class="cls-11" points="1557.57 579.26 1560.8 577.4 1561.18 579.69 1557.95 581.55 1557.57 579.26"/><polygon class="cls-11" points="1552.54 582.17 1555.76 580.31 1556.15 582.6 1552.92 584.46 1552.54 582.17"/><polygon class="cls-11" points="1577.33 608.47 1588.33 602.11 1588.72 604.4 1577.71 610.76 1577.33 608.47"/><polygon class="cls-11" points="1565 615.6 1575.31 609.63 1575.7 611.92 1565.38 617.89 1565 615.6"/><polygon class="cls-11" points="1559.75 618.63 1562.98 616.76 1563.37 619.05 1560.14 620.92 1559.75 618.63"/><polygon class="cls-11" points="1554.72 621.53 1557.95 619.67 1558.34 621.96 1555.11 623.82 1554.72 621.53"/><polygon class="cls-11" points="1551.97 623.12 1545.01 627.15 1545.39 629.44 1552.36 625.41 1551.97 623.12"/><g class="cls-45"><path class="cls-46" d="M1273.71,770.56a15.64,15.64,0,0,1-7.78-2.07h0L1114,680.77a4.72,4.72,0,0,1,0-8.16l95.73-55.26.58.34,159.12,91.86a4.72,4.72,0,0,1,0,8.16l-87.94,50.77A15.6,15.6,0,0,1,1273.71,770.56Zm-6.61-4.11a13.48,13.48,0,0,0,13.22,0l87.94-50.77a2.36,2.36,0,0,0,0-4.09l-158.53-91.53-.15.09-94.4,54.5a2.36,2.36,0,0,0,0,4.09Z" transform="translate(0)"/></g><path class="cls-47" d="M1209.53,582.46l21.17-125.57-1.7-.72,2.55-1.46h0a1.83,1.83,0,0,1,2,.14l169.15,97.66a4.79,4.79,0,0,1,2.2,4.3l-21.34,126.56a1.57,1.57,0,0,1-.89,1.29h0l-2.51,1.45-.43-2.34.15.05-168.13-97.07A4.8,4.8,0,0,1,1209.53,582.46Z" transform="translate(0)"/><path class="cls-48" d="M1401.73,556l2.78-1.23a3.92,3.92,0,0,1,.36,2.1l-21.34,126.56a1.57,1.57,0,0,1-.89,1.29h0l-2.51,1.45-.43-2.34.15.05-8.51-4.92Z" transform="translate(0)"/><path class="cls-18" d="M1209.07,588.28l169.16,97.66c1.3.75,2.42.32,2.65-1l21.33-126.57A4.76,4.76,0,0,0,1400,554l-169.15-97.66c-1.31-.75-2.43-.32-2.66,1L1206.88,584A4.78,4.78,0,0,0,1209.07,588.28Z" transform="translate(0)"/><g class="cls-30"><polygon class="cls-22" points="1233.08 464.46 1396.13 558.6 1375.91 677.8 1212.97 583.72 1233.08 464.46"/></g><path class="cls-49" d="M1102.75,648.2,1112,653l92.56-53.44a6.73,6.73,0,0,1,6,.25L1370.23,692c1.53-.85,8.49-4.2,8.49-4.2l-3.38,8.8h0a2,2,0,0,1-.94,1l-97.49,56.28a6.67,6.67,0,0,1-6-.25l-163.37-94.32a2.84,2.84,0,0,1-1.37-1.45h0Z" transform="translate(0)"/><path class="cls-50" d="M1104.17,649.72l167.43,96.67a6.91,6.91,0,0,0,6.2.25L1377.71,689c1.59-.92,1.39-2.52-.44-3.58l-167.44-96.66a6.86,6.86,0,0,0-6.19-.26l-99.91,57.68C1102.14,647.06,1102.34,648.66,1104.17,649.72Z" transform="translate(0)"/><path class="cls-14" d="M1104.17,648.75l167.43,96.67a6.91,6.91,0,0,0,6.2.26L1377.71,688a2,2,0,0,0,1-1.08,1.69,1.69,0,0,1-1,2.05l-99.91,57.68a6.91,6.91,0,0,1-6.2-.25l-167.43-96.67c-1.23-.71-1.7-1.67-1.41-2.5A2.9,2.9,0,0,0,1104.17,648.75Z" transform="translate(0)"/><path class="cls-15" d="M1322.11,725.47v-1.83c0-.18-.11-.26-.24-.18l-6.48,3.74a.56.56,0,0,0-.23.45v1.84c0,.17.1.25.23.18l6.48-3.74A.59.59,0,0,0,1322.11,725.47Z" transform="translate(0)"/><path class="cls-15" d="M1312.42,731.07v-1.84c0-.17-.1-.25-.23-.18l-6.48,3.74a.58.58,0,0,0-.24.45v1.84c0,.17.11.25.24.18l6.48-3.74A.57.57,0,0,0,1312.42,731.07Z" transform="translate(0)"/><path class="cls-16" d="M1351.66,683.55l-139.13-80.33a3,3,0,0,0-3,0L1160,631.89a1.07,1.07,0,0,0,0,1.85L1299.05,714a3,3,0,0,0,3,0l49.61-28.63A1.07,1.07,0,0,0,1351.66,683.55Z" transform="translate(0)"/><path class="cls-17" d="M1351.66,685.4l-.5.29-138.63-80a3,3,0,0,0-3,0l-49,28.38-.5-.29a1.07,1.07,0,0,1,0-1.85l49.55-28.66a3,3,0,0,1,3,0l139.13,80.33A1.07,1.07,0,0,1,1351.66,685.4Z" transform="translate(0)"/><polygon class="cls-18" points="1217.43 617.21 1335.2 685.2 1340.29 681.93 1222.82 614.12 1217.43 617.21"/><polygon class="cls-18" points="1209.78 628 1316.71 689.74 1320.37 685.65 1215.15 624.9 1209.78 628"/><polygon class="cls-18" points="1184.03 623.05 1317.5 700.11 1322.88 697 1189.41 619.94 1184.03 623.05"/><polygon class="cls-18" points="1175.45 628 1308.92 705.06 1314.3 701.96 1180.83 624.9 1175.45 628"/><polygon class="cls-18" points="1166.87 632.96 1300.34 710.01 1305.72 706.91 1172.25 629.85 1166.87 632.96"/><polygon class="cls-18" points="1333.95 684.48 1339.32 687.58 1344.7 684.48 1339.32 681.38 1333.95 684.48"/><polygon class="cls-18" points="1315 688.75 1326.15 695.19 1331.52 692.09 1320.37 685.65 1315 688.75"/><path class="cls-51" d="M1207.17,703l-37.52-21.66c-1.46-.84-1.46-2.21,0-3.06l25.66-14.81a5.85,5.85,0,0,1,5.31,0l37.51,21.66c1.47.84,1.47,2.22,0,3.06L1212.48,703A5.85,5.85,0,0,1,1207.17,703Z" transform="translate(0)"/><path class="cls-17" d="M1238.13,686.37l-37.51-21.66a5.85,5.85,0,0,0-5.31,0l-25.66,14.81a2.29,2.29,0,0,0-.92.91c-.39-.74-.09-1.58.92-2.16l25.66-14.81a5.85,5.85,0,0,1,5.31,0l37.51,21.66c1,.58,1.31,1.42.92,2.16A2.23,2.23,0,0,0,1238.13,686.37Z" transform="translate(0)"/><g class="cls-41"><g class="cls-52"><path class="cls-53" d="M1209.67,588.52l167.43,96.66a6.86,6.86,0,0,0,6.19.26l99.92-57.68c1.58-.92,1.38-2.52-.45-3.58l-167.43-96.67a6.89,6.89,0,0,0-6.19-.25l-99.92,57.68C1207.64,585.86,1207.84,587.46,1209.67,588.52Z" transform="translate(0)"/><path class="cls-54" d="M1377.6,605.85l-37.52-21.66c-1.46-.85-1.46-2.22,0-3.07l25.66-14.81a5.85,5.85,0,0,1,5.31,0L1408.56,588c1.47.85,1.47,2.22,0,3.07l-25.65,14.81A5.91,5.91,0,0,1,1377.6,605.85Z" transform="translate(0)"/><path class="cls-17" d="M1408.56,589.22l-37.51-21.66a5.91,5.91,0,0,0-5.31,0l-25.66,14.82a2.28,2.28,0,0,0-.92.9c-.39-.74-.09-1.57.92-2.16l25.66-14.81a5.85,5.85,0,0,1,5.31,0L1408.56,588c1,.59,1.31,1.42.92,2.16A2.29,2.29,0,0,0,1408.56,589.22Z" transform="translate(0)"/><path class="cls-16" d="M1425.05,639.7l-139.13-80.33a3,3,0,0,0-3,0L1233.38,588a1.06,1.06,0,0,0,0,1.85l139.07,80.3a3,3,0,0,0,3,0l49.61-28.63A1.06,1.06,0,0,0,1425.05,639.7Z" transform="translate(0)"/><path class="cls-17" d="M1425.05,641.55l-.49.28-138.64-80a3,3,0,0,0-3,0l-49.05,28.38-.49-.29a1.06,1.06,0,0,1,0-1.85l49.54-28.66a3,3,0,0,1,3,0l139.13,80.33A1.06,1.06,0,0,1,1425.05,641.55Z" transform="translate(0)"/><polygon class="cls-18" points="1246.34 586.08 1367.55 656.06 1362.75 658.83 1241.54 588.85 1246.34 586.08"/><polygon class="cls-18" points="1259.11 578.71 1374.32 645.22 1369.52 647.99 1254.31 581.48 1259.11 578.71"/><polygon class="cls-18" points="1382.92 650.19 1393.69 656.4 1388.88 659.17 1378.12 652.96 1382.92 650.19"/><polygon class="cls-18" points="1373.42 659.45 1380.91 663.77 1376.11 666.55 1368.62 662.22 1373.42 659.45"/><polygon class="cls-18" points="1267.12 574.09 1401.69 651.78 1396.89 654.55 1262.31 576.86 1267.12 574.09"/><polygon class="cls-18" points="1275.12 569.47 1409.69 647.16 1404.89 649.93 1270.32 572.24 1275.12 569.47"/><polygon class="cls-18" points="1283.12 564.85 1417.69 642.54 1412.89 645.31 1278.32 567.62 1283.12 564.85"/></g></g><polygon class="cls-11" points="1269.58 508.64 1282.77 516.27 1283.16 513.98 1269.97 506.35 1269.58 508.64"/><polygon class="cls-11" points="1284.89 517.48 1292.08 521.64 1292.47 519.35 1285.28 515.19 1284.89 517.48"/><polygon class="cls-11" points="1303.27 528.09 1308.47 531.1 1308.85 528.81 1303.65 525.8 1303.27 528.09"/><polygon class="cls-11" points="1299.47 525.9 1301.25 526.93 1301.64 524.64 1299.86 523.61 1299.47 525.9"/><polygon class="cls-11" points="1294.23 522.87 1297.46 524.74 1297.85 522.45 1294.62 520.58 1294.23 522.87"/><polygon class="cls-11" points="1280.02 526.16 1285.22 529.17 1285.61 526.88 1280.41 523.87 1280.02 526.16"/><polygon class="cls-11" points="1267.81 519.11 1278 525 1278.39 522.71 1268.2 516.82 1267.81 519.11"/><polygon class="cls-11" points="1282.42 556.23 1292.61 562.12 1293 559.83 1282.81 553.94 1282.42 556.23"/><polygon class="cls-11" points="1277.18 553.2 1280.41 555.07 1280.79 552.78 1277.57 550.91 1277.18 553.2"/><polygon class="cls-11" points="1284.12 545.75 1294.31 551.64 1294.7 549.35 1284.51 543.46 1284.12 545.75"/><polygon class="cls-11" points="1278.88 542.72 1282.11 544.59 1282.49 542.3 1279.27 540.43 1278.88 542.72"/><polygon class="cls-11" points="1274.9 601.46 1255.71 590.36 1255.32 592.65 1274.52 603.75 1274.9 601.46"/><polygon class="cls-11" points="1281.67 605.37 1276.92 602.62 1276.53 604.91 1281.28 607.66 1281.67 605.37"/><polygon class="cls-11" points="1315.4 607.59 1296.2 596.5 1295.82 598.79 1315.01 609.88 1315.4 607.59"/><polygon class="cls-11" points="1322.16 611.5 1317.41 608.76 1317.03 611.05 1321.78 613.79 1322.16 611.5"/><polygon class="cls-11" points="1261.79 588.13 1256.59 585.13 1256.2 587.42 1261.4 590.42 1261.79 588.13"/><polygon class="cls-11" points="1293.43 594.92 1288.23 591.92 1287.84 594.21 1293.04 597.21 1293.43 594.92"/><polygon class="cls-11" points="1274 595.19 1263.81 589.3 1263.42 591.59 1273.61 597.48 1274 595.19"/><polygon class="cls-11" points="1279.24 598.22 1276.01 596.35 1275.62 598.64 1278.85 600.51 1279.24 598.22"/><polygon class="cls-11" points="1291.54 605.32 1281.35 599.42 1280.96 601.72 1291.15 607.61 1291.54 605.32"/><polygon class="cls-11" points="1296.78 608.35 1293.55 606.48 1293.16 608.77 1296.39 610.63 1296.78 608.35"/><polygon class="cls-11" points="1292.55 600.16 1287.35 597.15 1286.96 599.44 1292.16 602.45 1292.55 600.16"/><polygon class="cls-11" points="1304.75 607.21 1294.56 601.32 1294.18 603.61 1304.37 609.5 1304.75 607.21"/><polygon class="cls-11" points="1309.99 610.24 1306.77 608.38 1306.38 610.67 1309.61 612.53 1309.99 610.24"/><polygon class="cls-11" points="1268.12 586.05 1257.47 579.9 1257.09 582.19 1267.73 588.34 1268.12 586.05"/><polygon class="cls-11" points="1277.83 591.66 1270.13 587.21 1269.74 589.5 1277.44 593.95 1277.83 591.66"/><polygon class="cls-11" points="1285.04 595.83 1279.84 592.82 1279.45 595.11 1284.65 598.12 1285.04 595.83"/><polygon class="cls-11" points="1335.48 619.17 1324.84 613.02 1324.45 615.31 1335.09 621.46 1335.48 619.17"/><polygon class="cls-11" points="1345.19 624.78 1337.49 620.34 1337.11 622.63 1344.8 627.08 1345.19 624.78"/><polygon class="cls-11" points="1352.4 628.96 1347.2 625.95 1346.82 628.24 1352.02 631.25 1352.4 628.96"/><polygon class="cls-11" points="1331.32 550.03 1341.96 556.18 1342.35 553.89 1331.71 547.74 1331.32 550.03"/><polygon class="cls-11" points="1321.61 544.42 1329.31 548.87 1329.69 546.58 1322 542.13 1321.61 544.42"/><polygon class="cls-11" points="1314.39 540.25 1319.6 543.26 1319.98 540.97 1314.78 537.96 1314.39 540.25"/><polygon class="cls-11" points="1327.79 542.23 1338.43 548.38 1338.82 546.09 1328.18 539.94 1327.79 542.23"/><polygon class="cls-11" points="1318.08 536.62 1325.77 541.06 1326.16 538.77 1318.47 534.33 1318.08 536.62"/><polygon class="cls-11" points="1310.86 532.45 1316.06 535.45 1316.45 533.16 1311.25 530.15 1310.86 532.45"/><polygon class="cls-11" points="1284.83 551.9 1288.42 553.98 1288.81 551.69 1285.21 549.61 1284.83 551.9"/><polygon class="cls-11" points="1278.06 548 1282.81 550.74 1283.2 548.45 1278.45 545.71 1278.06 548"/><polygon class="cls-11" points="1269.07 580.85 1258.43 574.7 1258.04 576.99 1268.68 583.13 1269.07 580.85"/><polygon class="cls-11" points="1278.78 586.46 1271.08 582.01 1270.7 584.3 1278.39 588.75 1278.78 586.46"/><polygon class="cls-11" points="1285.99 590.63 1280.79 587.62 1280.41 589.91 1285.61 592.92 1285.99 590.63"/><polygon class="cls-11" points="1262.9 571.54 1259.31 569.46 1258.92 571.75 1262.52 573.83 1262.9 571.54"/><polygon class="cls-11" points="1269.67 575.45 1264.92 572.71 1264.53 575 1269.28 577.74 1269.67 575.45"/><polygon class="cls-11" points="1279.34 581.04 1271.68 576.62 1271.3 578.9 1278.95 583.33 1279.34 581.04"/><polygon class="cls-11" points="1289.71 537.48 1293.31 539.55 1293.69 537.26 1290.1 535.19 1289.71 537.48"/><polygon class="cls-11" points="1282.95 533.57 1287.7 536.31 1288.09 534.02 1283.34 531.28 1282.95 533.57"/><polygon class="cls-11" points="1273.28 527.98 1280.93 532.4 1281.32 530.11 1273.67 525.69 1273.28 527.98"/><polygon class="cls-11" points="1295.19 545.97 1302.84 550.39 1303.23 548.1 1295.58 543.68 1295.19 545.97"/><polygon class="cls-11" points="1282.67 539.15 1292.99 545.11 1293.37 542.82 1283.06 536.86 1282.67 539.15"/><polygon class="cls-11" points="1277.43 536.12 1280.66 537.98 1281.04 535.69 1277.82 533.83 1277.43 536.12"/><polygon class="cls-11" points="1272.4 533.21 1275.63 535.08 1276.01 532.79 1272.79 530.92 1272.4 533.21"/><polygon class="cls-11" points="1273.09 562.78 1283.28 568.67 1283.66 566.38 1273.48 560.49 1273.09 562.78"/><polygon class="cls-11" points="1267.85 559.75 1271.07 561.61 1271.46 559.32 1268.23 557.46 1267.85 559.75"/><polygon class="cls-11" points="1273.79 568.93 1277.38 571.01 1277.77 568.72 1274.18 566.64 1273.79 568.93"/><polygon class="cls-11" points="1286.48 564.74 1290.07 566.82 1290.46 564.52 1286.87 562.45 1286.48 564.74"/><polygon class="cls-11" points="1291.6 567.7 1300.23 572.68 1300.61 570.39 1291.99 565.4 1291.6 567.7"/><polygon class="cls-11" points="1301.76 573.56 1306.88 576.52 1307.27 574.23 1302.14 571.27 1301.76 573.56"/><polygon class="cls-11" points="1267.03 565.02 1271.78 567.77 1272.16 565.48 1267.41 562.73 1267.03 565.02"/><polygon class="cls-11" points="1266.58 570.4 1270.17 572.47 1270.56 570.18 1266.96 568.11 1266.58 570.4"/><polygon class="cls-11" points="1259.81 566.49 1264.56 569.23 1264.95 566.94 1260.2 564.2 1259.81 566.49"/><polygon class="cls-11" points="1281.26 561.73 1284.49 563.59 1284.88 561.3 1281.65 559.44 1281.26 561.73"/><polygon class="cls-11" points="1276.23 558.82 1279.46 560.69 1279.85 558.39 1276.62 556.53 1276.23 558.82"/><polygon class="cls-11" points="1301.02 532.52 1312.03 538.88 1312.42 536.6 1301.41 530.23 1301.02 532.52"/><polygon class="cls-11" points="1288.69 525.4 1299.01 531.36 1299.39 529.07 1289.08 523.11 1288.69 525.4"/><polygon class="cls-11" points="1283.45 522.37 1286.68 524.23 1287.06 521.94 1283.84 520.08 1283.45 522.37"/><polygon class="cls-11" points="1278.42 519.46 1281.64 521.32 1282.03 519.03 1278.8 517.17 1278.42 519.46"/><polygon class="cls-11" points="1275.67 517.87 1268.7 513.84 1269.09 511.55 1276.05 515.58 1275.67 517.87"/><polygon class="cls-18" points="1205.79 610.49 1211.16 613.59 1216.54 610.49 1211.16 607.38 1205.79 610.49"/><polygon class="cls-18" points="1192.61 618.09 1203.77 624.53 1209.14 621.43 1197.99 614.99 1192.61 618.09"/><polygon class="cls-55" points="1552.81 408.3 1552.81 84.71 1327.8 84.71 1327.8 408.3 1440.31 473.25 1552.81 408.3"/></g></g></svg>