<svg width="541" height="237" viewBox="0 0 541 237" fill="none" xmlns="http://www.w3.org/2000/svg">
<path d="M32.3438 59.2109V68H6.67969V59.2109H14.625V29.6797H6.67969V20.8906H32.3438V29.6797H24.3984V59.2109H32.3438ZM87.2578 20.8906V68.3516H83.7422L55.8281 39.5938V68H46.0547V20.5391H49.5703L77.4844 49.7188V20.8906H87.2578ZM129.586 41.5625V50.3516H111.094V68H101.32V20.8906H133.453V29.6797H111.094V41.5625H129.586ZM166.781 19.8359C170.156 19.8359 173.32 20.4453 176.273 21.6641C179.227 22.8359 181.828 24.5234 184.078 26.7266C186.375 28.8828 188.156 31.4609 189.422 34.4609C190.734 37.4609 191.391 40.7891 191.391 44.4453C191.391 48.1016 190.734 51.4297 189.422 54.4297C188.156 57.4297 186.375 60.0312 184.078 62.2344C181.828 64.3906 179.227 66.0781 176.273 67.2969C173.32 68.4688 170.156 69.0547 166.781 69.0547C163.406 69.0547 160.219 68.4688 157.219 67.2969C154.266 66.0781 151.641 64.3906 149.344 62.2344C147.094 60.0312 145.312 57.4297 144 54.4297C142.734 51.4297 142.102 48.1016 142.102 44.4453C142.102 40.7891 142.734 37.4609 144 34.4609C145.312 31.4609 147.094 28.8828 149.344 26.7266C151.641 24.5234 154.266 22.8359 157.219 21.6641C160.219 20.4453 163.406 19.8359 166.781 19.8359ZM166.781 29.0469C163.969 29.0469 161.438 29.7266 159.188 31.0859C156.984 32.4453 155.25 34.2734 153.984 36.5703C152.719 38.8672 152.086 41.4922 152.086 44.4453C152.086 47.3516 152.719 49.9766 153.984 52.3203C155.25 54.6172 156.984 56.4453 159.188 57.8047C161.438 59.1172 163.969 59.7734 166.781 59.7734C169.594 59.7734 172.102 59.1172 174.305 57.8047C176.508 56.4453 178.242 54.6172 179.508 52.3203C180.773 49.9766 181.406 47.3516 181.406 44.4453C181.406 41.4922 180.773 38.8672 179.508 36.5703C178.242 34.2734 176.508 32.4453 174.305 31.0859C172.102 29.7266 169.594 29.0469 166.781 29.0469ZM220.711 20.8906C222.914 20.8906 225.07 21.1953 227.18 21.8047C229.289 22.4141 231.188 23.3516 232.875 24.6172C234.609 25.8828 235.969 27.4766 236.953 29.3984C237.984 31.2734 238.5 33.5234 238.5 36.1484C238.5 38.9141 237.797 41.3047 236.391 43.3203C235.031 45.2891 233.227 46.8359 230.977 47.9609C228.727 49.0391 226.289 49.6719 223.664 49.8594L240.609 68H227.742L211.359 48.7344V68H201.586V20.8906H220.711ZM211.359 30.0312V41.9141C212.484 42.2891 213.727 42.5938 215.086 42.8281C216.492 43.0156 217.898 43.1094 219.305 43.1094C222.117 43.1094 224.344 42.5469 225.984 41.4219C227.672 40.25 228.516 38.6094 228.516 36.5C228.516 34.2031 227.625 32.5625 225.844 31.5781C224.109 30.5469 221.977 30.0312 219.445 30.0312H211.359ZM295.242 20.5391V68H285.469V39.3125L273.375 52.5312H270.562L258.328 39.3125V68H248.555V20.5391H251.859L271.969 41.4922L291.938 20.5391H295.242ZM329.766 20.5391L351.703 68H340.242L336.656 59.2109H318.023L314.438 68H302.977L324.914 20.5391H329.766ZM327.375 36.5L321.469 50.9141H333.281L327.375 36.5ZM388.898 20.8906V29.6797H373.852V67.7891H364.148V29.6797H349.102V20.8906H388.898ZM423.141 59.2109V68H397.477V59.2109H405.422V29.6797H397.477V20.8906H423.141V29.6797H415.195V59.2109H423.141ZM456.258 19.8359C459.633 19.8359 462.797 20.4453 465.75 21.6641C468.703 22.8359 471.305 24.5234 473.555 26.7266C475.852 28.8828 477.633 31.4609 478.898 34.4609C480.211 37.4609 480.867 40.7891 480.867 44.4453C480.867 48.1016 480.211 51.4297 478.898 54.4297C477.633 57.4297 475.852 60.0312 473.555 62.2344C471.305 64.3906 468.703 66.0781 465.75 67.2969C462.797 68.4688 459.633 69.0547 456.258 69.0547C452.883 69.0547 449.695 68.4688 446.695 67.2969C443.742 66.0781 441.117 64.3906 438.82 62.2344C436.57 60.0312 434.789 57.4297 433.477 54.4297C432.211 51.4297 431.578 48.1016 431.578 44.4453C431.578 40.7891 432.211 37.4609 433.477 34.4609C434.789 31.4609 436.57 28.8828 438.82 26.7266C441.117 24.5234 443.742 22.8359 446.695 21.6641C449.695 20.4453 452.883 19.8359 456.258 19.8359ZM456.258 29.0469C453.445 29.0469 450.914 29.7266 448.664 31.0859C446.461 32.4453 444.727 34.2734 443.461 36.5703C442.195 38.8672 441.562 41.4922 441.562 44.4453C441.562 47.3516 442.195 49.9766 443.461 52.3203C444.727 54.6172 446.461 56.4453 448.664 57.8047C450.914 59.1172 453.445 59.7734 456.258 59.7734C459.07 59.7734 461.578 59.1172 463.781 57.8047C465.984 56.4453 467.719 54.6172 468.984 52.3203C470.25 49.9766 470.883 47.3516 470.883 44.4453C470.883 41.4922 470.25 38.8672 468.984 36.5703C467.719 34.2734 465.984 32.4453 463.781 31.0859C461.578 29.7266 459.07 29.0469 456.258 29.0469ZM532.266 20.8906V68.3516H528.75L500.836 39.5938V68H491.062V20.5391H494.578L522.492 49.7188V20.8906H532.266Z" fill="white"/>
<path d="M84.0559 88.8248V97.6138H69.009V135.723H59.3059V97.6138H44.259V88.8248H84.0559ZM123.572 107.95V115.895H102.759V127.286H126.314V135.934H92.9856V88.8248H126.314V97.2623H102.759V107.95H123.572ZM159.993 87.7701C162.947 87.7701 165.501 88.192 167.657 89.0357C169.814 89.8326 171.689 90.9341 173.282 92.3404V102.184C172.157 101.34 170.986 100.52 169.767 99.7232C168.548 98.9263 167.165 98.2701 165.618 97.7545C164.118 97.2388 162.337 96.981 160.275 96.981C157.462 96.981 154.907 97.6607 152.611 99.0201C150.314 100.379 148.486 102.208 147.126 104.504C145.767 106.801 145.087 109.426 145.087 112.379C145.087 115.286 145.767 117.911 147.126 120.254C148.486 122.551 150.314 124.379 152.611 125.739C154.907 127.051 157.462 127.708 160.275 127.708C163.415 127.708 166.04 127.239 168.15 126.301C170.306 125.317 172.251 124.122 173.986 122.715V132.208C172.392 133.661 170.4 134.833 168.009 135.723C165.618 136.567 162.947 136.989 159.993 136.989C156.618 136.989 153.431 136.403 150.431 135.231C147.431 134.012 144.782 132.325 142.486 130.169C140.189 127.965 138.384 125.364 137.072 122.364C135.759 119.364 135.103 116.036 135.103 112.379C135.103 108.723 135.759 105.395 137.072 102.395C138.384 99.3951 140.189 96.817 142.486 94.6607C144.782 92.4576 147.431 90.7701 150.431 89.5982C153.431 88.3795 156.618 87.7701 159.993 87.7701ZM193.954 88.8248V108.02H215.822V88.8248H225.525V135.934H215.822V116.809H193.954V135.934H184.181V88.8248H193.954ZM280.79 88.8248V136.286H277.275L249.361 107.528V135.934H239.587V88.4732H243.103L271.017 117.653V88.8248H280.79ZM315.665 87.7701C319.04 87.7701 322.204 88.3795 325.157 89.5982C328.111 90.7701 330.712 92.4576 332.962 94.6607C335.259 96.817 337.04 99.3951 338.306 102.395C339.618 105.395 340.275 108.723 340.275 112.379C340.275 116.036 339.618 119.364 338.306 122.364C337.04 125.364 335.259 127.965 332.962 130.169C330.712 132.325 328.111 134.012 325.157 135.231C322.204 136.403 319.04 136.989 315.665 136.989C312.29 136.989 309.103 136.403 306.103 135.231C303.15 134.012 300.525 132.325 298.228 130.169C295.978 127.965 294.197 125.364 292.884 122.364C291.618 119.364 290.986 116.036 290.986 112.379C290.986 108.723 291.618 105.395 292.884 102.395C294.197 99.3951 295.978 96.817 298.228 94.6607C300.525 92.4576 303.15 90.7701 306.103 89.5982C309.103 88.3795 312.29 87.7701 315.665 87.7701ZM315.665 96.981C312.853 96.981 310.322 97.6607 308.072 99.0201C305.868 100.379 304.134 102.208 302.868 104.504C301.603 106.801 300.97 109.426 300.97 112.379C300.97 115.286 301.603 117.911 302.868 120.254C304.134 122.551 305.868 124.379 308.072 125.739C310.322 127.051 312.853 127.708 315.665 127.708C318.478 127.708 320.986 127.051 323.189 125.739C325.392 124.379 327.126 122.551 328.392 120.254C329.657 117.911 330.29 115.286 330.29 112.379C330.29 109.426 329.657 106.801 328.392 104.504C327.126 102.208 325.392 100.379 323.189 99.0201C320.986 97.6607 318.478 96.981 315.665 96.981ZM360.243 88.8248V127.145H383.798V135.934H350.47V88.8248H360.243ZM414.665 87.7701C418.04 87.7701 421.204 88.3795 424.157 89.5982C427.111 90.7701 429.712 92.4576 431.962 94.6607C434.259 96.817 436.04 99.3951 437.306 102.395C438.618 105.395 439.275 108.723 439.275 112.379C439.275 116.036 438.618 119.364 437.306 122.364C436.04 125.364 434.259 127.965 431.962 130.169C429.712 132.325 427.111 134.012 424.157 135.231C421.204 136.403 418.04 136.989 414.665 136.989C411.29 136.989 408.103 136.403 405.103 135.231C402.15 134.012 399.525 132.325 397.228 130.169C394.978 127.965 393.197 125.364 391.884 122.364C390.618 119.364 389.986 116.036 389.986 112.379C389.986 108.723 390.618 105.395 391.884 102.395C393.197 99.3951 394.978 96.817 397.228 94.6607C399.525 92.4576 402.15 90.7701 405.103 89.5982C408.103 88.3795 411.29 87.7701 414.665 87.7701ZM414.665 96.981C411.853 96.981 409.322 97.6607 407.072 99.0201C404.868 100.379 403.134 102.208 401.868 104.504C400.603 106.801 399.97 109.426 399.97 112.379C399.97 115.286 400.603 117.911 401.868 120.254C403.134 122.551 404.868 124.379 407.072 125.739C409.322 127.051 411.853 127.708 414.665 127.708C417.478 127.708 419.986 127.051 422.189 125.739C424.392 124.379 426.126 122.551 427.392 120.254C428.657 117.911 429.29 115.286 429.29 112.379C429.29 109.426 428.657 106.801 427.392 104.504C426.126 102.208 424.392 100.379 422.189 99.0201C419.986 97.6607 417.478 96.981 414.665 96.981ZM472.181 110.411H488.212V129.606C486.243 131.669 483.736 133.426 480.689 134.879C477.689 136.286 474.29 136.989 470.493 136.989C467.118 136.989 463.931 136.403 460.931 135.231C457.931 134.012 455.282 132.325 452.986 130.169C450.689 127.965 448.884 125.364 447.572 122.364C446.259 119.364 445.603 116.036 445.603 112.379C445.603 108.723 446.259 105.395 447.572 102.395C448.884 99.3951 450.689 96.817 452.986 94.6607C455.282 92.4576 457.931 90.7701 460.931 89.5982C463.931 88.3795 467.118 87.7701 470.493 87.7701C473.447 87.7701 476.001 88.192 478.157 89.0357C480.314 89.8326 482.189 90.9341 483.782 92.3404V102.184C482.657 101.34 481.486 100.52 480.267 99.7232C479.048 98.9263 477.665 98.2701 476.118 97.7545C474.618 97.2388 472.837 96.981 470.775 96.981C467.962 96.981 465.407 97.6607 463.111 99.0201C460.814 100.379 458.986 102.208 457.626 104.504C456.267 106.801 455.587 109.426 455.587 112.379C455.587 115.286 456.267 117.911 457.626 120.254C458.986 122.551 460.814 124.379 463.111 125.739C465.407 127.051 467.962 127.708 470.775 127.708C472.931 127.708 474.665 127.45 475.978 126.934C477.29 126.419 478.322 125.856 479.072 125.247L479.142 117.442H472.181V110.411ZM539.048 88.8248L520.837 118.145V135.934H510.853V118.637L492.572 88.8248H504.032L515.775 108.653L527.587 88.8248H539.048Z" fill="white"/>
<path d="M62.2903 154.934L532.29 154.934" stroke="white" stroke-width="3"/>
<path d="M395.43 209.934L395.43 236.934" stroke="white" stroke-width="2"/>
<path d="M189.048 192.122V195.051H182.884V200.934H179.626V185.231H190.337V188.161H182.884V192.122H189.048ZM199.501 188.794C200.657 188.794 201.712 189.075 202.665 189.637C203.618 190.184 204.384 190.934 204.962 191.887C205.556 192.825 205.853 193.879 205.853 195.051C205.853 196.223 205.556 197.278 204.962 198.215C204.384 199.153 203.618 199.903 202.665 200.465C201.712 201.012 200.657 201.286 199.501 201.286C198.361 201.286 197.306 201.012 196.337 200.465C195.384 199.903 194.618 199.153 194.04 198.215C193.462 197.278 193.173 196.223 193.173 195.051C193.173 193.879 193.462 192.825 194.04 191.887C194.618 190.934 195.384 190.184 196.337 189.637C197.306 189.075 198.361 188.794 199.501 188.794ZM199.501 191.676C198.939 191.676 198.415 191.809 197.931 192.075C197.447 192.34 197.056 192.723 196.759 193.223C196.478 193.723 196.337 194.333 196.337 195.051C196.337 195.77 196.478 196.379 196.759 196.879C197.056 197.379 197.447 197.762 197.931 198.028C198.415 198.278 198.939 198.403 199.501 198.403C200.064 198.403 200.587 198.278 201.072 198.028C201.556 197.762 201.947 197.379 202.243 196.879C202.54 196.379 202.689 195.77 202.689 195.051C202.689 194.333 202.54 193.723 202.243 193.223C201.947 192.723 201.556 192.34 201.072 192.075C200.587 191.809 200.064 191.676 199.501 191.676ZM216.118 192.426C215.618 192.145 215.095 192.004 214.548 192.004C213.861 192.004 213.29 192.231 212.837 192.684C212.384 193.122 211.986 193.669 211.642 194.325V200.934H208.665V189.098H211.642V191.325C212.048 190.622 212.525 190.036 213.072 189.567C213.634 189.098 214.267 188.864 214.97 188.864C215.392 188.864 215.775 188.934 216.118 189.075V192.426ZM229.736 185.653V189.098H233.017V191.583H229.736V196.692C229.736 197.223 229.853 197.645 230.087 197.958C230.337 198.254 230.704 198.403 231.189 198.403C231.611 198.403 231.97 198.356 232.267 198.262C232.579 198.169 232.868 198.036 233.134 197.864V200.231C232.837 200.528 232.462 200.778 232.009 200.981C231.572 201.184 231.017 201.286 230.345 201.286C229.282 201.286 228.415 200.95 227.743 200.278C227.087 199.59 226.759 198.653 226.759 197.465V191.583H224.626V190.059C225.376 189.794 226.064 189.294 226.689 188.559C227.329 187.825 227.837 186.856 228.212 185.653H229.736ZM242.743 188.794C243.947 188.794 244.954 189.2 245.767 190.012C246.579 190.825 246.986 192.044 246.986 193.669V200.934H244.009L243.986 194.067C243.986 193.27 243.79 192.676 243.4 192.286C243.025 191.895 242.501 191.7 241.829 191.7C241.298 191.7 240.798 191.872 240.329 192.215C239.876 192.559 239.486 192.965 239.157 193.434V200.934H236.181V184.059H239.157V190.786C239.517 190.301 240.001 189.848 240.611 189.426C241.236 189.004 241.947 188.794 242.743 188.794ZM255.587 188.794C256.743 188.794 257.736 189.044 258.564 189.544C259.407 190.044 260.048 190.739 260.486 191.629C260.939 192.504 261.165 193.52 261.165 194.676V195.942H252.587C252.743 196.739 253.134 197.379 253.759 197.864C254.384 198.348 255.15 198.59 256.056 198.59C256.915 198.59 257.697 198.419 258.4 198.075C259.103 197.731 259.665 197.379 260.087 197.02L260.064 199.786C259.689 200.114 259.126 200.45 258.376 200.794C257.642 201.122 256.829 201.286 255.939 201.286C254.767 201.286 253.697 201.02 252.728 200.489C251.775 199.958 251.009 199.231 250.431 198.309C249.868 197.387 249.587 196.333 249.587 195.145C249.587 193.989 249.845 192.934 250.361 191.981C250.876 191.028 251.587 190.262 252.493 189.684C253.4 189.09 254.431 188.794 255.587 188.794ZM255.517 191.395C254.782 191.395 254.165 191.622 253.665 192.075C253.165 192.528 252.822 193.137 252.634 193.903H258.306C258.243 193.059 257.931 192.434 257.368 192.028C256.806 191.606 256.189 191.395 255.517 191.395ZM273.892 189.098V190.786C274.251 190.301 274.736 189.848 275.345 189.426C275.97 189.004 276.681 188.794 277.478 188.794C278.681 188.794 279.689 189.2 280.501 190.012C281.314 190.825 281.72 192.044 281.72 193.669V200.934H278.743L278.72 194.067C278.72 193.27 278.525 192.676 278.134 192.286C277.759 191.895 277.236 191.7 276.564 191.7C276.032 191.7 275.532 191.872 275.064 192.215C274.611 192.559 274.22 192.965 273.892 193.434V200.934H270.915V189.098H273.892ZM290.322 188.794C291.478 188.794 292.47 189.044 293.298 189.544C294.142 190.044 294.782 190.739 295.22 191.629C295.673 192.504 295.9 193.52 295.9 194.676V195.942H287.322C287.478 196.739 287.868 197.379 288.493 197.864C289.118 198.348 289.884 198.59 290.79 198.59C291.65 198.59 292.431 198.419 293.134 198.075C293.837 197.731 294.4 197.379 294.822 197.02L294.798 199.786C294.423 200.114 293.861 200.45 293.111 200.794C292.376 201.122 291.564 201.286 290.673 201.286C289.501 201.286 288.431 201.02 287.462 200.489C286.509 199.958 285.743 199.231 285.165 198.309C284.603 197.387 284.322 196.333 284.322 195.145C284.322 193.989 284.579 192.934 285.095 191.981C285.611 191.028 286.322 190.262 287.228 189.684C288.134 189.09 289.165 188.794 290.322 188.794ZM290.251 191.395C289.517 191.395 288.9 191.622 288.4 192.075C287.9 192.528 287.556 193.137 287.368 193.903H293.04C292.978 193.059 292.665 192.434 292.103 192.028C291.54 191.606 290.923 191.395 290.251 191.395ZM309.986 189.098L305.345 194.887L310.15 200.934H306.423L303.47 196.809L300.517 200.934H296.79L301.595 194.887L296.954 189.098H300.47L303.47 192.895L306.47 189.098H309.986ZM316.384 185.653V189.098H319.665V191.583H316.384V196.692C316.384 197.223 316.501 197.645 316.736 197.958C316.986 198.254 317.353 198.403 317.837 198.403C318.259 198.403 318.618 198.356 318.915 198.262C319.228 198.169 319.517 198.036 319.782 197.864V200.231C319.486 200.528 319.111 200.778 318.657 200.981C318.22 201.184 317.665 201.286 316.993 201.286C315.931 201.286 315.064 200.95 314.392 200.278C313.736 199.59 313.407 198.653 313.407 197.465V191.583H311.275V190.059C312.025 189.794 312.712 189.294 313.337 188.559C313.978 187.825 314.486 186.856 314.861 185.653H316.384ZM334.548 188.794C335.189 188.794 335.837 188.942 336.493 189.239C337.15 189.536 337.697 189.934 338.134 190.434V189.098H341.111V200.629C341.111 201.973 340.814 203.106 340.22 204.028C339.626 204.965 338.837 205.676 337.853 206.161C336.868 206.661 335.79 206.911 334.618 206.911C333.572 206.911 332.712 206.754 332.04 206.442C331.368 206.129 330.743 205.77 330.165 205.364V202.551C330.525 202.77 330.9 203.004 331.29 203.254C331.697 203.504 332.15 203.715 332.65 203.887C333.165 204.059 333.759 204.145 334.431 204.145C335.134 204.145 335.767 204.012 336.329 203.747C336.892 203.481 337.329 203.106 337.642 202.622C337.97 202.153 338.134 201.614 338.134 201.004V198.942C337.79 199.583 337.29 200.137 336.634 200.606C335.978 201.059 335.212 201.286 334.337 201.286C333.384 201.286 332.501 201.044 331.689 200.559C330.892 200.075 330.251 199.372 329.767 198.45C329.282 197.528 329.04 196.411 329.04 195.098C329.04 193.786 329.282 192.661 329.767 191.723C330.267 190.786 330.931 190.067 331.759 189.567C332.603 189.051 333.532 188.794 334.548 188.794ZM335.157 191.723C334.532 191.723 333.993 191.887 333.54 192.215C333.103 192.528 332.759 192.942 332.509 193.458C332.259 193.958 332.134 194.504 332.134 195.098C332.134 195.989 332.4 196.747 332.931 197.372C333.478 197.981 334.197 198.286 335.087 198.286C335.618 198.286 336.111 198.153 336.564 197.887C337.032 197.606 337.407 197.215 337.689 196.715C337.986 196.2 338.134 195.583 338.134 194.864V193.176C337.712 192.723 337.251 192.372 336.751 192.122C336.267 191.856 335.736 191.723 335.157 191.723ZM349.947 188.794C351.103 188.794 352.095 189.044 352.923 189.544C353.767 190.044 354.407 190.739 354.845 191.629C355.298 192.504 355.525 193.52 355.525 194.676V195.942H346.947C347.103 196.739 347.493 197.379 348.118 197.864C348.743 198.348 349.509 198.59 350.415 198.59C351.275 198.59 352.056 198.419 352.759 198.075C353.462 197.731 354.025 197.379 354.447 197.02L354.423 199.786C354.048 200.114 353.486 200.45 352.736 200.794C352.001 201.122 351.189 201.286 350.298 201.286C349.126 201.286 348.056 201.02 347.087 200.489C346.134 199.958 345.368 199.231 344.79 198.309C344.228 197.387 343.947 196.333 343.947 195.145C343.947 193.989 344.204 192.934 344.72 191.981C345.236 191.028 345.947 190.262 346.853 189.684C347.759 189.09 348.79 188.794 349.947 188.794ZM349.876 191.395C349.142 191.395 348.525 191.622 348.025 192.075C347.525 192.528 347.181 193.137 346.993 193.903H352.665C352.603 193.059 352.29 192.434 351.728 192.028C351.165 191.606 350.548 191.395 349.876 191.395ZM361.22 189.098V190.786C361.579 190.301 362.064 189.848 362.673 189.426C363.298 189.004 364.009 188.794 364.806 188.794C366.009 188.794 367.017 189.2 367.829 190.012C368.642 190.825 369.048 192.044 369.048 193.669V200.934H366.072L366.048 194.067C366.048 193.27 365.853 192.676 365.462 192.286C365.087 191.895 364.564 191.7 363.892 191.7C363.361 191.7 362.861 191.872 362.392 192.215C361.939 192.559 361.548 192.965 361.22 193.434V200.934H358.243V189.098H361.22ZM377.65 188.794C378.806 188.794 379.798 189.044 380.626 189.544C381.47 190.044 382.111 190.739 382.548 191.629C383.001 192.504 383.228 193.52 383.228 194.676V195.942H374.65C374.806 196.739 375.197 197.379 375.822 197.864C376.447 198.348 377.212 198.59 378.118 198.59C378.978 198.59 379.759 198.419 380.462 198.075C381.165 197.731 381.728 197.379 382.15 197.02L382.126 199.786C381.751 200.114 381.189 200.45 380.439 200.794C379.704 201.122 378.892 201.286 378.001 201.286C376.829 201.286 375.759 201.02 374.79 200.489C373.837 199.958 373.072 199.231 372.493 198.309C371.931 197.387 371.65 196.333 371.65 195.145C371.65 193.989 371.907 192.934 372.423 191.981C372.939 191.028 373.65 190.262 374.556 189.684C375.462 189.09 376.493 188.794 377.65 188.794ZM377.579 191.395C376.845 191.395 376.228 191.622 375.728 192.075C375.228 192.528 374.884 193.137 374.697 193.903H380.368C380.306 193.059 379.993 192.434 379.431 192.028C378.868 191.606 378.251 191.395 377.579 191.395ZM393.4 192.426C392.9 192.145 392.376 192.004 391.829 192.004C391.142 192.004 390.572 192.231 390.118 192.684C389.665 193.122 389.267 193.669 388.923 194.325V200.934H385.947V189.098H388.923V191.325C389.329 190.622 389.806 190.036 390.353 189.567C390.915 189.098 391.548 188.864 392.251 188.864C392.673 188.864 393.056 188.934 393.4 189.075V192.426ZM400.384 188.794C401.025 188.794 401.673 188.942 402.329 189.239C402.986 189.536 403.532 189.934 403.97 190.434V189.098H406.947V200.934H403.97V198.942C403.626 199.583 403.126 200.137 402.47 200.606C401.814 201.059 401.048 201.286 400.173 201.286C399.22 201.286 398.337 201.044 397.525 200.559C396.728 200.075 396.087 199.372 395.603 198.45C395.118 197.528 394.876 196.411 394.876 195.098C394.876 193.786 395.118 192.661 395.603 191.723C396.103 190.786 396.767 190.067 397.595 189.567C398.439 189.051 399.368 188.794 400.384 188.794ZM400.993 191.7C400.368 191.7 399.829 191.864 399.376 192.192C398.939 192.504 398.595 192.919 398.345 193.434C398.095 193.95 397.97 194.504 397.97 195.098C397.97 195.989 398.236 196.747 398.767 197.372C399.314 197.997 400.032 198.309 400.923 198.309C401.454 198.309 401.947 198.169 402.4 197.887C402.868 197.606 403.243 197.215 403.525 196.715C403.822 196.2 403.97 195.583 403.97 194.864V193.176C403.548 192.723 403.087 192.364 402.587 192.098C402.103 191.833 401.572 191.7 400.993 191.7ZM414.892 185.653V189.098H418.173V191.583H414.892V196.692C414.892 197.223 415.009 197.645 415.243 197.958C415.493 198.254 415.861 198.403 416.345 198.403C416.767 198.403 417.126 198.356 417.423 198.262C417.736 198.169 418.025 198.036 418.29 197.864V200.231C417.993 200.528 417.618 200.778 417.165 200.981C416.728 201.184 416.173 201.286 415.501 201.286C414.439 201.286 413.572 200.95 412.9 200.278C412.243 199.59 411.915 198.653 411.915 197.465V191.583H409.782V190.059C410.532 189.794 411.22 189.294 411.845 188.559C412.486 187.825 412.993 186.856 413.368 185.653H414.892ZM423.822 182.934C424.384 182.934 424.868 183.137 425.275 183.544C425.681 183.934 425.884 184.403 425.884 184.95C425.884 185.481 425.681 185.95 425.275 186.356C424.868 186.762 424.384 186.965 423.822 186.965C423.259 186.965 422.775 186.762 422.368 186.356C421.978 185.95 421.782 185.481 421.782 184.95C421.782 184.403 421.978 183.934 422.368 183.544C422.775 183.137 423.259 182.934 423.822 182.934ZM425.556 189.098V200.934H422.579V191.629H420.681V189.098H425.556ZM434.814 188.794C435.97 188.794 437.025 189.075 437.978 189.637C438.931 190.184 439.697 190.934 440.275 191.887C440.868 192.825 441.165 193.879 441.165 195.051C441.165 196.223 440.868 197.278 440.275 198.215C439.697 199.153 438.931 199.903 437.978 200.465C437.025 201.012 435.97 201.286 434.814 201.286C433.673 201.286 432.618 201.012 431.65 200.465C430.697 199.903 429.931 199.153 429.353 198.215C428.775 197.278 428.486 196.223 428.486 195.051C428.486 193.879 428.775 192.825 429.353 191.887C429.931 190.934 430.697 190.184 431.65 189.637C432.618 189.075 433.673 188.794 434.814 188.794ZM434.814 191.676C434.251 191.676 433.728 191.809 433.243 192.075C432.759 192.34 432.368 192.723 432.072 193.223C431.79 193.723 431.65 194.333 431.65 195.051C431.65 195.77 431.79 196.379 432.072 196.879C432.368 197.379 432.759 197.762 433.243 198.028C433.728 198.278 434.251 198.403 434.814 198.403C435.376 198.403 435.9 198.278 436.384 198.028C436.868 197.762 437.259 197.379 437.556 196.879C437.853 196.379 438.001 195.77 438.001 195.051C438.001 194.333 437.853 193.723 437.556 193.223C437.259 192.723 436.868 192.34 436.384 192.075C435.9 191.809 435.376 191.676 434.814 191.676ZM446.954 189.098V190.786C447.314 190.301 447.798 189.848 448.407 189.426C449.032 189.004 449.743 188.794 450.54 188.794C451.743 188.794 452.751 189.2 453.564 190.012C454.376 190.825 454.782 192.044 454.782 193.669V200.934H451.806L451.782 194.067C451.782 193.27 451.587 192.676 451.197 192.286C450.822 191.895 450.298 191.7 449.626 191.7C449.095 191.7 448.595 191.872 448.126 192.215C447.673 192.559 447.282 192.965 446.954 193.434V200.934H443.978V189.098H446.954ZM470.743 188.794C471.9 188.794 472.954 189.075 473.907 189.637C474.861 190.184 475.626 190.934 476.204 191.887C476.798 192.825 477.095 193.879 477.095 195.051C477.095 196.223 476.798 197.278 476.204 198.215C475.626 199.153 474.861 199.903 473.907 200.465C472.954 201.012 471.9 201.286 470.743 201.286C469.603 201.286 468.548 201.012 467.579 200.465C466.626 199.903 465.861 199.153 465.282 198.215C464.704 197.278 464.415 196.223 464.415 195.051C464.415 193.879 464.704 192.825 465.282 191.887C465.861 190.934 466.626 190.184 467.579 189.637C468.548 189.075 469.603 188.794 470.743 188.794ZM470.743 191.676C470.181 191.676 469.657 191.809 469.173 192.075C468.689 192.34 468.298 192.723 468.001 193.223C467.72 193.723 467.579 194.333 467.579 195.051C467.579 195.77 467.72 196.379 468.001 196.879C468.298 197.379 468.689 197.762 469.173 198.028C469.657 198.278 470.181 198.403 470.743 198.403C471.306 198.403 471.829 198.278 472.314 198.028C472.798 197.762 473.189 197.379 473.486 196.879C473.782 196.379 473.931 195.77 473.931 195.051C473.931 194.333 473.782 193.723 473.486 193.223C473.189 192.723 472.798 192.34 472.314 192.075C471.829 191.809 471.306 191.676 470.743 191.676ZM486.845 189.098V191.583H483.775V200.934H480.798V191.583H478.993V189.098H480.798V188.044C480.798 187.137 480.986 186.364 481.361 185.723C481.751 185.067 482.259 184.567 482.884 184.223C483.509 183.879 484.197 183.708 484.947 183.708C485.447 183.708 485.884 183.762 486.259 183.872C486.634 183.981 486.962 184.129 487.243 184.317V186.801C486.728 186.489 486.134 186.34 485.462 186.356C484.993 186.372 484.595 186.528 484.267 186.825C483.939 187.106 483.775 187.575 483.775 188.231V189.098H486.845ZM502.9 188.794C503.915 188.794 504.837 189.051 505.665 189.567C506.509 190.067 507.173 190.786 507.657 191.723C508.157 192.661 508.407 193.786 508.407 195.098C508.407 196.411 508.157 197.528 507.657 198.45C507.173 199.372 506.525 200.075 505.712 200.559C504.915 201.044 504.048 201.286 503.111 201.286C502.236 201.286 501.47 201.059 500.814 200.606C500.157 200.137 499.657 199.583 499.314 198.942V200.934H496.337V184.059H499.314V190.434C499.751 189.934 500.29 189.536 500.931 189.239C501.587 188.942 502.243 188.794 502.9 188.794ZM502.29 191.723C501.712 191.723 501.173 191.856 500.673 192.122C500.189 192.372 499.736 192.723 499.314 193.176V194.864C499.298 195.583 499.431 196.2 499.712 196.715C500.009 197.215 500.392 197.606 500.861 197.887C501.329 198.153 501.829 198.286 502.361 198.286C503.251 198.286 503.962 197.981 504.493 197.372C505.04 196.747 505.314 195.989 505.314 195.098C505.314 194.504 505.189 193.958 504.939 193.458C504.689 192.942 504.337 192.528 503.884 192.215C503.431 191.887 502.9 191.723 502.29 191.723ZM513.728 182.934C514.29 182.934 514.775 183.137 515.181 183.544C515.587 183.934 515.79 184.403 515.79 184.95C515.79 185.481 515.587 185.95 515.181 186.356C514.775 186.762 514.29 186.965 513.728 186.965C513.165 186.965 512.681 186.762 512.275 186.356C511.884 185.95 511.689 185.481 511.689 184.95C511.689 184.403 511.884 183.934 512.275 183.544C512.681 183.137 513.165 182.934 513.728 182.934ZM515.462 189.098V200.934H512.486V191.629H510.587V189.098H515.462ZM523.9 188.794C524.54 188.794 525.189 188.942 525.845 189.239C526.501 189.536 527.048 189.934 527.486 190.434V189.098H530.462V200.629C530.462 201.973 530.165 203.106 529.572 204.028C528.978 204.965 528.189 205.676 527.204 206.161C526.22 206.661 525.142 206.911 523.97 206.911C522.923 206.911 522.064 206.754 521.392 206.442C520.72 206.129 520.095 205.77 519.517 205.364V202.551C519.876 202.77 520.251 203.004 520.642 203.254C521.048 203.504 521.501 203.715 522.001 203.887C522.517 204.059 523.111 204.145 523.782 204.145C524.486 204.145 525.118 204.012 525.681 203.747C526.243 203.481 526.681 203.106 526.993 202.622C527.322 202.153 527.486 201.614 527.486 201.004V198.942C527.142 199.583 526.642 200.137 525.986 200.606C525.329 201.059 524.564 201.286 523.689 201.286C522.736 201.286 521.853 201.044 521.04 200.559C520.243 200.075 519.603 199.372 519.118 198.45C518.634 197.528 518.392 196.411 518.392 195.098C518.392 193.786 518.634 192.661 519.118 191.723C519.618 190.786 520.282 190.067 521.111 189.567C521.954 189.051 522.884 188.794 523.9 188.794ZM524.509 191.723C523.884 191.723 523.345 191.887 522.892 192.215C522.454 192.528 522.111 192.942 521.861 193.458C521.611 193.958 521.486 194.504 521.486 195.098C521.486 195.989 521.751 196.747 522.282 197.372C522.829 197.981 523.548 198.286 524.439 198.286C524.97 198.286 525.462 198.153 525.915 197.887C526.384 197.606 526.759 197.215 527.04 196.715C527.337 196.2 527.486 195.583 527.486 194.864V193.176C527.064 192.723 526.603 192.372 526.103 192.122C525.618 191.856 525.087 191.723 524.509 191.723ZM414.868 217.794C415.884 217.794 416.806 218.051 417.634 218.567C418.478 219.067 419.142 219.786 419.626 220.723C420.126 221.661 420.376 222.786 420.376 224.098C420.376 225.411 420.126 226.528 419.626 227.45C419.142 228.372 418.493 229.075 417.681 229.559C416.884 230.044 416.017 230.286 415.079 230.286C414.204 230.286 413.439 230.059 412.782 229.606C412.126 229.137 411.626 228.583 411.282 227.942V229.934H408.306V213.059H411.282V219.434C411.72 218.934 412.259 218.536 412.9 218.239C413.556 217.942 414.212 217.794 414.868 217.794ZM414.259 220.723C413.681 220.723 413.142 220.856 412.642 221.122C412.157 221.372 411.704 221.723 411.282 222.176V223.864C411.267 224.583 411.4 225.2 411.681 225.715C411.978 226.215 412.361 226.606 412.829 226.887C413.298 227.153 413.798 227.286 414.329 227.286C415.22 227.286 415.931 226.981 416.462 226.372C417.009 225.747 417.282 224.989 417.282 224.098C417.282 223.504 417.157 222.958 416.907 222.458C416.657 221.942 416.306 221.528 415.853 221.215C415.4 220.887 414.868 220.723 414.259 220.723ZM433.665 218.098V225.153C433.665 226.2 433.431 227.106 432.962 227.872C432.493 228.622 431.853 229.2 431.04 229.606C430.243 230.012 429.337 230.215 428.322 230.215C427.29 230.215 426.368 230.012 425.556 229.606C424.759 229.2 424.126 228.622 423.657 227.872C423.204 227.106 422.978 226.2 422.978 225.153V218.098H425.978L426.001 224.614C426.001 225.536 426.212 226.223 426.634 226.676C427.056 227.129 427.618 227.356 428.322 227.356C429.009 227.356 429.564 227.129 429.986 226.676C430.423 226.223 430.642 225.536 430.642 224.614V218.098H433.665ZM440.884 217.794C441.618 217.794 442.298 217.903 442.923 218.122C443.548 218.34 444.032 218.59 444.376 218.872V221.497C444.001 221.247 443.54 221.004 442.993 220.77C442.462 220.536 441.907 220.419 441.329 220.419C440.767 220.419 440.322 220.544 439.993 220.794C439.665 221.044 439.501 221.34 439.501 221.684C439.501 221.934 439.595 222.169 439.782 222.387C439.97 222.59 440.329 222.77 440.861 222.926L442.197 223.372C443.993 223.903 444.892 224.942 444.892 226.489C444.892 227.223 444.681 227.879 444.259 228.458C443.853 229.02 443.298 229.465 442.595 229.794C441.907 230.122 441.142 230.286 440.298 230.286C439.501 230.286 438.728 230.161 437.978 229.911C437.228 229.661 436.657 229.387 436.267 229.09V226.489C436.564 226.692 436.923 226.887 437.345 227.075C437.767 227.262 438.204 227.419 438.657 227.544C439.111 227.653 439.525 227.708 439.9 227.708C440.493 227.708 440.947 227.606 441.259 227.403C441.587 227.184 441.751 226.879 441.751 226.489C441.751 226.192 441.618 225.958 441.353 225.786C441.087 225.614 440.697 225.442 440.181 225.27L438.728 224.754C437.822 224.458 437.197 224.036 436.853 223.489C436.509 222.942 436.337 222.294 436.337 221.544C436.337 220.794 436.525 220.145 436.9 219.598C437.29 219.036 437.829 218.598 438.517 218.286C439.204 217.958 439.993 217.794 440.884 217.794ZM449.907 211.934C450.47 211.934 450.954 212.137 451.361 212.544C451.767 212.934 451.97 213.403 451.97 213.95C451.97 214.481 451.767 214.95 451.361 215.356C450.954 215.762 450.47 215.965 449.907 215.965C449.345 215.965 448.861 215.762 448.454 215.356C448.064 214.95 447.868 214.481 447.868 213.95C447.868 213.403 448.064 212.934 448.454 212.544C448.861 212.137 449.345 211.934 449.907 211.934ZM451.642 218.098V229.934H448.665V220.629H446.767V218.098H451.642ZM458.368 218.098V219.786C458.728 219.301 459.212 218.848 459.822 218.426C460.447 218.004 461.157 217.794 461.954 217.794C463.157 217.794 464.165 218.2 464.978 219.012C465.79 219.825 466.197 221.044 466.197 222.669V229.934H463.22L463.197 223.067C463.197 222.27 463.001 221.676 462.611 221.286C462.236 220.895 461.712 220.7 461.04 220.7C460.509 220.7 460.009 220.872 459.54 221.215C459.087 221.559 458.697 221.965 458.368 222.434V229.934H455.392V218.098H458.368ZM474.798 217.794C475.954 217.794 476.947 218.044 477.775 218.544C478.618 219.044 479.259 219.739 479.697 220.629C480.15 221.504 480.376 222.52 480.376 223.676V224.942H471.798C471.954 225.739 472.345 226.379 472.97 226.864C473.595 227.348 474.361 227.59 475.267 227.59C476.126 227.59 476.907 227.419 477.611 227.075C478.314 226.731 478.876 226.379 479.298 226.02L479.275 228.786C478.9 229.114 478.337 229.45 477.587 229.794C476.853 230.122 476.04 230.286 475.15 230.286C473.978 230.286 472.907 230.02 471.939 229.489C470.986 228.958 470.22 228.231 469.642 227.309C469.079 226.387 468.798 225.333 468.798 224.145C468.798 222.989 469.056 221.934 469.572 220.981C470.087 220.028 470.798 219.262 471.704 218.684C472.611 218.09 473.642 217.794 474.798 217.794ZM474.728 220.395C473.993 220.395 473.376 220.622 472.876 221.075C472.376 221.528 472.032 222.137 471.845 222.903H477.517C477.454 222.059 477.142 221.434 476.579 221.028C476.017 220.606 475.4 220.395 474.728 220.395ZM486.915 217.794C487.65 217.794 488.329 217.903 488.954 218.122C489.579 218.34 490.064 218.59 490.407 218.872V221.497C490.032 221.247 489.572 221.004 489.025 220.77C488.493 220.536 487.939 220.419 487.361 220.419C486.798 220.419 486.353 220.544 486.025 220.794C485.697 221.044 485.532 221.34 485.532 221.684C485.532 221.934 485.626 222.169 485.814 222.387C486.001 222.59 486.361 222.77 486.892 222.926L488.228 223.372C490.025 223.903 490.923 224.942 490.923 226.489C490.923 227.223 490.712 227.879 490.29 228.458C489.884 229.02 489.329 229.465 488.626 229.794C487.939 230.122 487.173 230.286 486.329 230.286C485.532 230.286 484.759 230.161 484.009 229.911C483.259 229.661 482.689 229.387 482.298 229.09V226.489C482.595 226.692 482.954 226.887 483.376 227.075C483.798 227.262 484.236 227.419 484.689 227.544C485.142 227.653 485.556 227.708 485.931 227.708C486.525 227.708 486.978 227.606 487.29 227.403C487.618 227.184 487.782 226.879 487.782 226.489C487.782 226.192 487.65 225.958 487.384 225.786C487.118 225.614 486.728 225.442 486.212 225.27L484.759 224.754C483.853 224.458 483.228 224.036 482.884 223.489C482.54 222.942 482.368 222.294 482.368 221.544C482.368 220.794 482.556 220.145 482.931 219.598C483.322 219.036 483.861 218.598 484.548 218.286C485.236 217.958 486.025 217.794 486.915 217.794ZM497.275 217.794C498.009 217.794 498.689 217.903 499.314 218.122C499.939 218.34 500.423 218.59 500.767 218.872V221.497C500.392 221.247 499.931 221.004 499.384 220.77C498.853 220.536 498.298 220.419 497.72 220.419C497.157 220.419 496.712 220.544 496.384 220.794C496.056 221.044 495.892 221.34 495.892 221.684C495.892 221.934 495.986 222.169 496.173 222.387C496.361 222.59 496.72 222.77 497.251 222.926L498.587 223.372C500.384 223.903 501.282 224.942 501.282 226.489C501.282 227.223 501.072 227.879 500.65 228.458C500.243 229.02 499.689 229.465 498.986 229.794C498.298 230.122 497.532 230.286 496.689 230.286C495.892 230.286 495.118 230.161 494.368 229.911C493.618 229.661 493.048 229.387 492.657 229.09V226.489C492.954 226.692 493.314 226.887 493.736 227.075C494.157 227.262 494.595 227.419 495.048 227.544C495.501 227.653 495.915 227.708 496.29 227.708C496.884 227.708 497.337 227.606 497.65 227.403C497.978 227.184 498.142 226.879 498.142 226.489C498.142 226.192 498.009 225.958 497.743 225.786C497.478 225.614 497.087 225.442 496.572 225.27L495.118 224.754C494.212 224.458 493.587 224.036 493.243 223.489C492.9 222.942 492.728 222.294 492.728 221.544C492.728 220.794 492.915 220.145 493.29 219.598C493.681 219.036 494.22 218.598 494.907 218.286C495.595 217.958 496.384 217.794 497.275 217.794ZM508.993 217.794C510.15 217.794 511.142 218.044 511.97 218.544C512.814 219.044 513.454 219.739 513.892 220.629C514.345 221.504 514.572 222.52 514.572 223.676V224.942H505.993C506.15 225.739 506.54 226.379 507.165 226.864C507.79 227.348 508.556 227.59 509.462 227.59C510.322 227.59 511.103 227.419 511.806 227.075C512.509 226.731 513.072 226.379 513.493 226.02L513.47 228.786C513.095 229.114 512.532 229.45 511.782 229.794C511.048 230.122 510.236 230.286 509.345 230.286C508.173 230.286 507.103 230.02 506.134 229.489C505.181 228.958 504.415 228.231 503.837 227.309C503.275 226.387 502.993 225.333 502.993 224.145C502.993 222.989 503.251 221.934 503.767 220.981C504.282 220.028 504.993 219.262 505.9 218.684C506.806 218.09 507.837 217.794 508.993 217.794ZM508.923 220.395C508.189 220.395 507.572 220.622 507.072 221.075C506.572 221.528 506.228 222.137 506.04 222.903H511.712C511.65 222.059 511.337 221.434 510.775 221.028C510.212 220.606 509.595 220.395 508.923 220.395ZM521.111 217.794C521.845 217.794 522.525 217.903 523.15 218.122C523.775 218.34 524.259 218.59 524.603 218.872V221.497C524.228 221.247 523.767 221.004 523.22 220.77C522.689 220.536 522.134 220.419 521.556 220.419C520.993 220.419 520.548 220.544 520.22 220.794C519.892 221.044 519.728 221.34 519.728 221.684C519.728 221.934 519.822 222.169 520.009 222.387C520.197 222.59 520.556 222.77 521.087 222.926L522.423 223.372C524.22 223.903 525.118 224.942 525.118 226.489C525.118 227.223 524.907 227.879 524.486 228.458C524.079 229.02 523.525 229.465 522.822 229.794C522.134 230.122 521.368 230.286 520.525 230.286C519.728 230.286 518.954 230.161 518.204 229.911C517.454 229.661 516.884 229.387 516.493 229.09V226.489C516.79 226.692 517.15 226.887 517.572 227.075C517.993 227.262 518.431 227.419 518.884 227.544C519.337 227.653 519.751 227.708 520.126 227.708C520.72 227.708 521.173 227.606 521.486 227.403C521.814 227.184 521.978 226.879 521.978 226.489C521.978 226.192 521.845 225.958 521.579 225.786C521.314 225.614 520.923 225.442 520.407 225.27L518.954 224.754C518.048 224.458 517.423 224.036 517.079 223.489C516.736 222.942 516.564 222.294 516.564 221.544C516.564 220.794 516.751 220.145 517.126 219.598C517.517 219.036 518.056 218.598 518.743 218.286C519.431 217.958 520.22 217.794 521.111 217.794ZM529.056 226.606C529.572 226.606 530.009 226.794 530.368 227.169C530.743 227.528 530.931 227.965 530.931 228.481C530.931 228.997 530.743 229.442 530.368 229.817C530.009 230.176 529.572 230.356 529.056 230.356C528.54 230.356 528.095 230.176 527.72 229.817C527.361 229.442 527.181 228.997 527.181 228.481C527.181 227.965 527.361 227.528 527.72 227.169C528.095 226.794 528.54 226.606 529.056 226.606Z" fill="white" fill-opacity="0.66"/>
</svg>
