<svg xmlns="http://www.w3.org/2000/svg" xmlns:xlink="http://www.w3.org/1999/xlink" viewBox="0 0 1648.72 1080.86"><defs><style>.cls-1{opacity:0.3;}.cls-2,.cls-3{opacity:0.26;}.cls-2{fill:url(#linear-gradient);}.cls-3{fill:url(#linear-gradient-2);}.cls-4{opacity:0.53;}.cls-5{fill:url(#linear-gradient-3);}.cls-12,.cls-14,.cls-21,.cls-22,.cls-6,.cls-9{fill:#fff;}.cls-6{opacity:0.86;}.cls-7{opacity:0.88;}.cls-8{fill:url(#linear-gradient-4);}.cls-9{opacity:0.48;}.cls-10{fill:url(#linear-gradient-5);}.cls-11{fill:url(#linear-gradient-6);}.cls-12{opacity:0.56;}.cls-13{fill:url(#linear-gradient-7);}.cls-14{opacity:0.31;}.cls-15,.cls-22{opacity:0.37;}.cls-16{fill:url(#linear-gradient-8);}.cls-17{opacity:0.79;}.cls-18{fill:url(#linear-gradient-9);}.cls-19{fill:url(#linear-gradient-10);}.cls-20{fill:url(#linear-gradient-11);}.cls-23{fill:url(#linear-gradient-12);}.cls-24{fill:url(#linear-gradient-13);}.cls-25{fill:url(#linear-gradient-14);}.cls-26{fill:url(#linear-gradient-15);}.cls-27{fill:url(#linear-gradient-16);}.cls-28{fill:url(#linear-gradient-17);}.cls-29{fill:url(#linear-gradient-18);}.cls-30{fill:url(#linear-gradient-19);}.cls-31{fill:url(#linear-gradient-20);}.cls-32{fill:url(#linear-gradient-21);}.cls-33{fill:url(#linear-gradient-22);}.cls-34{fill:url(#linear-gradient-23);}.cls-35{fill:url(#linear-gradient-24);}.cls-36{fill:url(#linear-gradient-25);}.cls-37{fill:url(#linear-gradient-26);}.cls-38{fill:url(#linear-gradient-27);}.cls-39{fill:url(#linear-gradient-28);}.cls-40{fill:url(#linear-gradient-29);}.cls-41{fill:url(#linear-gradient-30);}.cls-42{fill:url(#linear-gradient-31);}.cls-43{fill:url(#linear-gradient-32);}.cls-44{fill:url(#linear-gradient-33);}.cls-45{fill:url(#linear-gradient-34);}.cls-46{fill:url(#linear-gradient-35);}.cls-47{fill:url(#linear-gradient-36);}.cls-48{fill:url(#linear-gradient-37);}.cls-49{fill:url(#linear-gradient-38);}.cls-50{fill:url(#linear-gradient-39);}.cls-51{fill:url(#linear-gradient-40);}.cls-52{opacity:0.64;}.cls-53{fill:url(#linear-gradient-41);}.cls-54{fill:url(#linear-gradient-42);}.cls-55{fill:url(#linear-gradient-43);}.cls-56{fill:url(#linear-gradient-44);}.cls-57{fill:url(#linear-gradient-45);}.cls-58{fill:#e992ec;}.cls-59{fill:url(#linear-gradient-46);}.cls-60{fill:url(#linear-gradient-47);}.cls-61{fill:url(#linear-gradient-48);}.cls-62{fill:url(#linear-gradient-49);}.cls-63{fill:url(#linear-gradient-50);}.cls-64{fill:url(#linear-gradient-51);}.cls-65{fill:url(#linear-gradient-52);}.cls-66{fill:url(#linear-gradient-53);}.cls-67{fill:url(#linear-gradient-54);}.cls-68{fill:url(#linear-gradient-55);}.cls-69{fill:url(#linear-gradient-56);}.cls-70{fill:url(#linear-gradient-57);}.cls-71{fill:url(#linear-gradient-58);}.cls-72{fill:url(#linear-gradient-59);}.cls-73{fill:url(#linear-gradient-60);}.cls-74{fill:url(#linear-gradient-61);}.cls-75{fill:url(#linear-gradient-62);}.cls-76{fill:url(#linear-gradient-63);}.cls-77{fill:url(#linear-gradient-64);}.cls-78{fill:url(#linear-gradient-65);}.cls-79{fill:url(#linear-gradient-66);}.cls-80{fill:url(#linear-gradient-67);}.cls-81{fill:url(#linear-gradient-68);}.cls-82{fill:url(#linear-gradient-69);}.cls-83{fill:url(#linear-gradient-70);}.cls-84{fill:url(#linear-gradient-71);}.cls-85{fill:url(#linear-gradient-72);}.cls-86{fill:url(#linear-gradient-73);}.cls-87{fill:url(#linear-gradient-74);}.cls-88{fill:url(#linear-gradient-75);}.cls-89{fill:url(#linear-gradient-76);}.cls-90{fill:url(#linear-gradient-77);}.cls-91{fill:url(#linear-gradient-78);}.cls-92{fill:url(#linear-gradient-79);}.cls-93{fill:url(#linear-gradient-80);}.cls-94{fill:url(#linear-gradient-81);}.cls-95{fill:url(#linear-gradient-82);}.cls-96{fill:url(#linear-gradient-83);}.cls-97{fill:url(#linear-gradient-84);}.cls-98{fill:url(#linear-gradient-85);}.cls-99{fill:url(#linear-gradient-86);}.cls-100{fill:url(#linear-gradient-87);}.cls-101{fill:url(#_3);}.cls-102{fill:url(#linear-gradient-88);}.cls-103{fill:url(#linear-gradient-89);}.cls-104{fill:url(#linear-gradient-90);}.cls-105{fill:url(#linear-gradient-91);}</style><linearGradient id="linear-gradient" x1="265.02" y1="669.26" x2="1848.08" y2="669.26" gradientTransform="translate(-176.13 -140.2) rotate(-3.74)" gradientUnits="userSpaceOnUse"><stop offset="0" stop-color="#b37cff"/><stop offset="1" stop-color="#f895e7"/></linearGradient><linearGradient id="linear-gradient-2" x1="-6243.36" y1="776.89" x2="-4657.82" y2="776.89" gradientTransform="matrix(-1, 0.09, 0.09, 1, -4514.85, 188.63)" xlink:href="#linear-gradient"/><linearGradient id="linear-gradient-3" x1="2034.09" y1="3420.85" x2="2379.08" y2="3183.77" gradientTransform="matrix(0.68, -0.73, 0.73, 0.68, -2432.05, -50.76)" gradientUnits="userSpaceOnUse"><stop offset="0" stop-color="#a737d5"/><stop offset="1" stop-color="#ef497a"/></linearGradient><linearGradient id="linear-gradient-4" x1="-359.28" y1="-9345.54" x2="-45.23" y2="-9345.54" gradientTransform="matrix(-0.03, -0.97, -0.89, 0.03, -6769.66, 688.05)" gradientUnits="userSpaceOnUse"><stop offset="0" stop-color="#cb236d"/><stop offset="1" stop-color="#4c246d"/></linearGradient><linearGradient id="linear-gradient-5" x1="3648.73" y1="839.73" x2="3273.93" y2="1082.7" gradientTransform="matrix(-1, 0, 0, 1, 5106.48, 0)" xlink:href="#linear-gradient"/><linearGradient id="linear-gradient-6" x1="1672.11" y1="681.25" x2="1343.76" y2="1037.9" gradientTransform="translate(25.17)" xlink:href="#linear-gradient-4"/><linearGradient id="linear-gradient-7" x1="1511.51" y1="673.57" x2="1507.24" y2="846.34" gradientTransform="translate(3043.27 1546.45) rotate(-180)" gradientUnits="userSpaceOnUse"><stop offset="0" stop-color="#53d8ff"/><stop offset="1" stop-color="#3840f7"/></linearGradient><linearGradient id="linear-gradient-8" x1="2392.6" y1="-519.81" x2="2797.87" y2="-519.81" gradientTransform="matrix(0.74, -0.67, 0.67, 0.74, -1145.19, 2454.27)" xlink:href="#linear-gradient-7"/><linearGradient id="linear-gradient-9" x1="1300.54" y1="-124.12" x2="1743.58" y2="-124.12" gradientTransform="translate(-295.98 1976.92) rotate(-60.7)" xlink:href="#linear-gradient-3"/><linearGradient id="linear-gradient-10" x1="820.62" y1="824.76" x2="1073.62" y2="65.75" gradientUnits="userSpaceOnUse"><stop offset="0" stop-color="#2b3582"/><stop offset="1" stop-color="#150e42"/></linearGradient><linearGradient id="linear-gradient-11" x1="1374.82" y1="27.09" x2="8.67" y2="1587.47" gradientUnits="userSpaceOnUse"><stop offset="0" stop-color="#fdf53f"/><stop offset="1" stop-color="#d93c65"/></linearGradient><linearGradient id="linear-gradient-12" x1="1245.93" y1="796.47" x2="182.12" y2="1055.23" xlink:href="#linear-gradient-10"/><linearGradient id="linear-gradient-13" x1="945.84" y1="-85.37" x2="965.91" y2="-148.09" gradientTransform="matrix(1.17, 0.07, -0.07, 1.18, 215.15, 401.79)" xlink:href="#linear-gradient-7"/><linearGradient id="linear-gradient-14" x1="948.73" y1="-127.48" x2="1046.57" y2="-344.06" gradientTransform="matrix(1.17, 0.07, -0.07, 1.18, 215.15, 401.79)" xlink:href="#linear-gradient-7"/><linearGradient id="linear-gradient-15" x1="1075.67" y1="-22.95" x2="1055.6" y2="-150.05" gradientTransform="matrix(1.17, 0.07, -0.07, 1.18, 215.15, 401.79)" xlink:href="#linear-gradient-7"/><linearGradient id="linear-gradient-16" x1="4712.58" y1="873.73" x2="4586.5" y2="1359.37" gradientTransform="translate(-3279.99)" xlink:href="#linear-gradient-4"/><linearGradient id="linear-gradient-17" x1="4725.07" y1="871.38" x2="4595.62" y2="1370" gradientTransform="translate(-3279.99)" xlink:href="#linear-gradient-4"/><linearGradient id="linear-gradient-18" x1="-7571.39" y1="822.84" x2="-7723.46" y2="1022.5" gradientTransform="matrix(-1, 0, 0, 1, -6281.17, 0)" xlink:href="#linear-gradient-11"/><linearGradient id="linear-gradient-19" x1="4583.35" y1="984.47" x2="4643.46" y2="984.47" gradientTransform="translate(-3144.35)" gradientUnits="userSpaceOnUse"><stop offset="0" stop-color="#f9b776"/><stop offset="1" stop-color="#f47960"/></linearGradient><linearGradient id="linear-gradient-20" x1="4620.13" y1="1023.64" x2="4611.29" y2="1159.21" gradientTransform="translate(-3144.35)" xlink:href="#linear-gradient-4"/><linearGradient id="linear-gradient-21" x1="4512.77" y1="988.58" x2="4639.62" y2="988.58" xlink:href="#linear-gradient-19"/><linearGradient id="linear-gradient-22" x1="-7605.35" y1="783.48" x2="-7682.31" y2="968.2" gradientTransform="matrix(-1, 0, 0, 1, -6145.53, 0)" xlink:href="#linear-gradient-10"/><linearGradient id="linear-gradient-23" x1="4534.81" y1="1018.08" x2="4525.97" y2="1153.65" gradientTransform="translate(-3144.35)" xlink:href="#linear-gradient-4"/><linearGradient id="linear-gradient-24" x1="4657.69" y1="813.59" x2="4725.09" y2="960.29" gradientTransform="translate(-3144.35)" xlink:href="#linear-gradient-11"/><linearGradient id="linear-gradient-25" x1="4655.24" y1="814.48" x2="4648.9" y2="773.77" xlink:href="#linear-gradient-19"/><linearGradient id="linear-gradient-26" x1="4627.82" y1="737.75" x2="4683.87" y2="775.82" xlink:href="#linear-gradient-19"/><linearGradient id="linear-gradient-27" x1="4725.63" y1="666.24" x2="4631.63" y2="764.04" gradientTransform="translate(-3144.35)" xlink:href="#linear-gradient-10"/><linearGradient id="linear-gradient-28" x1="4631.18" y1="732.81" x2="4687.23" y2="770.88" xlink:href="#linear-gradient-19"/><linearGradient id="linear-gradient-29" x1="4691.67" y1="884.97" x2="4810.83" y2="884.97" xlink:href="#linear-gradient-19"/><linearGradient id="linear-gradient-30" x1="4767.41" y1="706.4" x2="4673.41" y2="804.2" gradientTransform="translate(-3144.35)" xlink:href="#linear-gradient-10"/><linearGradient id="linear-gradient-31" x1="4553.41" y1="1343.1" x2="4478.4" y2="1363.66" gradientTransform="translate(-3124.93 -224.1) rotate(-2.83)" xlink:href="#linear-gradient-3"/><linearGradient id="linear-gradient-32" x1="4592.41" y1="824.24" x2="4539.18" y2="880.5" gradientTransform="translate(-3144.35)" xlink:href="#linear-gradient-3"/><linearGradient id="linear-gradient-33" x1="4560.23" y1="838.25" x2="4536.08" y2="874.62" gradientTransform="translate(-3144.35)" xlink:href="#linear-gradient-7"/><linearGradient id="linear-gradient-34" x1="4411.56" y1="905.37" x2="4808.33" y2="905.37" gradientTransform="translate(-3144.35)" gradientUnits="userSpaceOnUse"><stop offset="0" stop-color="#9cfffb"/><stop offset="1" stop-color="#9bfffa"/></linearGradient><linearGradient id="linear-gradient-35" x1="4434.35" y1="992.34" x2="4512.67" y2="992.34" xlink:href="#linear-gradient-34"/><linearGradient id="linear-gradient-36" x1="4443.39" y1="992.34" x2="4521.72" y2="992.34" xlink:href="#linear-gradient-34"/><linearGradient id="linear-gradient-37" x1="4715.93" y1="992.34" x2="4794.25" y2="992.34" xlink:href="#linear-gradient-34"/><linearGradient id="linear-gradient-38" x1="4724.97" y1="992.34" x2="4803.3" y2="992.34" xlink:href="#linear-gradient-34"/><linearGradient id="linear-gradient-39" x1="980.86" y1="416.93" x2="840.15" y2="737.33" gradientTransform="matrix(1, 0, 0, 1, 0, 0)" xlink:href="#linear-gradient-4"/><linearGradient id="linear-gradient-40" x1="1054.01" y1="449.06" x2="913.29" y2="769.45" gradientTransform="matrix(1, 0, 0, 1, 0, 0)" xlink:href="#linear-gradient-4"/><linearGradient id="linear-gradient-41" x1="1059.57" y1="-1076.3" x2="1480.47" y2="-333.73" gradientTransform="translate(415.02 -885.74) rotate(119.58)" xlink:href="#linear-gradient-4"/><linearGradient id="linear-gradient-42" x1="902.95" y1="293.54" x2="910.64" y2="569.12" gradientTransform="matrix(1, 0, 0, 1, 0, 0)" xlink:href="#linear-gradient-4"/><linearGradient id="linear-gradient-43" x1="1149.88" y1="383.09" x2="1272.69" y2="267.65" gradientTransform="matrix(1, 0, 0, 1, 0, 0)" xlink:href="#linear-gradient-4"/><linearGradient id="linear-gradient-44" x1="715.91" y1="492.36" x2="768.04" y2="368.46" gradientUnits="userSpaceOnUse"><stop offset="0" stop-color="#cb236d"/><stop offset="0.07" stop-color="#c2236d"/><stop offset="1" stop-color="#4c246d"/></linearGradient><linearGradient id="linear-gradient-45" x1="-8803.92" y1="430.77" x2="-8904.75" y2="599.11" gradientTransform="matrix(-1, 0, 0, 1, -7589.53, 0)" xlink:href="#linear-gradient-44"/><linearGradient id="linear-gradient-46" x1="1994.49" y1="1035.36" x2="2016.34" y2="897.87" gradientTransform="matrix(-1, 0, 0, 1, 2267.86, 0)" xlink:href="#linear-gradient-4"/><linearGradient id="linear-gradient-47" x1="2002.99" y1="1036.3" x2="2025.56" y2="894.37" gradientTransform="matrix(-1, 0, 0, 1, 2403.49, 0)" xlink:href="#linear-gradient-4"/><linearGradient id="linear-gradient-48" x1="-1840.64" y1="1040.54" x2="-1817.41" y2="894.41" gradientTransform="matrix(-1, 0, 0, 1, -1558.14, 0)" xlink:href="#linear-gradient-11"/><linearGradient id="linear-gradient-49" x1="8799.19" y1="1000.03" x2="8781.34" y2="1035.14" gradientTransform="translate(-8317.13)" xlink:href="#linear-gradient-10"/><linearGradient id="linear-gradient-50" x1="8765.24" y1="1014" x2="8783.02" y2="1014" gradientTransform="translate(-8317.13)" xlink:href="#linear-gradient-19"/><linearGradient id="linear-gradient-51" x1="-8945.29" y1="667.19" x2="-8958.34" y2="948.39" gradientTransform="matrix(-1, 0, 0, 1, -8510.19, 0)" xlink:href="#linear-gradient-7"/><linearGradient id="linear-gradient-52" x1="8788.83" y1="1035.53" x2="8726.94" y2="1116.46" gradientTransform="translate(-8317.13)" xlink:href="#linear-gradient-10"/><linearGradient id="linear-gradient-53" x1="8757.86" y1="1053.06" x2="8805.68" y2="1053.06" gradientTransform="translate(-8317.13)" xlink:href="#linear-gradient-7"/><linearGradient id="linear-gradient-54" x1="8752.38" y1="1030.41" x2="8769.07" y2="1030.41" gradientTransform="translate(-8317.13)" xlink:href="#linear-gradient-19"/><linearGradient id="linear-gradient-55" x1="8713.39" y1="1019.73" x2="8717.55" y2="878.1" gradientTransform="translate(-8317.13)" xlink:href="#linear-gradient-7"/><linearGradient id="linear-gradient-56" x1="8816.64" y1="881.99" x2="8775.58" y2="817.72" gradientTransform="translate(-8317.13)" xlink:href="#linear-gradient-4"/><linearGradient id="linear-gradient-57" x1="8803.38" y1="837.94" x2="8861.61" y2="837.94" gradientTransform="translate(-8317.13)" xlink:href="#linear-gradient-19"/><linearGradient id="linear-gradient-58" x1="-8951.67" y1="787" x2="-8798.98" y2="877.84" gradientTransform="matrix(-1, 0, 0, 1, -8510.19, 0)" xlink:href="#linear-gradient-4"/><linearGradient id="linear-gradient-59" x1="8747.83" y1="752.01" x2="8786.46" y2="752.01" gradientTransform="translate(-8317.13)" xlink:href="#linear-gradient-19"/><linearGradient id="linear-gradient-60" x1="-8936.56" y1="761.62" x2="-8783.87" y2="852.46" gradientTransform="matrix(-1, 0, 0, 1, -8510.19, 0)" xlink:href="#linear-gradient-4"/><linearGradient id="linear-gradient-61" x1="371.15" y1="596.28" x2="376.96" y2="818.73" gradientTransform="matrix(1, 0, 0, 1, 0, 0)" xlink:href="#linear-gradient-4"/><linearGradient id="linear-gradient-62" x1="8721.48" y1="838.64" x2="8573.58" y2="1095.65" gradientTransform="translate(-8317.13)" xlink:href="#linear-gradient-19"/><linearGradient id="linear-gradient-63" x1="8214.92" y1="-4824.93" x2="8167.27" y2="-4788.47" gradientTransform="matrix(0.92, 0.39, -0.39, 0.92, -8959.37, 1996.69)" xlink:href="#linear-gradient-19"/><linearGradient id="linear-gradient-64" x1="-8931.29" y1="626.93" x2="-8987.34" y2="726.14" gradientTransform="matrix(-1, 0, 0, 1, -8510.19, 0)" xlink:href="#linear-gradient-10"/><linearGradient id="linear-gradient-65" x1="8209.01" y1="-4832.66" x2="8161.36" y2="-4796.19" gradientTransform="matrix(0.92, 0.39, -0.39, 0.92, -8959.37, 1996.69)" xlink:href="#linear-gradient-19"/><linearGradient id="linear-gradient-66" x1="-2032.22" y1="965.1" x2="-1941.48" y2="965.1" gradientTransform="matrix(-1, 0, 0, 1, -1422.51, 0)" xlink:href="#linear-gradient-34"/><linearGradient id="linear-gradient-67" x1="-2021.74" y1="965.1" x2="-1931" y2="965.1" gradientTransform="matrix(-1, 0, 0, 1, -1422.51, 0)" xlink:href="#linear-gradient-34"/><linearGradient id="linear-gradient-68" x1="-1775.8" y1="965.1" x2="-1685.06" y2="965.1" gradientTransform="matrix(-1, 0, 0, 1, -1422.51, 0)" xlink:href="#linear-gradient-34"/><linearGradient id="linear-gradient-69" x1="-1765.32" y1="965.1" x2="-1674.58" y2="965.1" gradientTransform="matrix(-1, 0, 0, 1, -1422.51, 0)" xlink:href="#linear-gradient-34"/><linearGradient id="linear-gradient-70" x1="-2053.62" y1="869.87" x2="-1668.75" y2="869.87" gradientTransform="matrix(-1, 0, 0, 1, -1422.51, 0)" xlink:href="#linear-gradient-34"/><linearGradient id="linear-gradient-71" x1="-1915.76" y1="966.2" x2="-1991.49" y2="986.95" gradientTransform="matrix(-1, -0.05, -0.05, 1, -1441.93, -224.1)" xlink:href="#linear-gradient-10"/><linearGradient id="linear-gradient-72" x1="-9021.74" y1="851.89" x2="-8826.3" y2="980.91" gradientTransform="matrix(-1, 0, 0, 1, -8510.19, 0)" xlink:href="#linear-gradient-10"/><linearGradient id="linear-gradient-73" x1="-1981.29" y1="800.79" x2="-2005.67" y2="837.51" gradientTransform="matrix(-0.31, -0.95, -0.95, 0.31, 736.12, -1329.6)" xlink:href="#linear-gradient-7"/><linearGradient id="linear-gradient-74" x1="-2927.28" y1="0.22" x2="-3190.71" y2="371.89" gradientTransform="matrix(-0.98, -0.17, -0.17, 0.98, -1930.72, 62.4)" xlink:href="#linear-gradient-10"/><linearGradient id="linear-gradient-75" x1="-3319.76" y1="1018.57" x2="-3289.72" y2="1018.57" gradientTransform="matrix(-1, 0, 0, 1, -2146.5, 0)" xlink:href="#linear-gradient-4"/><linearGradient id="linear-gradient-76" x1="-3244.54" y1="983.12" x2="-3353.85" y2="1068.95" gradientTransform="matrix(-1, 0, 0, 1, -2146.5, 0)" xlink:href="#linear-gradient-7"/><linearGradient id="linear-gradient-77" x1="-3360.05" y1="812.41" x2="-3319.98" y2="812.41" gradientTransform="matrix(-1, 0, 0, 1, -2146.5, 0)" xlink:href="#linear-gradient-19"/><linearGradient id="linear-gradient-78" x1="-3311.41" y1="984.36" x2="-3317.15" y2="1034.45" gradientTransform="matrix(-1, 0, 0, 1, -2146.5, 0)" xlink:href="#linear-gradient-19"/><linearGradient id="linear-gradient-79" x1="-3225.12" y1="1007.85" x2="-3334.44" y2="1093.69" gradientTransform="matrix(-1, 0, 0, 1, -2146.5, 0)" xlink:href="#linear-gradient-7"/><linearGradient id="linear-gradient-80" x1="-3274.01" y1="1019.37" x2="-3230.76" y2="1019.37" gradientTransform="matrix(-1, 0, 0, 1, -2146.5, 0)" xlink:href="#linear-gradient-4"/><linearGradient id="linear-gradient-81" x1="-3264.65" y1="989.72" x2="-3270.39" y2="1039.81" gradientTransform="matrix(-1, 0, 0, 1, -2146.5, 0)" xlink:href="#linear-gradient-19"/><linearGradient id="linear-gradient-82" x1="-3196.46" y1="760.66" x2="-3380.03" y2="1045.52" gradientTransform="matrix(-1, 0, 0, 1, -2146.5, 0)" xlink:href="#linear-gradient-4"/><linearGradient id="linear-gradient-83" x1="1113.15" y1="657.04" x2="1200.39" y2="824.98" gradientTransform="matrix(1, 0, 0, 1, 0, 0)" xlink:href="#linear-gradient-7"/><linearGradient id="linear-gradient-84" x1="-3298.63" y1="659.8" x2="-3322.18" y2="761.55" gradientTransform="matrix(-1, 0, 0, 1, -2146.5, 0)" xlink:href="#linear-gradient-19"/><linearGradient id="linear-gradient-85" x1="-4720.84" y1="-1797.14" x2="-4759.72" y2="-1745.7" gradientTransform="matrix(-0.69, -0.73, -0.73, 0.69, -3388.3, -1563.54)" xlink:href="#linear-gradient-19"/><linearGradient id="linear-gradient-86" x1="-4750.53" y1="-1784.79" x2="-4704.09" y2="-1784.79" gradientTransform="matrix(-0.69, -0.73, -0.73, 0.69, -3388.3, -1563.54)" xlink:href="#linear-gradient-10"/><linearGradient id="linear-gradient-87" x1="-4777.78" y1="-1756.41" x2="-4746.6" y2="-1788.4" gradientTransform="matrix(-0.69, -0.73, -0.73, 0.69, -3388.3, -1563.54)" xlink:href="#linear-gradient-19"/><linearGradient id="_3" x1="1148.52" y1="586.37" x2="1221.22" y2="800.82" gradientUnits="userSpaceOnUse"><stop offset="0" stop-color="#53d8ff"/><stop offset="0.67" stop-color="#4173fa"/><stop offset="1" stop-color="#3840f7"/></linearGradient><linearGradient id="linear-gradient-88" x1="1159.92" y1="769.46" x2="1165.01" y2="855.24" gradientTransform="matrix(1, 0, 0, 1, 0, 0)" xlink:href="#linear-gradient-4"/><linearGradient id="linear-gradient-89" x1="1065.75" y1="681.66" x2="1153" y2="849.61" gradientTransform="matrix(1, 0, 0, 1, 0, 0)" xlink:href="#linear-gradient-7"/><linearGradient id="linear-gradient-90" x1="-3156.93" y1="623.48" x2="-3180.65" y2="700.97" gradientTransform="matrix(-1, 0, 0, 1, -2146.5, 0)" xlink:href="#linear-gradient-19"/><linearGradient id="linear-gradient-91" x1="-3147.7" y1="626.3" x2="-3171.41" y2="703.79" gradientTransform="matrix(-1, 0, 0, 1, -2146.5, 0)" xlink:href="#linear-gradient-19"/></defs><g id="Illustration"><g class="cls-1"><path class="cls-2" d="M384.37,101c-115.89,99.78,56.35,208.69-24.78,265.57S-65.66,545.45,302.5,724.81s393,275.65,636.53,133.65,218.09-127.76,432.08-54.35S1792.82,731.06,1707.62,577s-132.09-149.26-55-255.48S1559-109.64,1284.16,124.08s-315.62,107.86-446.44,2.66C766.89,69.79,567.51-56.67,384.37,101Z" transform="translate(-135.64)"/><path class="cls-3" d="M1449.75,60.92C1580.82,143.54,1428.59,275,1518.21,320s463.24,198.72,131,429.21c-166.76,115.68-358.08,243.78-622.3,137s-236.73-96.18-436.11,5.94-428.95-14-370.23-178,105.86-165.78,12-260.13S253.73,14.91,564.13,208,894,271,1005.87,149C1066.46,82.88,1242.61-69.65,1449.75,60.92Z" transform="translate(-135.64)"/><g class="cls-4"><path class="cls-5" d="M1373.38,742.38s36.13-182,93.57-252.22c51.26-62.7,129.34-146.11,145.54-163.33a1.79,1.79,0,0,1,3.1,1.22c.14,26.48-5,167.2-124.56,282.15C1358.47,737.63,1373.38,742.38,1373.38,742.38Z" transform="translate(-135.64)"/><path class="cls-6" d="M1592.86,381.3c-6.16,11.63-12.67,23-19.34,34.37s-13.55,22.52-20.6,33.61q-21.15,33.27-44.65,65-11.79,15.79-24.24,31.11t-25.76,29.89c-8.91,9.68-18.08,19.14-27.58,28.25s-19.47,17.75-29.77,26a1.45,1.45,0,0,1-1.81-2.27h0c10.26-8.12,20.13-16.73,29.69-25.68s18.65-18.4,27.57-28,17.45-19.57,25.8-29.67,16.43-20.45,24.32-30.93q23.6-31.49,44.85-64.67,10.64-16.56,20.72-33.47c6.7-11.27,13.26-22.65,19.45-34.2h0a.76.76,0,0,1,1-.31A.75.75,0,0,1,1592.86,381.3Z" transform="translate(-135.64)"/></g><g class="cls-7"><path class="cls-8" d="M1738,493.28c-11.11,49.91-86.59,337.45-346.58,307.13,0,0,5-203.53,341.57-312.36C1735.92,487.1,1738.71,490,1738,493.28Z" transform="translate(-135.64)"/><path class="cls-9" d="M1702.43,526.5c-8.56,13.75-17.6,27.11-26.85,40.36s-18.82,26.25-28.63,39.08-19.94,25.44-30.33,37.82-21,24.54-32.1,36.34-22.34,23.41-34.16,34.49-23.87,21.92-36.58,32c-25.25,20.32-52.6,38.4-82.51,51.72a3.69,3.69,0,1,1-3-6.74h0l.07,0c29.21-12.63,56.33-30.09,81.5-49.89,12.66-9.83,24.74-20.42,36.55-31.28s23.18-22.25,34.28-33.87,21.86-23.59,32.33-35.8,20.68-24.66,30.61-37.32,19.59-25.55,29-38.64,18.54-26.35,27.17-39.89v0a1.57,1.57,0,0,1,2.65,1.67Z" transform="translate(-135.64)"/></g><path class="cls-10" d="M1311.83,917.08h405.32V836H1311.83C1320.51,836,1320.51,917.08,1311.83,917.08Z" transform="translate(-135.64)"/><path class="cls-11" d="M1717.15,896.78V859.65c0-13.09-8-23.7-17.89-23.7H1313.54a14.07,14.07,0,0,1-14.07-14.07h0a4.28,4.28,0,0,1,4.28-4.27H1725.3c9.67,0,25,15.2,25,33.95v51.85c0,17.68-14.9,32-24,32H1306a6.5,6.5,0,0,1-6.5-6.49,11.85,11.85,0,0,1,11.85-11.85h390.5C1710.28,917.08,1717.15,908,1717.15,896.78Z" transform="translate(-135.64)"/><path class="cls-12" d="M1705.9,853.32h-380a.73.73,0,0,1-.73-.72.73.73,0,0,1,.73-.73h380a.73.73,0,0,1,.73.73A.72.72,0,0,1,1705.9,853.32Z" transform="translate(-135.64)"/><path class="cls-12" d="M1705.9,865.37h-380a.73.73,0,0,1,0-1.46h380a.73.73,0,0,1,0,1.46Z" transform="translate(-135.64)"/><path class="cls-12" d="M1705.9,877.41h-380a.73.73,0,0,1,0-1.46h380a.73.73,0,1,1,0,1.46Z" transform="translate(-135.64)"/><path class="cls-12" d="M1705.9,889.45h-380a.73.73,0,0,1,0-1.46h380a.73.73,0,0,1,0,1.46Z" transform="translate(-135.64)"/><path class="cls-12" d="M1705.9,901.49h-380a.73.73,0,0,1-.73-.73.73.73,0,0,1,.73-.72h380a.72.72,0,0,1,.73.72A.73.73,0,0,1,1705.9,901.49Z" transform="translate(-135.64)"/><rect class="cls-13" x="1351.87" y="729.21" width="364.7" height="88.03" rx="19.1" transform="translate(2932.8 1546.45) rotate(180)"/><rect class="cls-14" x="1632.51" y="739.32" width="42.84" height="67.8" rx="7.24" transform="translate(3172.23 1546.45) rotate(180)"/><rect class="cls-14" x="1610.13" y="739.32" width="16.08" height="67.8" rx="3.49" transform="matrix(-1, 0, 0, -1, 3100.7, 1546.45)"/><g class="cls-15"><path class="cls-16" d="M397.68,2.69C361.28,60.27,163.18,404,452.36,647.86c0,0,188.68-192.73-44.69-644.75A5.76,5.76,0,0,0,397.68,2.69Z" transform="translate(-135.64)"/><path class="cls-6" d="M404.94,71.29c-3.39,21.45-6.35,43-9.12,64.57s-5.27,43.16-7.53,64.78c-4.51,43.25-8.07,86.59-10.28,130s-3.09,86.88-1.63,130.27q1,32.55,4.38,64.92A545.58,545.58,0,0,0,391,589.89h0a2.8,2.8,0,0,1-5.45,1.25h0a549.49,549.49,0,0,1-10-64.78q-3.24-32.58-4-65.3c-1.2-43.58,0-87.16,2.44-130.64s6.31-86.85,11.1-130.12q3.58-32.45,7.93-64.8c2.91-21.57,6-43.11,9.54-64.6a1.18,1.18,0,0,1,1.36-1,1.19,1.19,0,0,1,1,1.36Z" transform="translate(-135.64)"/></g><g class="cls-17"><path class="cls-18" d="M200.16,265.23C182.33,337.53,95.74,762.5,479.93,915.4c0,0,129-265.1-269.26-653.19A6.31,6.31,0,0,0,200.16,265.23Z" transform="translate(-135.64)"/><path class="cls-6" d="M231.16,334c2.8,24.83,6.65,49.59,11,74.23s9.31,49.18,14.86,73.58A1327,1327,0,0,0,298.13,626c16.6,47.15,36.26,93.32,60.72,136.88,6.08,10.9,12.57,21.57,19.33,32.05s13.88,20.73,21.4,30.67a402.24,402.24,0,0,0,50,55.36l0,0a2.41,2.41,0,1,1-3.26,3.56h0A407.27,407.27,0,0,1,396,828.33q-11.31-15.11-21.44-31c-6.76-10.59-13.25-21.37-19.31-32.37-24.42-43.94-43.93-90.39-60.37-137.76a1331.55,1331.55,0,0,1-40.55-144.8q-8.18-36.69-14.54-73.77c-4.23-24.71-8-49.48-10.67-74.44a1,1,0,0,1,2-.22Z" transform="translate(-135.64)"/></g><path class="cls-19" d="M1442.8,861.6c0,11.2-8.42,20.36-18.72,20.36h-1012c-10.3,0-18.72-9.16-18.72-20.36l-8.42-633.32c0-11.2,12.12-33.06,34.32-31.42L1408.3,169a45.24,45.24,0,0,1,34.55,15,53.8,53.8,0,0,1,13.85,37.55Z" transform="translate(-135.64)"/><path class="cls-20" d="M1424.32,842.07c0,10.6-8,19.28-17.7,19.28H436.47c-9.73,0-17.7-8.68-17.7-19.28l-7.95-574.94c.94-34.59,28.79-47,45.68-46.29l947.91-27.7a31.76,31.76,0,0,1,24.28,10.52,37.84,37.84,0,0,1,9.73,26.42Z" transform="translate(-135.64)"/><path class="cls-21" d="M429.25,567.44a1.33,1.33,0,0,1-1.33-1.31l-.63-46.63a1.34,1.34,0,0,1,2.67,0l.63,46.63a1.33,1.33,0,0,1-1.32,1.35Z" transform="translate(-135.64)"/><path class="cls-21" d="M427.71,453.18a1.33,1.33,0,0,1-1.33-1.31L424,273.29c0-12.45,3.75-22.25,11-29.16,12-11.47,29.82-10.86,30.57-10.83l302.71-8.85a1.31,1.31,0,0,1,1.37,1.29,1.34,1.34,0,0,1-1.29,1.38L465.51,236c-.81,0-17.52-.59-28.72,10.1-6.69,6.39-10.1,15.55-10.15,27.22l2.41,178.55a1.34,1.34,0,0,1-1.32,1.35Z" transform="translate(-135.64)"/><path class="cls-22" d="M461.51,810.17c1-47.51.64-468.31-1.87-504.65s49.47-43.16,129.27-47.25S1342,238,1359.33,236.46c39-3.44,47,60,43.13,197.68-2.92,103.44-7.78,273.85-10,352.22-.67,23.33-18.18,41.85-39.62,41.91-162,.49-783,2.42-824.33,3.77C480.92,833.58,461.11,829,461.51,810.17Z" transform="translate(-135.64)"/><path class="cls-23" d="M203.64,878.89H1381.75a7.5,7.5,0,0,1,7.5,7.5V927a7.51,7.51,0,0,1-7.51,7.51H203.64a7.51,7.51,0,0,1-7.51-7.51V886.39a7.51,7.51,0,0,1,7.51-7.51Z"/><path class="cls-24" d="M1271,165.13,1248.2,215s12.61,83.26,100.32,115.71S1475.26,321,1475.26,321l27.92-73.45Z" transform="translate(-135.64)"/><path class="cls-25" d="M1414.36,96.14l-183.49,35c-9.45,1.8-13.12,13.57-6.41,20.54,32.77,34,107.07,113,133.93,157.44a11.9,11.9,0,0,0,13.81,5.22l187.83-60a12.29,12.29,0,0,0,5.12-20.07c-32.37-34.48-114.87-120.93-142.76-136.77A11.78,11.78,0,0,0,1414.36,96.14Z" transform="translate(-135.64)"/><path class="cls-26" d="M1402.19,189.76s90,69.66,96.07,84.28-14.2,76.84-14.2,76.84c10.28,55.1,7.36,113.68-20.71,142,0,0-25-73.48-8.45-102S1478,350.52,1478,350.52s18.2-66.63,15.19-76.65C1493.16,273.87,1393.75,192.91,1402.19,189.76Z" transform="translate(-135.64)"/><path class="cls-21" d="M1253.32,150.32,1336.68,250,1357.52,275l5.21,6.24,2.6,3.11a19.27,19.27,0,0,0,2.74,2.68,17.17,17.17,0,0,0,14.43,3.18l63.12-15.43a.82.82,0,1,1,.4,1.6l-63,15.85a19.3,19.3,0,0,1-16.27-3.47,21.72,21.72,0,0,1-3.08-3l-2.63-3.1-5.25-6.2-21-24.79-84-99.15a1.7,1.7,0,0,1,2.59-2.2Z" transform="translate(-135.64)"/><path class="cls-21" d="M1474.08,382.74l-.21.19-.24.24-.49.49-.93,1.07c-.62.72-1.17,1.52-1.76,2.28l-1.59,2.44c-.5.84-1,1.71-1.43,2.56a25.92,25.92,0,0,0-1.31,2.64c-.4.9-.84,1.78-1.21,2.69l-1,2.77c-.33.93-.71,1.84-1,2.81l-.82,2.85a28.32,28.32,0,0,0-.75,2.88c-.39,1.94-.83,3.88-1.2,5.84l-.8,5.92c-.06.49-.14,1-.18,1.48l-.1,1.49-.19,3c-.38,4-.18,8-.21,12a30,30,0,0,0,.12,3l.2,3c.15,2,.25,4,.43,6,.52,4,1,8,1.57,11.94l2.2,11.86v0a.59.59,0,0,1-.47.69.61.61,0,0,1-.69-.46l-2.49-11.87c-.69-4-1.23-8-1.86-12-.22-2-.37-4-.56-6.05l-.28-3c-.09-1-.19-2-.19-3-.07-4.06-.35-8.12-.06-12.18l.12-3.05.07-1.52c0-.51.1-1,.15-1.52l.68-6.08c.33-2,.73-4,1.1-6a30.18,30.18,0,0,1,.7-3l.79-3a30.19,30.19,0,0,1,.93-2.93l1-2.92c.36-1,.8-1.9,1.2-2.85a28.69,28.69,0,0,1,1.31-2.81c.49-.92.95-1.85,1.46-2.75l1.65-2.66c.62-.85,1.2-1.72,1.87-2.55l1-1.23.56-.6.29-.3.35-.32a1.69,1.69,0,0,1,2.32,2.46l0,0Z" transform="translate(-135.64)"/><path class="cls-21" d="M1474.71,408.13l-.34,3.85-.34,4.27-.63,8.56-1.2,17.13-2.29,34.28a.92.92,0,0,1-1.84-.1l1.52-34.33.81-17.16.44-8.59.24-4.3.14-2.16.08-1.09c0-.45.12-1,.2-1.45a1.65,1.65,0,0,1,3.27.42Z" transform="translate(-135.64)"/><rect class="cls-27" x="1391.4" y="970.43" width="8.45" height="91.43"/><path class="cls-28" d="M1361,1058.11h69.27a2.39,2.39,0,0,1,2.39,2.39v3.11a0,0,0,0,1,0,0h-74a0,0,0,0,1,0,0v-3.11A2.39,2.39,0,0,1,1361,1058.11Z"/><rect class="cls-29" x="1350.54" y="949.94" width="93.1" height="26.4" rx="9.09"/><path class="cls-30" d="M1468.85,909.47s-12.57,1.94-26.69,11.39a7,7,0,0,0-3.11,6.72c1.69,13.4,8.65,56.76,31.58,99.11a10.64,10.64,0,0,1,1,7.32l-4,18.54-7.39,6.93h19l12.67-34.29-5.42-1.71a10.27,10.27,0,0,1-7.16-9.6l-.63-36.78c.54-16.39-10-27.7-10-27.7l30.39-1.48Z" transform="translate(-135.64)"/><path class="cls-31" d="M1452.85,1062.82c-1.73,2.27,18.65,5.26,29,.3,0,0,14.28-24.84,14.28-37.63,0,0-1.13-2.61-9.52-2,0,0-4.79,29.41-9.85,32.7s-14.16.34-14.16.34S1455.41,1059.48,1452.85,1062.82Z" transform="translate(-135.64)"/><path class="cls-32" d="M1495.27,949.94c-.17-.28-32.72-3.91-32.72-3.91s1.06,9.9-2.27,23.52-51.13,72.68-51.13,72.68l5,15.88c-15.5,5.4-30.74,6.27-45.74,2.76l31.06-18.64s29.07-99.08,46.88-116.75L1479,914.19Z" transform="translate(-135.64)"/><path class="cls-33" d="M1568.28,892.3s18.76,27.9,20.3,40.62-5.14,17.9-24.82,18.76-72.23.83-72.23.83l-44.84-38.32s32.68-11.66,41.18-15S1568.28,892.3,1568.28,892.3Z" transform="translate(-135.64)"/><path class="cls-34" d="M1412.26,1052.76s5.4,5.23,1.76,11c0,0-42.75,7.57-54.36,4.14,0,0,2.41-5.51,15.48-11.77l-1,.74a1.56,1.56,0,0,0,1,2.8C1383.82,1059.23,1401.64,1057.66,1412.26,1052.76Z" transform="translate(-135.64)"/><path class="cls-35" d="M1517.55,888.6S1495.71,867.8,1485,854a29.19,29.19,0,0,1-5-26.3c4.91-16.54,13.63-33.67,14.43-36.34,1.21-4.09,25.71-3.92,25.71-3.92s48.2,31.28,67.13,84.27L1566,878.35s-12.59-21.11-25-34.53c0,0,21.51,28.42,22.27,40.06Z" transform="translate(-135.64)"/><path class="cls-36" d="M1491.47,768.54c.26.85,6.65,22,7.15,22.48s14,1.17,20.39-3.18l-10.8-22.6Z" transform="translate(-135.64)"/><path class="cls-37" d="M1502,724s-11.54,4.87-19.38,21.55S1480.6,770,1488,771s18.37.9,30-9.88S1517,718.25,1502,724Z" transform="translate(-135.64)"/><path class="cls-38" d="M1510.15,752.23s8.7-24.4-12.93-24.69l-5.09,3.56s-7.94-13.53,5.09-20,32.47-.7,38,16.85,2.3,28.88-6.92,37.28-13-1.12-13-1.12,5-7.86,3-12.06-6.76.87-6.76.87Z" transform="translate(-135.64)"/><path class="cls-39" d="M1512.57,755s4.4-12.57,10.28-7.57-4.78,11.61-8.94,13.75Z" transform="translate(-135.64)"/><path class="cls-40" d="M1473.05,890.15l16-15.47,22.2,9.38s22.1,3.42,34.75,0l12.65-3.43,28.58-8.9,4.49,12.69a7.64,7.64,0,0,1-2.79,8.78,50,50,0,0,1-7.22,4.49c-3.76,1.65-92.79-1.14-92.79-1.14Z" transform="translate(-135.64)"/><path class="cls-41" d="M1533.54,730.71a5,5,0,0,1,3-8.26c12.68-2,32,0,40.14,27.19,9.15,30.58,15.1,45.87,21.21,48.55a5,5,0,0,1,.28,9.13c-3,1.33-7.19,1.8-13.25.47C1538.14,797.51,1549.85,747.37,1533.54,730.71Z" transform="translate(-135.64)"/><path class="cls-42" d="M1533.79,897.44h-.22l-93.1-.1a4.17,4.17,0,0,1,0-8.33l93.1.1a4.17,4.17,0,0,1,.21,8.33Z" transform="translate(-135.64)"/><path class="cls-43" d="M1356.78,812.91h77.53a14.79,14.79,0,0,1,13.37,8.47l35.84,76h-96.35a9,9,0,0,1-8.35-5.68L1351,821.38A6.19,6.19,0,0,1,1356.78,812.91Z" transform="translate(-135.64)"/><path class="cls-44" d="M1411.4,851.88c1.68,5.22.44,10.29-2.77,11.32s-7.18-2.36-8.86-7.58-.44-10.29,2.78-11.32S1409.72,846.66,1411.4,851.88Z" transform="translate(-135.64)"/><path class="cls-45" d="M1663.91,900.84a3.43,3.43,0,0,0-.8-3,4,4,0,0,0-3-1.31H1271.63a4.47,4.47,0,0,0-3.72,1.92,3.91,3.91,0,0,0-.29,4l4.21,8.54a5.92,5.92,0,0,0,5.35,3.21h380.3a4.41,4.41,0,0,0,4.38-3.39Z" transform="translate(-135.64)"/><path class="cls-46" d="M1293.41,1080.86a3.4,3.4,0,0,1-1.35-.28,3.51,3.51,0,0,1-1.78-4.58l71.5-170.08a3.38,3.38,0,0,1,4.48-1.82,3.52,3.52,0,0,1,1.79,4.58l-71.51,170.07A3.4,3.4,0,0,1,1293.41,1080.86Z" transform="translate(-135.64)"/><path class="cls-47" d="M1374,1080.86a3.4,3.4,0,0,1-3.13-2.11l-71.51-170.07a3.52,3.52,0,0,1,1.79-4.58,3.37,3.37,0,0,1,4.48,1.82l71.5,170.08a3.51,3.51,0,0,1-1.78,4.58A3.4,3.4,0,0,1,1374,1080.86Z" transform="translate(-135.64)"/><path class="cls-48" d="M1575,1080.86a3.4,3.4,0,0,1-1.35-.28,3.51,3.51,0,0,1-1.78-4.58l71.5-170.08a3.38,3.38,0,0,1,4.48-1.82,3.51,3.51,0,0,1,1.78,4.58l-71.5,170.07A3.41,3.41,0,0,1,1575,1080.86Z" transform="translate(-135.64)"/><path class="cls-49" d="M1655.54,1080.86a3.42,3.42,0,0,1-3.14-2.11l-71.5-170.07a3.52,3.52,0,0,1,1.78-4.58,3.37,3.37,0,0,1,4.48,1.82L1658.67,1076a3.52,3.52,0,0,1-1.79,4.58A3.32,3.32,0,0,1,1655.54,1080.86Z" transform="translate(-135.64)"/><path class="cls-50" d="M876,718.44v-209h36.59v209Z" transform="translate(-135.64)"/><path class="cls-51" d="M1021,718.44H982.23V543.64h-40V509.48H1061v34.16h-40Z" transform="translate(-135.64)"/><g class="cls-52"><path class="cls-21" d="M500.58,621.78a3.2,3.2,0,0,1-3.07-2.3q-.74-2.51-1.4-5a3.21,3.21,0,1,1,6.2-1.63c.42,1.63.87,3.24,1.34,4.85a3.2,3.2,0,0,1-2.17,4A3.11,3.11,0,0,1,500.58,621.78Z" transform="translate(-135.64)"/><path class="cls-21" d="M495.68,600.21a3.2,3.2,0,0,1-3.15-2.69c-.57-3.5-1-7-1.4-10.57a3.21,3.21,0,1,1,6.38-.64c.34,3.39.8,6.81,1.34,10.18a3.21,3.21,0,0,1-2.65,3.68A3,3,0,0,1,495.68,600.21Zm-2.27-27.35a3.22,3.22,0,0,1-3.21-3.19v-1.16c0-3.13.08-6.32.24-9.49a3.2,3.2,0,0,1,6.4.33c-.15,3.06-.23,6.14-.23,9.16v1.12a3.21,3.21,0,0,1-3.18,3.23Zm1.91-27.38a2.49,2.49,0,0,1-.47,0,3.2,3.2,0,0,1-2.71-3.63c.52-3.51,1.14-7,1.86-10.49a3.2,3.2,0,1,1,6.27,1.3c-.69,3.33-1.29,6.74-1.79,10.12A3.2,3.2,0,0,1,495.32,545.48Zm6.05-26.76a3.14,3.14,0,0,1-.95-.15,3.21,3.21,0,0,1-2.12-4c1.05-3.37,2.21-6.76,3.45-10.07a3.2,3.2,0,1,1,6,2.24c-1.2,3.2-2.32,6.48-3.32,9.73A3.22,3.22,0,0,1,501.37,518.72Zm10.1-25.52a3.18,3.18,0,0,1-1.4-.32,3.22,3.22,0,0,1-1.48-4.29c1.56-3.18,3.23-6.35,5-9.44a3.2,3.2,0,0,1,5.58,3.15c-1.68,3-3.29,6-4.79,9.11A3.2,3.2,0,0,1,511.47,493.2Zm13.94-23.66a3.21,3.21,0,0,1-2.63-5c2-2.9,4.17-5.78,6.36-8.55a3.2,3.2,0,1,1,5,4c-2.11,2.67-4.17,5.45-6.12,8.25A3.22,3.22,0,0,1,525.41,469.54ZM542.8,448.3a3.19,3.19,0,0,1-2.31-5.41c2.44-2.56,5-5.08,7.58-7.49a3.21,3.21,0,0,1,4.37,4.7c-2.5,2.32-5,4.75-7.32,7.21A3.19,3.19,0,0,1,542.8,448.3ZM563.24,430a3.21,3.21,0,0,1-2-5.75c2.81-2.15,5.71-4.25,8.63-6.23a3.2,3.2,0,1,1,3.6,5.3c-2.82,1.91-5.62,3.94-8.32,6A3.25,3.25,0,0,1,563.24,430Zm23-15a3.2,3.2,0,0,1-1.54-6c3.09-1.7,6.28-3.33,9.47-4.84a3.2,3.2,0,0,1,2.75,5.79c-3.08,1.46-6.16,3-9.14,4.67A3.18,3.18,0,0,1,586.22,415Zm168.31-1.56a3.22,3.22,0,0,1-1.49-.37c-3-1.58-6.13-3.09-9.24-4.49a3.21,3.21,0,0,1,2.64-5.85c3.22,1.46,6.45,3,9.58,4.67a3.2,3.2,0,0,1-1.49,6Zm-143.31-9.73a3.2,3.2,0,0,1-1.09-6.22c3.32-1.2,6.72-2.31,10.1-3.32a3.21,3.21,0,0,1,1.82,6.15c-3.26,1-6.54,2-9.74,3.2A3.21,3.21,0,0,1,611.22,403.69Zm118.08-1.08a3.37,3.37,0,0,1-1-.17c-3.23-1.1-6.54-2.12-9.83-3a3.2,3.2,0,0,1,1.7-6.18c3.41.94,6.84,2,10.19,3.13a3.21,3.21,0,0,1-1,6.24Zm-91.65-6.22A3.2,3.2,0,0,1,637,390c3.47-.68,7-1.25,10.51-1.72a3.2,3.2,0,1,1,.85,6.35c-3.38.45-6.79,1-10.14,1.66A3.23,3.23,0,0,1,637.65,396.39Zm65.05-.57a3.51,3.51,0,0,1-.55-.05c-3.36-.59-6.78-1.08-10.17-1.47a3.21,3.21,0,0,1,.73-6.37c3.51.4,7.06.92,10.54,1.52a3.21,3.21,0,0,1-.55,6.37Zm-37.79-2.57a3.2,3.2,0,0,1-.12-6.4c3.52-.14,7.09-.17,10.65-.09a3.21,3.21,0,1,1-.13,6.41c-3.44-.08-6.88-.05-10.28.08Z" transform="translate(-135.64)"/><path class="cls-21" d="M773.55,425a3.18,3.18,0,0,1-1.83-.58q-2.07-1.42-4.17-2.81a3.2,3.2,0,0,1,3.5-5.36q2.19,1.43,4.33,2.91a3.21,3.21,0,0,1-1.83,5.84Z" transform="translate(-135.64)"/></g><g class="cls-52"><path class="cls-21" d="M847.61,541a3.22,3.22,0,0,1-3.16-2.66c-.28-1.66-.59-3.31-.92-5a3.2,3.2,0,0,1,6.28-1.27q.51,2.55,1,5.13a3.21,3.21,0,0,1-2.61,3.7A3.51,3.51,0,0,1,847.61,541Z" transform="translate(-135.64)"/><path class="cls-21" d="M668.67,749.91h-.06c-3.1-.06-6.24-.2-9.33-.41l-1.14-.08a3.2,3.2,0,1,1,.48-6.39l1.1.08c3,.2,6,.34,9,.39a3.21,3.21,0,0,1-.06,6.41Zm16.72-.47a3.2,3.2,0,0,1-.24-6.4c3.35-.25,6.74-.61,10.06-1a3.2,3.2,0,1,1,.85,6.35c-3.45.46-7,.83-10.43,1.09Zm-43.62-2a2.59,2.59,0,0,1-.54,0c-3.44-.58-6.9-1.27-10.28-2.05a3.2,3.2,0,1,1,1.43-6.24c3.27.75,6.61,1.41,9.93,2a3.2,3.2,0,0,1-.54,6.36Zm70.32-2a3.21,3.21,0,0,1-.72-6.33c3.27-.76,6.56-1.62,9.78-2.56a3.2,3.2,0,0,1,1.8,6.14c-3.33,1-6.75,1.88-10.14,2.66A3,3,0,0,1,712.09,745.38Zm-96.54-4.5a3.18,3.18,0,0,1-1-.17c-3.31-1.09-6.63-2.3-9.86-3.58a3.21,3.21,0,0,1,2.37-6c3.12,1.24,6.31,2.4,9.5,3.46a3.21,3.21,0,0,1-1,6.25Zm122.31-3.58a3.2,3.2,0,0,1-1.19-6.18c3.11-1.24,6.23-2.59,9.27-4a3.2,3.2,0,1,1,2.71,5.8c-3.14,1.47-6.38,2.87-9.6,4.16A3.11,3.11,0,0,1,737.86,737.3Zm-147.23-6.85a3.29,3.29,0,0,1-1.45-.35c-3.1-1.59-6.2-3.29-9.2-5.05a3.2,3.2,0,1,1,3.25-5.52c2.89,1.69,5.87,3.33,8.87,4.86a3.21,3.21,0,0,1-1.47,6.06Zm171.47-5a3.21,3.21,0,0,1-1.63-6c2.9-1.7,5.78-3.51,8.57-5.37a3.2,3.2,0,0,1,3.56,5.33c-2.89,1.93-5.88,3.8-8.88,5.57A3.19,3.19,0,0,1,762.1,725.42ZM784.28,710a3.21,3.21,0,0,1-2-5.7c2.6-2.11,5.18-4.33,7.66-6.6a3.21,3.21,0,0,1,4.32,4.74c-2.57,2.34-5.24,4.64-7.94,6.84A3.22,3.22,0,0,1,784.28,710Zm19.62-18.57a3.2,3.2,0,0,1-2.37-5.36c2.26-2.48,4.47-5.06,6.59-7.67a3.2,3.2,0,1,1,5,4c-2.19,2.71-4.49,5.38-6.83,8A3.2,3.2,0,0,1,803.9,691.45Zm16.61-21.3a3.2,3.2,0,0,1-2.67-5c1.86-2.79,3.66-5.68,5.35-8.58a3.21,3.21,0,1,1,5.54,3.23c-1.76,3-3.63,6-5.55,8.9A3.21,3.21,0,0,1,820.51,670.15Zm13.2-23.57a3.27,3.27,0,0,1-1.35-.3A3.21,3.21,0,0,1,830.8,642c1.42-3,2.76-6.18,4-9.31a3.2,3.2,0,1,1,6,2.35c-1.28,3.25-2.67,6.49-4.13,9.65A3.22,3.22,0,0,1,833.71,646.58Zm9.46-25.31a3.09,3.09,0,0,1-.89-.13,3.21,3.21,0,0,1-2.19-4c.94-3.22,1.79-6.52,2.53-9.79a3.2,3.2,0,0,1,6.25,1.42c-.77,3.4-1.65,6.81-2.62,10.15A3.2,3.2,0,0,1,843.17,621.27Zm5.52-26.44-.42,0a3.2,3.2,0,0,1-2.76-3.6c.43-3.32.78-6.71,1-10.06a3.2,3.2,0,0,1,6.39.47c-.25,3.47-.61,7-1.06,10.42A3.2,3.2,0,0,1,848.69,594.83Zm1.49-27a3.21,3.21,0,0,1-3.2-3.15c-.07-3.35-.23-6.75-.49-10.1a3.2,3.2,0,0,1,6.39-.49c.27,3.47.44,7,.5,10.47a3.19,3.19,0,0,1-3.14,3.26Z" transform="translate(-135.64)"/><path class="cls-21" d="M567.5,716.29a3.21,3.21,0,0,1-1.88-.6q-2.11-1.53-4.18-3.12a3.2,3.2,0,1,1,3.9-5.08q2,1.53,4,3a3.2,3.2,0,0,1-1.88,5.8Z" transform="translate(-135.64)"/></g><path class="cls-53" d="M575.47,665.81a2.13,2.13,0,0,0,2.4.65l24.46-9a113.42,113.42,0,0,0,32.38,17.44l6,25.35a2.14,2.14,0,0,0,1.87,1.64l31.1,3.15a2.13,2.13,0,0,0,2.15-1.23l10.93-23.64A113.7,113.7,0,0,0,722,669.59l22.16,13.71a2.14,2.14,0,0,0,2.48-.16l24.22-19.76a2.15,2.15,0,0,0,.66-2.4l-9-24.46a113.42,113.42,0,0,0,17.44-32.38l25.35-6a2.14,2.14,0,0,0,1.64-1.86l3.15-31.1a2.12,2.12,0,0,0-1.23-2.16l-23.64-10.93a113.43,113.43,0,0,0-10.59-35.22l13.72-22.16a2.15,2.15,0,0,0-.16-2.48L768.38,468a2.14,2.14,0,0,0-2.39-.66l-24.46,9a113.48,113.48,0,0,0-32.39-17.44l-6-25.35a2.14,2.14,0,0,0-1.87-1.64l-31.1-3.15a2.12,2.12,0,0,0-2.16,1.23l-10.93,23.64a113.51,113.51,0,0,0-35.22,10.59l-22.16-13.72a2.15,2.15,0,0,0-2.48.16L573,470.47a2.15,2.15,0,0,0-.65,2.4l9,24.45a113.72,113.72,0,0,0-17.44,32.39l-25.35,6a2.14,2.14,0,0,0-1.64,1.87l-3.15,31.1A2.14,2.14,0,0,0,535,570.8l23.64,10.93A113.78,113.78,0,0,0,569.26,617l-13.71,22.16a2.14,2.14,0,0,0,.16,2.48Z" transform="translate(-135.64)"/><path class="cls-21" d="M671.86,597.25a30.35,30.35,0,1,1,4.49-.33A30.94,30.94,0,0,1,671.86,597.25Zm.08-55.52a25.52,25.52,0,0,0-3.68.27,25.18,25.18,0,1,0,3.68-.27Z" transform="translate(-135.64)"/><path class="cls-21" d="M672.46,643.18a75.65,75.65,0,0,1-7.78-.4,78.08,78.08,0,0,1-11.49-2l-.09,0-.49-.13h-.07l-.06,0-.24-.07h0l-.09,0h0l-.72-.2-.25-.07-1.54-.46-.88-.28a1.29,1.29,0,0,1-.89-1.22,1.07,1.07,0,0,1,.07-.39,1.27,1.27,0,0,1,1.61-.83,74.16,74.16,0,1,0-50.84-78,73,73,0,0,0-.38,7.52,74,74,0,0,0,7,31.42,1.16,1.16,0,0,1,.13.54,1.29,1.29,0,0,1-2.45.55,76.61,76.61,0,0,1-7.23-32.51,72.38,72.38,0,0,1,.39-7.78,76.71,76.71,0,1,1,76.37,84.45Z" transform="translate(-135.64)"/><path class="cls-54" d="M856.48,412l13.26-6.11a63.77,63.77,0,0,0,18.86,8.3l4.46,13.89a1.21,1.21,0,0,0,1.12.84l17.51.37a1.19,1.19,0,0,0,1.15-.78l5-13.69a63.45,63.45,0,0,0,19.2-7.48l13,6.68a1.22,1.22,0,0,0,1.38-.2l12.65-12.11a1.21,1.21,0,0,0,.26-1.37l-6.11-13.26a63.71,63.71,0,0,0,8.3-18.87l13.89-4.45a1.22,1.22,0,0,0,.84-1.12l.37-17.51a1.2,1.2,0,0,0-.78-1.15L967.19,339a63.51,63.51,0,0,0-7.48-19.21l6.68-13a1.21,1.21,0,0,0-.2-1.38l-12.12-12.65a1.19,1.19,0,0,0-1.36-.26l-13.27,6.11a63.54,63.54,0,0,0-18.86-8.3l-4.45-13.9a1.22,1.22,0,0,0-1.12-.83l-17.51-.38a1.21,1.21,0,0,0-1.15.79l-5.06,13.69a63.56,63.56,0,0,0-19.2,7.48l-13-6.68a1.18,1.18,0,0,0-1.38.2l-12.65,12.11a1.21,1.21,0,0,0-.26,1.37l6.11,13.26a63.77,63.77,0,0,0-8.3,18.86l-13.9,4.46a1.22,1.22,0,0,0-.83,1.12l-.38,17.51a1.21,1.21,0,0,0,.79,1.15L842,365.55a63.71,63.71,0,0,0,7.48,19.2l-6.67,13a1.18,1.18,0,0,0,.2,1.38l12.11,12.65A1.21,1.21,0,0,0,856.48,412Z" transform="translate(-135.64)"/><path class="cls-12" d="M904.56,369.09a16.85,16.85,0,1,1,3.8-.43A17,17,0,0,1,904.56,369.09Zm0-31.11a14.34,14.34,0,0,0-12.09,6.7,14.27,14.27,0,1,0,12.09-6.7Z" transform="translate(-135.64)"/><g class="cls-52"><path class="cls-21" d="M826.05,406.94a3.21,3.21,0,0,1-2.69-1.45c-1-1.47-1.89-3-2.78-4.51a3.2,3.2,0,0,1,5.54-3.22c.83,1.43,1.71,2.85,2.6,4.22a3.2,3.2,0,0,1-.92,4.43A3.15,3.15,0,0,1,826.05,406.94Z" transform="translate(-135.64)"/><path class="cls-21" d="M816.6,388.23a3.22,3.22,0,0,1-3-2.09,96,96,0,0,1-3-9.63,3.2,3.2,0,0,1,6.2-1.6,91.25,91.25,0,0,0,2.82,9,3.2,3.2,0,0,1-1.89,4.12A3.1,3.1,0,0,1,816.6,388.23ZM811,363.29a3.22,3.22,0,0,1-3.19-2.94c-.23-2.7-.34-5.46-.34-8.18,0-.64,0-1.28,0-1.91a3.16,3.16,0,0,1,3.27-3.14,3.2,3.2,0,0,1,3.13,3.27c0,.59,0,1.19,0,1.78,0,2.54.11,5.11.32,7.64a3.2,3.2,0,0,1-2.92,3.46Zm1.36-25.52a3.08,3.08,0,0,1-.61-.06,3.2,3.2,0,0,1-2.54-3.75,94.24,94.24,0,0,1,2.42-9.81,3.2,3.2,0,0,1,6.13,1.86,90,90,0,0,0-2.26,9.16A3.21,3.21,0,0,1,812.37,337.77Zm8.2-24.21a3.16,3.16,0,0,1-1.43-.34,3.2,3.2,0,0,1-1.44-4.3,98.46,98.46,0,0,1,5-8.78,3.21,3.21,0,1,1,5.41,3.44c-1.68,2.64-3.24,5.4-4.65,8.2A3.19,3.19,0,0,1,820.57,313.56ZM835,292.45a3.16,3.16,0,0,1-2.15-.83,3.2,3.2,0,0,1-.23-4.52,96.06,96.06,0,0,1,7.14-7.13,3.21,3.21,0,1,1,4.29,4.77,93.13,93.13,0,0,0-6.68,6.65A3.19,3.19,0,0,1,835,292.45ZM854.53,276a3.21,3.21,0,0,1-1.71-5.92,97.3,97.3,0,0,1,8.82-4.92,3.2,3.2,0,0,1,2.82,5.75,89.36,89.36,0,0,0-8.22,4.6A3.22,3.22,0,0,1,854.53,276Zm23.28-10.53a3.21,3.21,0,0,1-.91-6.28c2-.58,4-1.11,6-1.57,1.28-.29,2.56-.56,3.84-.8a3.2,3.2,0,1,1,1.18,6.3c-1.19.22-2.39.47-3.59.75-1.87.43-3.75.92-5.58,1.46A3.19,3.19,0,0,1,877.81,265.47Zm35-3.56-.28,0a92.56,92.56,0,0,0-9.42-.33,3.17,3.17,0,0,1-3.26-3.15,3.21,3.21,0,0,1,3.15-3.26,97.11,97.11,0,0,1,10.09.36,3.21,3.21,0,0,1-.28,6.4Z" transform="translate(-135.64)"/><path class="cls-21" d="M933.42,266.09a3.11,3.11,0,0,1-1-.16c-1.56-.5-3.16-1-4.74-1.39a3.21,3.21,0,0,1,1.63-6.2c1.7.45,3.41,1,5.09,1.5a3.2,3.2,0,0,1-1,6.25Z" transform="translate(-135.64)"/></g><g class="cls-52"><path class="cls-21" d="M989.52,315.38a3.21,3.21,0,0,1-2.9-1.84c-.7-1.49-1.45-3-2.23-4.42a3.21,3.21,0,0,1,5.64-3.05c.83,1.55,1.64,3.14,2.39,4.74a3.2,3.2,0,0,1-1.54,4.26A3.14,3.14,0,0,1,989.52,315.38Z" transform="translate(-135.64)"/><path class="cls-21" d="M904.55,449.37a97.59,97.59,0,0,1-11.11-.64,3.21,3.21,0,0,1,.73-6.37,89.36,89.36,0,0,0,10.34.6h.14a3.21,3.21,0,0,1,0,6.41Zm17.65-1.69a3.2,3.2,0,0,1-.6-6.35c1.1-.21,2.19-.44,3.28-.69,2.33-.53,4.65-1.16,6.91-1.87a3.21,3.21,0,0,1,1.91,6.12c-2.42.75-4.9,1.43-7.38,2-1.17.27-2.34.51-3.51.74A4.18,4.18,0,0,1,922.2,447.68ZM949,438.21a3.21,3.21,0,0,1-1.52-6,90,90,0,0,0,8.94-5.49,3.2,3.2,0,1,1,3.66,5.26,95.89,95.89,0,0,1-9.57,5.88A3.16,3.16,0,0,1,949,438.21Zm22.7-17.08a3.2,3.2,0,0,1-2.29-5.44,92.49,92.49,0,0,0,6.88-7.92,3.2,3.2,0,0,1,5.07,3.92,95.86,95.86,0,0,1-7.37,8.48A3.2,3.2,0,0,1,971.71,421.13ZM988.27,398a3.16,3.16,0,0,1-1.45-.35,3.2,3.2,0,0,1-1.4-4.31,93.28,93.28,0,0,0,4.22-9.61,3.2,3.2,0,1,1,6,2.23,98.05,98.05,0,0,1-4.51,10.29A3.21,3.21,0,0,1,988.27,398Zm8.94-27a3.27,3.27,0,0,1-.54,0,3.21,3.21,0,0,1-2.63-3.7,88.69,88.69,0,0,0,1.14-10.43,3.17,3.17,0,0,1,3.37-3,3.21,3.21,0,0,1,3,3.36,95.14,95.14,0,0,1-1.23,11.17A3.19,3.19,0,0,1,997.21,371.05Zm.39-28.42a3.21,3.21,0,0,1-3.17-2.76c-.36-2.64-.85-5.3-1.45-7.91-.19-.8-.38-1.6-.58-2.39a3.2,3.2,0,1,1,6.2-1.6c.22.85.43,1.7.62,2.56.65,2.79,1.17,5.63,1.56,8.46a3.2,3.2,0,0,1-2.73,3.61Z" transform="translate(-135.64)"/><path class="cls-21" d="M876.5,445.06a3.19,3.19,0,0,1-1-.14c-1.68-.53-3.36-1.11-5-1.73a3.2,3.2,0,0,1,2.25-6c1.54.58,3.12,1.12,4.68,1.61a3.2,3.2,0,0,1-1,6.26Z" transform="translate(-135.64)"/></g><path class="cls-12" d="M904.62,395.8h-1a44.14,44.14,0,0,1-9.19-1.18,1.29,1.29,0,0,1-1-1.25.92.92,0,0,1,0-.29,1.28,1.28,0,0,1,1.54-.95,41.15,41.15,0,0,0,8.66,1.1,41,41,0,0,0,41.85-40.08c0-.3,0-.6,0-.89a41,41,0,0,0-82-.88c0,.3,0,.59,0,.89A41,41,0,0,0,869,372.53a1.22,1.22,0,0,1,.17.63,1.28,1.28,0,0,1-2.39.64,43.42,43.42,0,0,1-5.7-21.54c0-.32,0-.63,0-.95a43.55,43.55,0,0,1,87.08.94c0,.31,0,.63,0,.94a43.56,43.56,0,0,1-43.51,42.61Z" transform="translate(-135.64)"/><g class="cls-52"><path class="cls-21" d="M1025.19,430.27a3.21,3.21,0,0,1-3.08-2.31c-.49-1.67-1-3.37-1.37-5.07a3.21,3.21,0,1,1,6.22-1.55c.4,1.62.84,3.24,1.3,4.82a3.2,3.2,0,0,1-2.17,4A3.16,3.16,0,0,1,1025.19,430.27Z" transform="translate(-135.64)"/><path class="cls-21" d="M1021,409a3.21,3.21,0,0,1-3.19-2.88c-.35-3.44-.56-6.95-.62-10.43a3.21,3.21,0,1,1,6.41-.11c0,3.29.25,6.62.59,9.89a3.2,3.2,0,0,1-2.86,3.51Zm.23-26.67-.38,0a3.2,3.2,0,0,1-2.8-3.56c.41-3.45,1-6.92,1.68-10.31a3.2,3.2,0,1,1,6.27,1.3c-.66,3.21-1.2,6.5-1.59,9.77A3.21,3.21,0,0,1,1021.24,382.36Zm6.1-26a3.15,3.15,0,0,1-1.08-.19,3.2,3.2,0,0,1-1.94-4.1c1.17-3.27,2.5-6.53,3.94-9.68a3.2,3.2,0,1,1,5.82,2.67c-1.36,3-2.62,6.07-3.72,9.17A3.22,3.22,0,0,1,1027.34,356.4Zm11.74-24a3.18,3.18,0,0,1-1.72-.5,3.22,3.22,0,0,1-1-4.43c1.87-2.93,3.89-5.81,6-8.56a3.21,3.21,0,1,1,5.09,3.9c-2,2.61-3.92,5.34-5.69,8.11A3.18,3.18,0,0,1,1039.08,332.44Zm16.78-20.74a3.2,3.2,0,0,1-2.25-5.48c2.46-2.44,5.07-4.8,7.74-7a3.21,3.21,0,0,1,4.1,4.93c-2.53,2.11-5,4.35-7.34,6.66A3.21,3.21,0,0,1,1055.86,311.7Zm20.94-16.52a3.2,3.2,0,0,1-1.7-5.92c3-1.84,6-3.57,9.1-5.14a3.21,3.21,0,0,1,2.92,5.71c-2.93,1.49-5.84,3.13-8.63,4.87A3.17,3.17,0,0,1,1076.8,295.18ZM1189,287.79a3.2,3.2,0,0,1-1.32-.28c-3-1.36-6.09-2.6-9.19-3.69a3.21,3.21,0,0,1,2.12-6.05c3.28,1.16,6.54,2.47,9.71,3.9a3.2,3.2,0,0,1-1.32,6.12Zm-88.15-4.08a3.2,3.2,0,0,1-1-6.23c3.28-1.13,6.65-2.14,10-3a3.2,3.2,0,0,1,1.57,6.21c-3.19.8-6.38,1.75-9.49,2.83A3.21,3.21,0,0,1,1100.86,283.71Zm62.76-4.11a3.55,3.55,0,0,1-.64-.06c-3.22-.65-6.51-1.17-9.79-1.55a3.21,3.21,0,0,1,.74-6.37c3.45.4,6.92.95,10.32,1.64a3.2,3.2,0,0,1-.63,6.34Zm-36.74-1.7a3.2,3.2,0,0,1-.34-6.39c3.44-.37,7-.6,10.43-.68h.07a3.21,3.21,0,0,1,.07,6.41c-3.3.08-6.62.29-9.88.64Z" transform="translate(-135.64)"/><path class="cls-21" d="M1207.9,298.52a3.21,3.21,0,0,1-1.82-.57c-1.36-.95-2.76-1.87-4.16-2.76a3.2,3.2,0,1,1,3.43-5.41c1.48.93,3,1.91,4.39,2.91a3.2,3.2,0,0,1-1.84,5.83Z" transform="translate(-135.64)"/></g><g class="cls-52"><path class="cls-21" d="M1257.75,377.85a3.2,3.2,0,0,1-3.16-2.7c-.26-1.65-.56-3.3-.88-4.91A3.2,3.2,0,1,1,1260,369c.34,1.7.66,3.44.93,5.18a3.19,3.19,0,0,1-2.66,3.66A2.92,2.92,0,0,1,1257.75,377.85Z" transform="translate(-135.64)"/><path class="cls-21" d="M1140,516.06c-1.36,0-2.78,0-4.17-.07a3.21,3.21,0,0,1,.1-6.41h.11c1.31.05,2.62.07,3.92.07h0c1.92,0,3.87,0,5.79-.15a3.2,3.2,0,0,1,.32,6.4C1144,516,1142,516.06,1140,516.06Zm-20.25-1.7a3.29,3.29,0,0,1-.54-.05c-3.37-.57-6.76-1.29-10.06-2.14a3.21,3.21,0,0,1,1.59-6.21c3.13.81,6.34,1.49,9.54,2a3.21,3.21,0,0,1-.53,6.37Zm42.34-.37a3.2,3.2,0,0,1-.59-6.35c3.18-.6,6.38-1.35,9.49-2.22a3.21,3.21,0,1,1,1.72,6.18c-3.29.91-6.66,1.7-10,2.33A3.05,3.05,0,0,1,1162.05,514Zm-67.59-6.84a3.05,3.05,0,0,1-1.21-.25c-3.17-1.29-6.31-2.74-9.35-4.3a3.2,3.2,0,1,1,2.93-5.7c2.88,1.48,5.85,2.85,8.85,4.08a3.2,3.2,0,0,1-1.22,6.17Zm92.67-.85a3.21,3.21,0,0,1-1.27-6.15c3-1.28,5.92-2.71,8.77-4.24a3.21,3.21,0,1,1,3,5.65c-3,1.62-6.12,3.12-9.25,4.48A3.4,3.4,0,0,1,1187.13,506.3Zm22.8-13a3.21,3.21,0,0,1-1.89-5.8c2.62-1.9,5.19-3.94,7.64-6.05a3.21,3.21,0,0,1,4.19,4.86c-2.59,2.22-5.3,4.37-8.06,6.38A3.22,3.22,0,0,1,1209.93,493.3Zm19.42-17.65a3.2,3.2,0,0,1-2.4-5.33c2.14-2.42,4.21-5,6.14-7.56a3.2,3.2,0,1,1,5.14,3.82c-2,2.74-4.22,5.43-6.48,8A3.22,3.22,0,0,1,1229.35,475.65Zm15.11-21.46a3.21,3.21,0,0,1-2.8-4.75c1.56-2.83,3-5.77,4.34-8.73a3.2,3.2,0,0,1,5.85,2.61c-1.39,3.12-2.93,6.22-4.58,9.21A3.2,3.2,0,0,1,1244.46,454.19Zm10-24.26a3,3,0,0,1-.89-.13,3.21,3.21,0,0,1-2.19-4c.9-3.1,1.67-6.28,2.31-9.46a3.2,3.2,0,0,1,6.28,1.26c-.67,3.35-1.49,6.71-2.43,10A3.21,3.21,0,0,1,1254.51,429.93Zm4.48-25.86h-.21a3.21,3.21,0,0,1-3-3.4c.15-2.44.23-4.92.23-7.35q0-1.2,0-2.4a3.21,3.21,0,0,1,3.14-3.27h.07a3.2,3.2,0,0,1,3.2,3.14c0,.84,0,1.69,0,2.53,0,2.57-.08,5.17-.25,7.75A3.19,3.19,0,0,1,1259,404.07Z" transform="translate(-135.64)"/><path class="cls-21" d="M1071.36,494.51a3.16,3.16,0,0,1-1.83-.57c-1.44-1-2.87-2.06-4.25-3.12a3.2,3.2,0,1,1,3.9-5.08c1.31,1,2.66,2,4,2.95a3.2,3.2,0,0,1-1.84,5.82Z" transform="translate(-135.64)"/></g><path class="cls-55" d="M1075.32,458.68a1.43,1.43,0,0,0,1.6.44l16.37-6A76,76,0,0,0,1115,464.77l4,17a1.44,1.44,0,0,0,1.25,1.1L1141,485a1.44,1.44,0,0,0,1.45-.83l7.31-15.82a75.85,75.85,0,0,0,23.58-7.09l14.83,9.18a1.43,1.43,0,0,0,1.66-.11l16.21-13.23a1.42,1.42,0,0,0,.44-1.6l-6-16.37a76,76,0,0,0,11.67-21.68l17-4a1.43,1.43,0,0,0,1.1-1.25l2.11-20.82a1.45,1.45,0,0,0-.82-1.45l-15.83-7.31A75.93,75.93,0,0,0,1208.6,359l9.18-14.83a1.43,1.43,0,0,0-.1-1.66l-13.23-16.21a1.43,1.43,0,0,0-1.61-.44l-16.37,6a75.82,75.82,0,0,0-21.68-11.67l-4-17a1.43,1.43,0,0,0-1.25-1.1L1138.73,300a1.42,1.42,0,0,0-1.44.83L1130,316.68a75.87,75.87,0,0,0-23.57,7.09l-14.84-9.18a1.43,1.43,0,0,0-1.66.11l-16.21,13.22a1.45,1.45,0,0,0-.44,1.61l6,16.37a76.2,76.2,0,0,0-11.67,21.68l-17,4a1.44,1.44,0,0,0-1.1,1.25l-2.11,20.82a1.44,1.44,0,0,0,.83,1.45l15.82,7.31a76.2,76.2,0,0,0,7.09,23.58L1062,440.81a1.43,1.43,0,0,0,.11,1.66Z" transform="translate(-135.64)"/><path class="cls-12" d="M1139.84,414.92a22.59,22.59,0,1,1,3.31-.25A21.79,21.79,0,0,1,1139.84,414.92Zm.07-37.17a16.11,16.11,0,0,0-2.18.16,14.74,14.74,0,1,0,4.3,29.16h0a14.74,14.74,0,0,0-2.12-29.32Z" transform="translate(-135.64)"/><path class="cls-12" d="M1140.24,444a51.57,51.57,0,0,1-5.25-.27h0a51.76,51.76,0,0,1-10.79-2.26,1.29,1.29,0,0,1-.89-1.22,1.39,1.39,0,0,1,.06-.4A1.28,1.28,0,0,1,1125,439a50.1,50.1,0,0,0,10.25,2.15,49.21,49.21,0,1,0-39.6-28.08,1.33,1.33,0,0,1,.12.55,1.28,1.28,0,0,1-2.44.54,51.5,51.5,0,0,1-4.89-21.93c0-1.75.09-3.51.26-5.26a51.77,51.77,0,1,1,51.55,57Z" transform="translate(-135.64)"/><g class="cls-52"><path class="cls-21" d="M702,414.56a1.29,1.29,0,0,1-1.23-.92c-.3-1.05-.58-2.12-.83-3.17a1.28,1.28,0,1,1,2.5-.58c.23,1,.5,2,.79,3a1.29,1.29,0,0,1-.86,1.6A1.64,1.64,0,0,1,702,414.56Z" transform="translate(-135.64)"/><path class="cls-21" d="M700.06,405.26a1.29,1.29,0,0,1-1.27-1.14,55.33,55.33,0,0,1-.38-6.43,1.27,1.27,0,0,1,1.27-1.28h0a1.28,1.28,0,0,1,1.28,1.27,55.16,55.16,0,0,0,.37,6.15,1.29,1.29,0,0,1-1.13,1.42Zm0-12.57h-.14a1.28,1.28,0,0,1-1.13-1.41,56.37,56.37,0,0,1,1-6.35,1.28,1.28,0,0,1,2.51.55,53.69,53.69,0,0,0-1,6.07A1.29,1.29,0,0,1,700,392.69Zm2.72-12.27a1.54,1.54,0,0,1-.42-.07,1.28,1.28,0,0,1-.8-1.63,59.24,59.24,0,0,1,2.43-6,1.28,1.28,0,1,1,2.32,1.1,54,54,0,0,0-2.32,5.7A1.29,1.29,0,0,1,702.73,380.42Zm5.38-11.37a1.3,1.3,0,0,1-.68-.19,1.28,1.28,0,0,1-.41-1.76,58.67,58.67,0,0,1,3.69-5.28,1.29,1.29,0,0,1,2,1.59,54.87,54.87,0,0,0-3.53,5A1.27,1.27,0,0,1,708.11,369.05Zm7.78-9.87A1.29,1.29,0,0,1,715,357a57.33,57.33,0,0,1,4.77-4.33,1.28,1.28,0,0,1,1.62,2,55.82,55.82,0,0,0-4.56,4.14A1.29,1.29,0,0,1,715.89,359.18Zm9.76-7.92a1.28,1.28,0,0,1-.7-2.36,58.36,58.36,0,0,1,5.61-3.16,1.28,1.28,0,0,1,1.13,2.29,57.44,57.44,0,0,0-5.35,3A1.28,1.28,0,0,1,725.65,351.26Zm54.19-3.6a1.29,1.29,0,0,1-.54-.12,54.84,54.84,0,0,0-5.71-2.29,1.28,1.28,0,0,1,.81-2.43,56.09,56.09,0,0,1,6,2.4,1.28,1.28,0,0,1,.62,1.7A1.29,1.29,0,0,1,779.84,347.66Zm-42.93-2a1.28,1.28,0,0,1-.43-2.48,56.89,56.89,0,0,1,6.17-1.85,1.28,1.28,0,0,1,.59,2.5,52.44,52.44,0,0,0-5.89,1.76A1.31,1.31,0,0,1,736.91,345.7Zm31-2.05-.27,0a54.48,54.48,0,0,0-6.08-.95,1.29,1.29,0,1,1,.26-2.56,58.69,58.69,0,0,1,6.35,1,1.28,1.28,0,0,1-.26,2.53Zm-18.79-.86a1.28,1.28,0,0,1-.15-2.55,57,57,0,0,1,6.42-.42h0a1.28,1.28,0,0,1,0,2.56,56.83,56.83,0,0,0-6.13.4Z" transform="translate(-135.64)"/><path class="cls-21" d="M788.12,352.43a1.31,1.31,0,0,1-.73-.23c-.85-.6-1.73-1.17-2.62-1.71a1.28,1.28,0,0,1,1.34-2.19c.93.57,1.85,1.17,2.74,1.79a1.29,1.29,0,0,1-.73,2.34Z" transform="translate(-135.64)"/></g><g class="cls-52"><path class="cls-21" d="M811.75,390.62a1.28,1.28,0,0,1-1.27-1.1c-.15-1-.33-2.07-.53-3.08a1.28,1.28,0,1,1,2.51-.52c.21,1.06.4,2.15.56,3.23a1.28,1.28,0,0,1-1.09,1.45Z" transform="translate(-135.64)"/><path class="cls-21" d="M756.06,455c-.88,0-1.77,0-2.66-.07a1.28,1.28,0,0,1-1.22-1.34,1.31,1.31,0,0,1,1.34-1.22,53,53,0,0,0,6.05-.05,1.28,1.28,0,0,1,.17,2.56C758.53,455,757.29,455,756.06,455Zm-8.76-.68-.2,0a56.24,56.24,0,0,1-6.19-1.31,1.28,1.28,0,0,1,.67-2.48,53.19,53.19,0,0,0,5.92,1.26,1.28,1.28,0,0,1-.2,2.55Zm18.5-.17a1.28,1.28,0,0,1-.22-2.55,56.51,56.51,0,0,0,5.89-1.37,1.28,1.28,0,0,1,.72,2.46,58.76,58.76,0,0,1-6.17,1.44Zm-30.44-3.06a1.35,1.35,0,0,1-.47-.09,58.47,58.47,0,0,1-5.75-2.64,1.28,1.28,0,1,1,1.19-2.27,53.46,53.46,0,0,0,5.5,2.52,1.28,1.28,0,0,1-.47,2.48Zm42.31-.42a1.28,1.28,0,0,1-.5-2.46,54.71,54.71,0,0,0,5.45-2.64,1.28,1.28,0,0,1,1.24,2.25,59.75,59.75,0,0,1-5.7,2.75A1.23,1.23,0,0,1,777.67,450.69Zm10.81-6a1.26,1.26,0,0,1-1-.55,1.28,1.28,0,0,1,.3-1.78,57.21,57.21,0,0,0,4.75-3.76,1.28,1.28,0,1,1,1.7,1.92,58.73,58.73,0,0,1-5,3.93A1.26,1.26,0,0,1,788.48,444.71Zm9.26-8.2a1.28,1.28,0,0,1-1-2.14,55.56,55.56,0,0,0,3.82-4.7,1.28,1.28,0,1,1,2.07,1.5,57.13,57.13,0,0,1-4,4.92A1.27,1.27,0,0,1,797.74,436.51Zm7.25-10a1.32,1.32,0,0,1-.63-.17,1.29,1.29,0,0,1-.48-1.75,55.82,55.82,0,0,0,2.7-5.42,1.28,1.28,0,0,1,2.35,1,56.6,56.6,0,0,1-2.82,5.68A1.3,1.3,0,0,1,805,426.5Zm4.89-11.37a1.57,1.57,0,0,1-.37-.05,1.29,1.29,0,0,1-.86-1.6,54.2,54.2,0,0,0,1.44-5.88,1.28,1.28,0,0,1,2.52.47,56.25,56.25,0,0,1-1.5,6.15A1.28,1.28,0,0,1,809.88,415.13ZM812.16,403h-.1a1.29,1.29,0,0,1-1.18-1.38l0-.38c.09-1.29.13-2.58.13-3.86,0-.61,0-1.21,0-1.81a1.28,1.28,0,0,1,2.56-.09c0,.64,0,1.27,0,1.9,0,1.34,0,2.69-.13,4l0,.4A1.29,1.29,0,0,1,812.16,403Z" transform="translate(-135.64)"/><path class="cls-21" d="M724.38,445.3a1.27,1.27,0,0,1-.72-.22c-.91-.62-1.8-1.26-2.66-1.92a1.28,1.28,0,1,1,1.56-2c.82.63,1.67,1.24,2.54,1.83a1.29,1.29,0,0,1,.34,1.78A1.27,1.27,0,0,1,724.38,445.3Z" transform="translate(-135.64)"/></g><path class="cls-56" d="M725.59,428.19a.69.69,0,0,0,.76.2l7.72-2.84a36,36,0,0,0,10.22,5.51l1.89,8a.67.67,0,0,0,.59.52l9.82,1a.67.67,0,0,0,.68-.38l3.45-7.47a35.69,35.69,0,0,0,11.11-3.34l7,4.33a.68.68,0,0,0,.78,0l7.65-6.24a.68.68,0,0,0,.2-.76l-2.83-7.72a35.72,35.72,0,0,0,5.5-10.22l8-1.88a.69.69,0,0,0,.52-.59l1-9.82a.69.69,0,0,0-.39-.68l-7.47-3.45a35.75,35.75,0,0,0-3.34-11.12l4.33-7a.68.68,0,0,0,0-.78l-6.24-7.64a.67.67,0,0,0-.76-.21L778,368.39a35.75,35.75,0,0,0-10.22-5.51l-1.88-8a.69.69,0,0,0-.59-.52l-9.82-1a.67.67,0,0,0-.68.39l-3.45,7.46a36,36,0,0,0-11.12,3.34l-7-4.33a.69.69,0,0,0-.79,0l-7.64,6.24a.67.67,0,0,0-.21.76l2.84,7.72a35.72,35.72,0,0,0-5.5,10.22l-8,1.89a.65.65,0,0,0-.51.59l-1,9.81a.69.69,0,0,0,.39.69l7.46,3.45a36,36,0,0,0,3.34,11.11l-4.32,7a.65.65,0,0,0,.05.78Z" transform="translate(-135.64)"/><path class="cls-12" d="M756,407a10.06,10.06,0,1,1,1.47-.11A10.61,10.61,0,0,1,756,407Zm0-17.53a8.26,8.26,0,0,0-1.1.08,7.48,7.48,0,0,0,2.18,14.8h0a7.48,7.48,0,0,0-1.08-14.88Z" transform="translate(-135.64)"/><path class="cls-12" d="M756.21,421.92a24.14,24.14,0,0,1-2.54-.13h0a25.09,25.09,0,0,1-5.23-1.1,1.26,1.26,0,0,1-.89-1.22,1.32,1.32,0,0,1,.06-.39,1.28,1.28,0,0,1,1.62-.82,22.48,22.48,0,0,0,4.69,1h0a22.54,22.54,0,0,0,24.63-19.59l.06-.55a22.68,22.68,0,0,0,.12-2.32,22.53,22.53,0,0,0-45-2.22,19.34,19.34,0,0,0-.11,2.28,22.51,22.51,0,0,0,2.12,9.55,1.28,1.28,0,0,1-2.32,1.09,25.07,25.07,0,0,1-2.37-10.64,24.14,24.14,0,0,1,.13-2.54,25.09,25.09,0,1,1,25,27.62Z" transform="translate(-135.64)"/><g class="cls-52"><path class="cls-21" d="M1356,566.94a1.27,1.27,0,0,0,1.23-.92c.31-1,.59-2.09.86-3.14a1.28,1.28,0,1,0-2.49-.62c-.26,1-.53,2-.83,3a1.28,1.28,0,0,0,.87,1.59A1.49,1.49,0,0,0,1356,566.94Z" transform="translate(-135.64)"/><path class="cls-21" d="M1357.94,557.62a1.28,1.28,0,0,1-1.06-1.47c.33-2,.58-4.13.75-6.19a1.28,1.28,0,1,1,2.55.2c-.17,2.13-.43,4.29-.77,6.4a1.28,1.28,0,0,1-1.26,1.08Zm-.08-13.9c0-1.69-.06-3.4-.18-5.08l-.09-1.15a1.28,1.28,0,0,1,2.55-.21c0,.39.07.78.09,1.18.13,1.74.19,3.5.2,5.26a1.28,1.28,0,0,1-1.28,1.28h0A1.29,1.29,0,0,1,1357.86,543.72Zm-1-12.42c-.35-2-.78-4.1-1.28-6.1a1.28,1.28,0,1,1,2.49-.63c.52,2.07,1,4.19,1.32,6.31a1.3,1.3,0,0,1-1.06,1.48l-.21,0A1.28,1.28,0,0,1,1356.82,531.3Zm-3-12.08c-.67-2-1.43-3.91-2.26-5.81a1.28,1.28,0,0,1,2.35-1c.86,2,1.64,4,2.34,6a1.29,1.29,0,0,1-.8,1.63,1.23,1.23,0,0,1-.42.07A1.27,1.27,0,0,1,1353.77,519.22Zm-5-11.41c-1-1.83-2-3.63-3.18-5.37a1.28,1.28,0,0,1,2.15-1.4c1.17,1.8,2.27,3.67,3.29,5.55a1.27,1.27,0,0,1-.52,1.73,1.21,1.21,0,0,1-.61.16A1.3,1.3,0,0,1,1348.77,507.81Zm-6.8-10.45c-1.26-1.63-2.62-3.24-4-4.77a1.28,1.28,0,1,1,1.89-1.73c1.45,1.58,2.85,3.24,4.16,4.93a1.29,1.29,0,0,1-.23,1.8,1.28,1.28,0,0,1-1.8-.23Zm-8.41-9.19c-1.52-1.42-3.12-2.78-4.74-4.05a1.28,1.28,0,0,1,1.58-2c1.68,1.32,3.33,2.73,4.9,4.19a1.28,1.28,0,0,1-1.74,1.88Zm-9.8-7.71c-1.72-1.14-3.52-2.23-5.33-3.23a1.28,1.28,0,1,1,1.23-2.24c1.88,1,3.73,2.15,5.52,3.33a1.28,1.28,0,0,1-.71,2.35A1.25,1.25,0,0,1,1323.76,480.46ZM1244.84,476a1.27,1.27,0,0,1,.54-1.73c1.89-1,3.85-1.92,5.83-2.76a1.28,1.28,0,1,1,1,2.36c-1.9.81-3.8,1.71-5.63,2.67a1.29,1.29,0,0,1-.6.14A1.27,1.27,0,0,1,1244.84,476Zm68-1.52c-1.89-.84-3.84-1.62-5.79-2.31a1.28,1.28,0,0,1,.85-2.41c2,.7,4,1.51,6,2.38a1.29,1.29,0,0,1-.52,2.46A1.23,1.23,0,0,1,1312.85,474.45Zm-56.42-3.61a1.28,1.28,0,0,1,.82-1.62c2-.67,4.11-1.26,6.2-1.76A1.28,1.28,0,0,1,1264,470c-2,.49-4,1.06-6,1.7a1.16,1.16,0,0,1-.4.07A1.28,1.28,0,0,1,1256.43,470.84Zm44.67-.52c-2-.53-4-1-6.09-1.33a1.28,1.28,0,0,1,.44-2.53c2.11.37,4.23.84,6.3,1.38a1.28,1.28,0,0,1-.32,2.52A1.24,1.24,0,0,1,1301.1,470.32Zm-32.4-2.64a1.29,1.29,0,0,1,1.07-1.46c2.11-.33,4.27-.57,6.41-.72a1.28,1.28,0,0,1,.19,2.55c-2.08.15-4.16.39-6.2.7l-.2,0A1.3,1.3,0,0,1,1268.7,467.68Zm20.13.49c-2.06-.19-4.15-.29-6.23-.31a1.29,1.29,0,0,1,0-2.57h0c2.15,0,4.32.13,6.44.32a1.28,1.28,0,0,1-.11,2.56Z" transform="translate(-135.64)"/><path class="cls-21" d="M1237.74,481.65a1.31,1.31,0,0,0,.73-.23c.86-.6,1.74-1.18,2.62-1.75a1.28,1.28,0,1,0-1.37-2.16c-.92.58-1.82,1.18-2.71,1.8a1.29,1.29,0,0,0-.32,1.79A1.3,1.3,0,0,0,1237.74,481.65Z" transform="translate(-135.64)"/></g><g class="cls-52"><path class="cls-21" d="M1205.48,532.89a1.29,1.29,0,0,0,1.27-1.08c.16-1,.35-2.07.56-3.1a1.28,1.28,0,1,0-2.51-.51c-.22,1.07-.41,2.13-.58,3.21a1.27,1.27,0,0,0,1.06,1.47Z" transform="translate(-135.64)"/><path class="cls-21" d="M1279.06,622.44a1.29,1.29,0,0,1,.09-2.57c.85,0,1.7,0,2.55,0,1.15,0,2.39,0,3.59-.09a1.29,1.29,0,0,1,.12,2.57c-1.25.05-2.45.07-3.71.08C1280.82,622.48,1279.94,622.47,1279.06,622.44Zm-6.32-.48c-2.09-.24-4.2-.57-6.27-1a1.28,1.28,0,0,1,.5-2.51c2,.4,4,.71,6.06.95a1.28,1.28,0,0,1-.14,2.55Zm17.56-1.22a1.28,1.28,0,0,1,1.11-1.43c2-.25,4-.59,6-1a1.28,1.28,0,1,1,.53,2.51c-2.07.43-4.18.78-6.26,1h-.16A1.27,1.27,0,0,1,1290.3,620.74Zm-30-1.24c-2-.58-4-1.25-6-2a1.28,1.28,0,0,1,.89-2.4c1.91.72,3.87,1.36,5.83,1.92a1.28,1.28,0,0,1-.35,2.51A1.34,1.34,0,0,1,1260.31,619.5Zm42.24-1.1a1.29,1.29,0,0,1,.87-1.6c1.95-.57,3.91-1.24,5.81-2a1.28,1.28,0,0,1,.92,2.39c-2,.76-4,1.44-6,2a1.12,1.12,0,0,1-.36,0A1.27,1.27,0,0,1,1302.55,618.4Zm-54.1-3.35c-1.91-.9-3.8-1.88-5.63-2.93a1.28,1.28,0,0,1,1.27-2.22c1.77,1,3.6,2,5.45,2.83a1.28,1.28,0,0,1-1.09,2.32Zm65.81-.95a1.28,1.28,0,0,1,.6-1.71c1.83-.89,3.65-1.86,5.41-2.89a1.28,1.28,0,0,1,1.3,2.21c-1.82,1.07-3.71,2.07-5.6,3a1.24,1.24,0,0,1-.56.13A1.28,1.28,0,0,1,1314.26,614.1Zm-76.81-5.35c-1.74-1.19-3.45-2.46-5.09-3.79a1.28,1.28,0,1,1,1.62-2c1.58,1.28,3.24,2.52,4.92,3.67a1.28,1.28,0,0,1-1.45,2.11Zm-9.85-8c-1.52-1.45-3-3-4.41-4.55a1.28,1.28,0,0,1,1.91-1.71c1.36,1.52,2.8,3,4.27,4.4a1.28,1.28,0,1,1-1.77,1.86Zm-8.45-9.45c-1.27-1.68-2.49-3.43-3.62-5.21a1.28,1.28,0,1,1,2.16-1.38c1.09,1.72,2.27,3.42,3.51,5a1.29,1.29,0,0,1-1,2.06A1.31,1.31,0,0,1,1219.15,591.32Zm-6.82-10.69c-1-1.87-1.91-3.79-2.74-5.72a1.3,1.3,0,0,1,.68-1.69,1.28,1.28,0,0,1,1.68.67c.8,1.87,1.69,3.74,2.65,5.54a1.28,1.28,0,0,1-.53,1.73,1.21,1.21,0,0,1-.6.15A1.3,1.3,0,0,1,1212.33,580.63Zm-5-11.65c-.67-2-1.27-4-1.77-6.09a1.28,1.28,0,0,1,2.48-.62c.5,2,1.07,4,1.72,5.89a1.28,1.28,0,0,1-.8,1.63,1.51,1.51,0,0,1-.41.06A1.29,1.29,0,0,1,1207.33,569Zm-3-12.3c-.34-2.08-.6-4.2-.77-6.29a1.28,1.28,0,1,1,2.55-.22c.17,2,.42,4.08.75,6.09a1.3,1.3,0,0,1-1.06,1.48h-.21A1.28,1.28,0,0,1,1204.28,556.68Zm-1-12.63v-.24c0-2,.08-4.08.24-6.1a1.27,1.27,0,0,1,1.38-1.18,1.29,1.29,0,0,1,1.18,1.38c-.16,2-.23,3.94-.23,5.9v.24a1.29,1.29,0,0,1-2.57,0Z" transform="translate(-135.64)"/><path class="cls-21" d="M1326.23,608.47a1.32,1.32,0,0,0,.74-.23c.89-.63,1.76-1.27,2.62-1.93a1.28,1.28,0,1,0-1.56-2c-.83.63-1.68,1.25-2.53,1.86a1.28,1.28,0,0,0,.73,2.33Z" transform="translate(-135.64)"/></g><path class="cls-57" d="M1332.14,575.63a.92.92,0,0,0,.07-1.07l-5.94-9.61a49.28,49.28,0,0,0,4.59-15.26L1341.1,545a.94.94,0,0,0,.54-.94l-1.37-13.48a.93.93,0,0,0-.71-.81l-11-2.58a49,49,0,0,0-7.55-14l3.89-10.6a.9.9,0,0,0-.28-1l-10.49-8.57a.93.93,0,0,0-1.08-.07l-9.6,5.94a49.05,49.05,0,0,0-15.27-4.58L1283.46,484a.93.93,0,0,0-.94-.53L1269,484.78a.93.93,0,0,0-.8.71l-2.59,11a49,49,0,0,0-14,7.56l-10.6-3.9a.93.93,0,0,0-1,.28l-8.57,10.5a.92.92,0,0,0-.07,1.07l6,9.61a49,49,0,0,0-4.59,15.26l-10.25,4.74a.91.91,0,0,0-.53.93l1.36,13.48a.94.94,0,0,0,.72.81l11,2.58a49.26,49.26,0,0,0,7.56,14l-3.9,10.6a.92.92,0,0,0,.29,1l10.49,8.56a.93.93,0,0,0,1.08.07l9.6-5.94a49.36,49.36,0,0,0,15.26,4.59l4.74,10.24a.91.91,0,0,0,.93.53l13.48-1.36a.94.94,0,0,0,.81-.71l2.59-11a49.1,49.1,0,0,0,14-7.56l10.6,3.9a.93.93,0,0,0,1-.28Z" transform="translate(-135.64)"/><path class="cls-12" d="M1279.84,556.44h0a13.26,13.26,0,1,1,2,.15A12.81,12.81,0,0,1,1279.84,556.44Zm-8.69-14.73a10.76,10.76,0,0,0,9.06,12.2h0a10.75,10.75,0,0,0,12.2-9.07,10.77,10.77,0,0,0-9.06-12.2,12.11,12.11,0,0,0-1.58-.11A10.76,10.76,0,0,0,1271.15,541.71Z" transform="translate(-135.64)"/><path class="cls-12" d="M1281.51,577.05a33.94,33.94,0,0,0,3.48-.18h0c.47,0,.94-.1,1.4-.17a33.9,33.9,0,0,0,4.8-1l.16,0,.4-.12.32-.1a1.29,1.29,0,0,0,.89-1.22,1.44,1.44,0,0,0-.06-.4,1.28,1.28,0,0,0-1.62-.82,31.4,31.4,0,0,1-41-26.71,31.92,31.92,0,0,1-.17-3.23,31.41,31.41,0,0,1,62.66-3.1c.1,1.06.16,2.13.16,3.19a31.19,31.19,0,0,1-3,13.3,1.33,1.33,0,0,0-.12.55,1.28,1.28,0,0,0,2.44.54,33.78,33.78,0,0,0,3.21-14.39c0-1.15-.06-2.3-.17-3.45A34,34,0,0,0,1247.6,543c0,1.16.06,2.32.17,3.49a34,34,0,0,0,33.74,30.55Z" transform="translate(-135.64)"/><path class="cls-58" d="M1359.71,707.86l2.24-3.15a1,1,0,0,0-1.57-1.12h0v0l-2.19,3.14h0a.94.94,0,0,0,1.54,1.09Z" transform="translate(-135.64)"/><path class="cls-58" d="M1366.94,697.2l2-3.28a1,1,0,0,0-1.76-1.09h0v0l-2,3.27v0a1,1,0,0,0,1.72,1.05Z" transform="translate(-135.64)"/><path class="cls-58" d="M1373.48,686.1l1.83-3.4a1.1,1.1,0,1,0-1.94-1h0v0l-1.77,3.39v0a1.07,1.07,0,0,0,1.9,1Z" transform="translate(-135.64)"/><path class="cls-58" d="M1379.32,674.62l1.61-3.52a1.17,1.17,0,1,0-2.12-1h0v0l-1.56,3.49v0a1.15,1.15,0,0,0,2.09,1Z" transform="translate(-135.64)"/><path class="cls-58" d="M1384.43,662.78l1.39-3.61a1.24,1.24,0,1,0-2.31-.89v0l-1.34,3.58v0a1.21,1.21,0,1,0,2.27.86Z" transform="translate(-135.64)"/><path class="cls-58" d="M1388.79,650.64l1.15-3.69a1.3,1.3,0,1,0-2.49-.78h0v0l-1.09,3.66v0a1.29,1.29,0,0,0,2.46.75Z" transform="translate(-135.64)"/><path class="cls-58" d="M1392.35,638.24l.91-3.76a1.37,1.37,0,1,0-2.67-.65v0l-.86,3.72v0a1.35,1.35,0,1,0,2.63.62Z" transform="translate(-135.64)"/><path class="cls-58" d="M1395.1,625.63l.66-3.82a1.45,1.45,0,1,0-2.85-.49v0l-.6,3.76v0a1.42,1.42,0,0,0,2.81.47Z" transform="translate(-135.64)"/><path class="cls-58" d="M1397,612.85l.39-3.85a1.51,1.51,0,1,0-3-.31v0l-.34,3.8v0a1.5,1.5,0,0,0,3,.28Z" transform="translate(-135.64)"/><path class="cls-58" d="M1398,600l.11-3.88a1.58,1.58,0,1,0-3.16-.1v0l-.08,3.82v0a1.57,1.57,0,0,0,3.13.08Z" transform="translate(-135.64)"/><path class="cls-58" d="M1398,587l-.17-3.88a1.65,1.65,0,0,0-3.3.15v.06l.22,3.79v0A1.63,1.63,0,0,0,1398,587Z" transform="translate(-135.64)"/><path class="cls-58" d="M1397.1,574.13l-.48-3.85a1.72,1.72,0,1,0-3.41.42h0v0l.51,3.78v0a1.7,1.7,0,0,0,3.37-.44Z" transform="translate(-135.64)"/><path class="cls-58" d="M1395.16,561.32l-.79-3.81a1.79,1.79,0,1,0-3.5.73h0v0l.81,3.71v0a1.76,1.76,0,0,0,2.1,1.35A1.78,1.78,0,0,0,1395.16,561.32Z" transform="translate(-135.64)"/><path class="cls-58" d="M1392.18,548.71l-1.1-3.73a1.86,1.86,0,0,0-3.57,1v.07l1.11,3.63,0,0a1.84,1.84,0,0,0,3.52-1Z" transform="translate(-135.64)"/><path class="cls-58" d="M1388.14,536.37l-1.43-3.62a1.93,1.93,0,0,0-3.59,1.41v0l0,.05,1.43,3.51,0,0a1.91,1.91,0,0,0,3.54-1.42Z" transform="translate(-135.64)"/><path class="cls-58" d="M1383,524.45l-1.76-3.48a2,2,0,0,0-3.57,1.8v0l0,.05,1.75,3.36,0,0a2,2,0,0,0,3.52-1.8Z" transform="translate(-135.64)"/><path class="cls-58" d="M1376.75,513l-2.06-3.31a2.06,2.06,0,1,0-3.5,2.19v0l0,0,2,3.2,0,0a2,2,0,0,0,3.46-2.18Z" transform="translate(-135.64)"/><path class="cls-58" d="M1369.55,502.23l-2.34-3.12a2.14,2.14,0,1,0-3.42,2.56l0,0,0,0,2.31,3,0,0a2.11,2.11,0,0,0,3.37-2.55Z" transform="translate(-135.64)"/><path class="cls-58" d="M1361.44,492.07l-2.6-2.91a2.21,2.21,0,1,0-3.29,2.94h0l0,.05,2.55,2.79,0,0a2.18,2.18,0,0,0,3.24-2.92Z" transform="translate(-135.64)"/><path class="cls-58" d="M1352.48,482.64l-2.84-2.68a2.27,2.27,0,0,0-3.11,3.31v0l0,0,2.78,2.57,0,0a2.25,2.25,0,0,0,3.07-3.29Z" transform="translate(-135.64)"/><path class="cls-58" d="M1342.75,474l-3.07-2.42a2.34,2.34,0,1,0-2.9,3.67l0,0,0,0,3,2.31.05,0a2.32,2.32,0,0,0,2.86-3.66Z" transform="translate(-135.64)"/><path class="cls-58" d="M1332.29,466.25,1329,464.1a2.41,2.41,0,0,0-2.65,4l0,0,0,0,3.18,2,.06,0a2.39,2.39,0,0,0,2.6-4Z" transform="translate(-135.64)"/><path class="cls-58" d="M1321.17,459.45l-3.46-1.84a2.48,2.48,0,1,0-2.33,4.38h0l.06,0,3.36,1.74.06,0a2.46,2.46,0,0,0,2.29-4.35Z" transform="translate(-135.64)"/><path class="cls-58" d="M1309.45,453.7l-3.62-1.5a2.55,2.55,0,1,0-2,4.71h0l.07,0,3.49,1.41.07,0a2.53,2.53,0,0,0,1.92-4.68Z" transform="translate(-135.64)"/><path class="cls-58" d="M1297.21,449.12l-3.76-1.14a2.62,2.62,0,0,0-1.51,5h0l.08,0,3.62,1,.07,0a2.6,2.6,0,0,0,1.48-5Z" transform="translate(-135.64)"/><path class="cls-58" d="M1284.55,445.79l-3.86-.74a2.69,2.69,0,0,0-1,5.28h.12l3.7.67h.08a2.66,2.66,0,0,0,1-5.24Z" transform="translate(-135.64)"/><path class="cls-58" d="M1271.59,443.83l-3.92-.31a2.75,2.75,0,1,0-.44,5.49h.12l3.75.26h.09a2.73,2.73,0,0,0,.4-5.45Z" transform="translate(-135.64)"/><path class="cls-58" d="M1258.48,443.31l-2.32.06a2.82,2.82,0,1,0,.15,5.63h.09l2.2-.09h.06a2.8,2.8,0,0,0-.18-5.6Z" transform="translate(-135.64)"/><path class="cls-58" d="M1351.86,702.4l2.11-3.28a1.09,1.09,0,0,0-1.84-1.18l0,0,0,0-1.95,3.26,0,0a1,1,0,0,0,1.76,1.09Z" transform="translate(-135.64)"/><path class="cls-58" d="M1358.23,691.07l1.52-3.6a1.29,1.29,0,0,0-.69-1.71,1.31,1.31,0,0,0-1.71.69v0l0,.06-1.37,3.53,0,.06a1.23,1.23,0,0,0,.71,1.6A1.25,1.25,0,0,0,1358.23,691.07Z" transform="translate(-135.64)"/><path class="cls-58" d="M1362.61,678.8l.92-3.81a1.51,1.51,0,0,0-2.94-.71v0l0,.08-.76,3.7v.07a1.44,1.44,0,0,0,2.82.63Z" transform="translate(-135.64)"/><path class="cls-58" d="M1364.92,665.94l.27-3.92a1.71,1.71,0,1,0-3.42-.24v.14l-.14,3.76v.08a1.65,1.65,0,0,0,3.3.18Z" transform="translate(-135.64)"/><path class="cls-58" d="M1365.06,652.83l-.4-3.92a1.92,1.92,0,1,0-3.83.39v.16l.5,3.71v.1a1.86,1.86,0,0,0,3.7-.44Z" transform="translate(-135.64)"/><path class="cls-58" d="M1362.94,639.86l-1.07-3.8a2.13,2.13,0,1,0-4.1,1.15s0,0,0,0l0,.11,1.13,3.57,0,.1a2.07,2.07,0,0,0,4-1.18Z" transform="translate(-135.64)"/><path class="cls-58" d="M1358.64,627.41l-1.69-3.58a2.34,2.34,0,1,0-4.23,2l0,.06.06.11,1.7,3.32,0,.11a2.27,2.27,0,0,0,4.08-2Z" transform="translate(-135.64)"/><path class="cls-58" d="M1352.33,615.82l-2.26-3.27a2.54,2.54,0,0,0-4.18,2.9.1.1,0,0,0,0,0l.08.11,2.22,3,.07.1a2.48,2.48,0,0,0,4-2.88Z" transform="translate(-135.64)"/><path class="cls-58" d="M1344.16,605.39l-2.78-2.84a2.75,2.75,0,1,0-3.93,3.84l0,.06.11.1,2.68,2.56.1.1a2.68,2.68,0,0,0,3.77-3.82Z" transform="translate(-135.64)"/><rect class="cls-59" x="260.42" y="931.02" width="10.11" height="109.37"/><path class="cls-60" d="M356.82,1042.49H445.4V1038a2.08,2.08,0,0,0-2.07-2.08H359.06a2.24,2.24,0,0,0-2.24,2.24Z" transform="translate(-135.64)"/><rect class="cls-61" x="204.44" y="904.97" width="118.36" height="33.57" rx="11.56"/><path class="cls-62" d="M457.44,1021s28.88,20.82,23.87,34.8c0,0-31.6-13.63-35.42-24.37s.65-15.48.65-15.48Z" transform="translate(-135.64)"/><path class="cls-63" d="M453.1,1003.57l-4.72,13.65a4.75,4.75,0,0,0,1.84,5.57,12.59,12.59,0,0,0,3.91,1.51,5.53,5.53,0,0,0,6.11-2.77l5.65-10.64Z" transform="translate(-135.64)"/><path class="cls-64" d="M407.15,880.69s59.31,10.28,84.76,33.79S468.55,1013,468.55,1013s-8-.05-17.68-8.35c0,0,28.93-56.39,4-72.84-28-18.48-60.34-22.65-60.34-22.65l12-26.61Z" transform="translate(-135.64)"/><path class="cls-65" d="M476.29,1048.08c-6.35-2.94-24.34-15.53-27.37-16.09s-8.29,3-8.29,3-1.28,2.3.09,6.31c4.22,5.11,13.59,14.85,26.19,18.47,9.27,2.67,15.75.18,19.79-2.73A26.7,26.7,0,0,0,476.29,1048.08Z" transform="translate(-135.64)"/><path class="cls-66" d="M466.91,1059.78c-12.6-3.62-22-13.36-26.19-18.47.93,2.71,3.06,6.21,7.61,10.3,11.3,10.15,32.87,13.81,37.47,13.11,3.68-.57,3.33-4,.9-7.67C482.66,1060,476.18,1062.45,466.91,1059.78Z" transform="translate(-135.64)"/><path class="cls-67" d="M435.25,1026.12c.07,1.75,3.65,7.75,5.74,11.12a5.45,5.45,0,0,0,4.61,2.58,14.1,14.1,0,0,0,3.82-.46,3.53,3.53,0,0,0,2.37-4.4l-4.08-14Z" transform="translate(-135.64)"/><path class="cls-68" d="M350.05,862.89s-13.17,35.22,0,45.93,44.6,22.78,51.62,44.11,18.93,62.8,34.88,77.48c0,0,11.2-1.08,15.39-5.54,0,0-9.08-61.9-15.07-77.79-5.19-13.75-12.83-33.6-27.47-44.7-4.19-3.18-3.46-8.21-1.52-13.09l3.54-8.9Z" transform="translate(-135.64)"/><path class="cls-69" d="M487.44,835.28c-22.09,1.33-15.21-33.95-14.81-35.36L439.11,823.6s1.77,18.87,29.64,28.77a34.65,34.65,0,0,0,19.2,1.39A30.46,30.46,0,0,1,487.44,835.28Z" transform="translate(-135.64)"/><path class="cls-70" d="M530.15,824.66c-8.23-5.72-17.56,0-17.56,0-11,7.2-19.15,10.26-25.15,10.62a30.46,30.46,0,0,0,.51,18.48c12.33-2.65,21.15-11.57,25-16.15a4,4,0,0,1,5.51-.6c1.72,1.35,3.38,3.2,3.08,5.15-.6,3.85,3.87,5.07,4.2,3.68s-1.52-9.67-1.52-9.67,8.92,9,12.41,12.43,7.86,0,7.86,0S538.38,830.39,530.15,824.66Z" transform="translate(-135.64)"/><path class="cls-71" d="M384.45,745.43s32.13-12.87,91.93,36.5c0,0,5,10.34-.45,19.55s-57.37,54-64.51,78.91c0,0-30.93,10.05-62.92-13.79C348.5,866.6,351.32,797.4,384.45,745.43Z" transform="translate(-135.64)"/><path class="cls-72" d="M448,734l-15.82,19.17a6.31,6.31,0,0,0-.83,6.77c2.2,4.48,7.41,11,19,10.1a9.7,9.7,0,0,0,8-5.45l11.07-22.86Z" transform="translate(-135.64)"/><path class="cls-73" d="M359.57,827.56c-3.73-15.19,34.05-49.06,34.05-49.06l-9.17-33.07s-81.59,54.31-60.8,98A31.79,31.79,0,0,0,335.18,857C341.75,839.32,352.22,831.21,359.57,827.56Z" transform="translate(-135.64)"/><path class="cls-74" d="M359.54,825.35a.9.9,0,0,1-.86-.68c-3.82-15.54,32.76-48.54,34.32-49.94a.9.9,0,0,1,1.2,1.33c-.38.33-37.35,33.68-33.79,48.18a.89.89,0,0,1-.65,1.08A.83.83,0,0,1,359.54,825.35Z" transform="translate(-135.64)"/><path class="cls-75" d="M416.8,826.25s-44.8,17.39-55.73,4.31a7.26,7.26,0,0,1-1.5-3c-7.35,3.65-17.82,11.76-24.39,29.44,23.56,15.06,63.83-8.37,74.72-15.28a8.13,8.13,0,0,1,6-1.11c4.2.88,11.46,2.16,15.37,1.55,5.73-.88,13.95,19.32,23.23,13.09C454.52,855.25,446.57,820.15,416.8,826.25Z" transform="translate(-135.64)"/><path class="cls-76" d="M487.43,711.88s.28,20.88-3.1,30.36-3.9,16.34-15.4,13.71-18.28-11.76-19.3-23.05c0,0-1.69-17.44,2.48-22.54S487.43,711.88,487.43,711.88Z" transform="translate(-135.64)"/><path class="cls-77" d="M456.08,727.8l1.36.57s-.78-13.79,5-13.74,26.84,4.24,33.92-.89c6.83-5,6.83-15,2.45-19.71a.77.77,0,0,0-1.06,0l-.8.66a.79.79,0,0,1-1.29-.7h0a.79.79,0,0,0-1.22-.75c-2.15,1.52-7,3.42-17.07,1.22C463.1,691.3,452.11,693,448.06,702a.79.79,0,0,1-1.38.13c-.72-1-2.17-1.94-5-1.07-4.91,1.53-6.75,10.07-1.53,19.93a.78.78,0,0,1-.52,1.15c-1.84.33-4.93,1.67-.61,7s7.94,6.53,9.35,6.74a.8.8,0,0,0,.87-.52l2.89-8.31a.8.8,0,0,1,1.05-.47Z" transform="translate(-135.64)"/><path class="cls-78" d="M455.7,729.64s1.81-12.51-4.58-11.47-2.68,13.74,1.21,15.86Z" transform="translate(-135.64)"/><path class="cls-79" d="M605.77,1062.15a3.88,3.88,0,0,0,1.55-.32,3.77,3.77,0,0,0,2.07-5L526.55,870.38a4,4,0,0,0-5.19-2,3.78,3.78,0,0,0-2.06,5l82.83,186.43A4,4,0,0,0,605.77,1062.15Z" transform="translate(-135.64)"/><path class="cls-80" d="M512.44,1062.15a4,4,0,0,0,3.63-2.32L598.91,873.4a3.79,3.79,0,0,0-2.06-5,4,4,0,0,0-5.19,2l-82.84,186.43a3.77,3.77,0,0,0,2.07,5A3.84,3.84,0,0,0,512.44,1062.15Z" transform="translate(-135.64)"/><path class="cls-81" d="M349.35,1062.15a3.93,3.93,0,0,0,1.56-.32,3.77,3.77,0,0,0,2.06-5L270.13,870.38a4,4,0,0,0-5.18-2,3.79,3.79,0,0,0-2.07,5l82.84,186.43A4,4,0,0,0,349.35,1062.15Z" transform="translate(-135.64)"/><path class="cls-82" d="M256,1062.15a4,4,0,0,0,3.63-2.32L342.49,873.4a3.78,3.78,0,0,0-2.06-5,4,4,0,0,0-5.19,2L252.4,1056.81a3.77,3.77,0,0,0,2.07,5A3.93,3.93,0,0,0,256,1062.15Z" transform="translate(-135.64)"/><path class="cls-83" d="M246.31,864.62a4.59,4.59,0,0,1,.78-3.45,3.6,3.6,0,0,1,2.88-1.51H626.82a4.18,4.18,0,0,1,3.61,2.21,5.27,5.27,0,0,1,.28,4.6l-4.08,9.9a5.71,5.71,0,0,1-5.19,3.71H252.56a4.49,4.49,0,0,1-4.26-3.92Z" transform="translate(-135.64)"/><path class="cls-84" d="M439.75,860.55H440l94-.1a4.21,4.21,0,1,0,0-8.41l-94,.1a4.21,4.21,0,0,0-.21,8.41Z" transform="translate(-135.64)"/><path class="cls-85" d="M618.46,775.21H540.18a14.93,14.93,0,0,0-13.5,8.55L490.5,860.5h97.27a9.08,9.08,0,0,0,8.44-5.74l28.06-71A6.25,6.25,0,0,0,618.46,775.21Z" transform="translate(-135.64)"/><ellipse class="cls-86" cx="569.18" cy="816.44" rx="10.02" ry="6.17" transform="translate(-518.03 1108.09) rotate(-72.16)"/><path class="cls-21" d="M723.11,295.1l20.13-10.49v4.47a1.76,1.76,0,0,1-.26.93,2.06,2.06,0,0,1-.83.72l-9.23,4.73a8.4,8.4,0,0,1-1.23.52c-.43.14-.9.27-1.39.39.49.12,1,.25,1.39.4a8.4,8.4,0,0,1,1.23.52l9.23,4.75a2.08,2.08,0,0,1,.83.73,1.7,1.7,0,0,1,.26.92v4.48l-20.13-10.53Z" transform="translate(-135.64)"/><path class="cls-21" d="M754.6,313.58a3.64,3.64,0,0,1-.59,1,3.49,3.49,0,0,1-.81.72,4,4,0,0,1-1,.44,3.15,3.15,0,0,1-1,.16H748.6l14.84-38a3.56,3.56,0,0,1,1.25-1.64,3.3,3.3,0,0,1,1.95-.57h2.67Z" transform="translate(-135.64)"/><path class="cls-21" d="M774.55,308.17v-4.48a1.69,1.69,0,0,1,.25-.92,2,2,0,0,1,.84-.73l9.23-4.75a12.21,12.21,0,0,1,2.61-.92q-.74-.18-1.38-.39a8,8,0,0,1-1.23-.52l-9.23-4.73a2,2,0,0,1-.84-.72,1.75,1.75,0,0,1-.25-.93v-4.47l20.13,10.49v2.54Z" transform="translate(-135.64)"/><path class="cls-21" d="M1266.35,773.12l14.27-7.44v3.17a1.26,1.26,0,0,1-.18.66,1.43,1.43,0,0,1-.59.51l-6.54,3.35a5.27,5.27,0,0,1-.88.37c-.3.1-.63.2-1,.28.35.08.68.18,1,.28a6.27,6.27,0,0,1,.88.37l6.54,3.37a1.43,1.43,0,0,1,.59.51,1.26,1.26,0,0,1,.18.66v3.17l-14.27-7.46Z" transform="translate(-135.64)"/><path class="cls-21" d="M1287.13,786.16V759.39h4.45v10.29A9.31,9.31,0,0,1,1294,768a6.92,6.92,0,0,1,3-.63,6.64,6.64,0,0,1,2.68.51,5.49,5.49,0,0,1,2,1.45,6.26,6.26,0,0,1,1.19,2.21,9.46,9.46,0,0,1,.4,2.84v11.76h-4.45V774.4a4,4,0,0,0-.78-2.62,2.9,2.9,0,0,0-2.35-.93,4.59,4.59,0,0,0-2.16.52,7.69,7.69,0,0,0-1.91,1.43v13.36Z" transform="translate(-135.64)"/><path class="cls-21" d="M1313.68,786.45a4.83,4.83,0,0,1-3.69-1.36,5.2,5.2,0,0,1-1.3-3.75V771h-1.87a.91.91,0,0,1-.62-.23.89.89,0,0,1-.27-.71v-1.76l3-.49.93-5a.88.88,0,0,1,.34-.56,1,1,0,0,1,.65-.2h2.31v5.82H1318V771h-4.87v10a1.94,1.94,0,0,0,.43,1.35,1.5,1.5,0,0,0,1.16.49,2.29,2.29,0,0,0,.69-.1,4.79,4.79,0,0,0,.49-.21l.37-.21a.63.63,0,0,1,.32-.1.53.53,0,0,1,.32.1,1.35,1.35,0,0,1,.27.3l1.34,2.16a6.88,6.88,0,0,1-2.24,1.23A8.48,8.48,0,0,1,1313.68,786.45Z" transform="translate(-135.64)"/><path class="cls-21" d="M1321.55,786.16V767.68h2.72a1.1,1.1,0,0,1,1.14.81l.29,1.37a9.51,9.51,0,0,1,1-1,6.69,6.69,0,0,1,1.13-.78,6.76,6.76,0,0,1,1.3-.51,5.6,5.6,0,0,1,1.52-.19,4.32,4.32,0,0,1,2.87,1,5.65,5.65,0,0,1,1.69,2.51,5.81,5.81,0,0,1,1.08-1.58,6.31,6.31,0,0,1,1.42-1.07,6.81,6.81,0,0,1,1.65-.61,8.05,8.05,0,0,1,1.76-.2,7.46,7.46,0,0,1,2.72.47,5.22,5.22,0,0,1,2,1.37,6,6,0,0,1,1.23,2.2,9.59,9.59,0,0,1,.42,3v11.76h-4.45V774.4a4,4,0,0,0-.77-2.66,2.86,2.86,0,0,0-2.27-.89,3.5,3.5,0,0,0-1.27.23,3.24,3.24,0,0,0-1,.68,3.08,3.08,0,0,0-.69,1.11,4.23,4.23,0,0,0-.25,1.53v11.76h-4.47V774.4a4,4,0,0,0-.75-2.7,2.77,2.77,0,0,0-2.21-.85,3.56,3.56,0,0,0-1.79.48,6.07,6.07,0,0,0-1.56,1.3v13.53Z" transform="translate(-135.64)"/><path class="cls-21" d="M1356.63,759.39v26.77h-4.45V759.39Z" transform="translate(-135.64)"/><path class="cls-21" d="M1363.41,782.38v-3.17a1.17,1.17,0,0,1,.18-.66,1.37,1.37,0,0,1,.59-.51l6.54-3.37a9,9,0,0,1,1.86-.65c-.35-.08-.68-.18-1-.28a5.54,5.54,0,0,1-.87-.37l-6.54-3.35a1.37,1.37,0,0,1-.59-.51,1.17,1.17,0,0,1-.18-.66v-3.17l14.26,7.44v1.8Z" transform="translate(-135.64)"/><path class="cls-21" d="M658.56,813.2a13.52,13.52,0,0,1-3.81-1.11,10.89,10.89,0,0,1-3-2.07l1.32-2a1.58,1.58,0,0,1,.46-.43,1.17,1.17,0,0,1,.6-.16,1.56,1.56,0,0,1,.82.27l1,.63a12,12,0,0,0,1.26.73,6.33,6.33,0,0,0,1.69.54l.66-7.78a24.11,24.11,0,0,1-2.44-.82,7.86,7.86,0,0,1-2.17-1.24,5.79,5.79,0,0,1-1.55-2,6.53,6.53,0,0,1-.59-3,6.69,6.69,0,0,1,.52-2.59,7,7,0,0,1,1.54-2.25,8.18,8.18,0,0,1,2.48-1.64,8.4,8.4,0,0,1,3.39-.65l.19-2.21a1.19,1.19,0,0,1,.35-.75,1.06,1.06,0,0,1,.81-.33h1.58l-.29,3.41a9.61,9.61,0,0,1,3.17,1,11.9,11.9,0,0,1,2.33,1.68l-1,1.58a2.07,2.07,0,0,1-.49.52,1,1,0,0,1-.59.18,1.57,1.57,0,0,1-.62-.17c-.23-.11-.51-.24-.81-.4s-.65-.31-1-.47a6.82,6.82,0,0,0-1.23-.4l-.61,7.19c.84.25,1.66.53,2.48.84a8.94,8.94,0,0,1,2.2,1.19,5.78,5.78,0,0,1,1.59,1.81,5.58,5.58,0,0,1,.61,2.72,8.4,8.4,0,0,1-.54,3,7.4,7.4,0,0,1-1.57,2.5,8,8,0,0,1-2.55,1.76,10.28,10.28,0,0,1-3.45.82l-.21,2.55a1.29,1.29,0,0,1-.34.74,1.08,1.08,0,0,1-.82.33h-1.58Zm-1.75-18.72a2.72,2.72,0,0,0,.23,1.17,2.89,2.89,0,0,0,.63.89,4.75,4.75,0,0,0,1,.7,9.15,9.15,0,0,0,1.22.54l.54-6.42a6.23,6.23,0,0,0-1.64.41,3.58,3.58,0,0,0-1.11.7,2.56,2.56,0,0,0-.63.93A3,3,0,0,0,656.81,794.48Zm8.43,11.36a2.6,2.6,0,0,0-.23-1.15,2.83,2.83,0,0,0-.66-.88,4.57,4.57,0,0,0-1-.66,11.22,11.22,0,0,0-1.25-.5l-.59,7a4.48,4.48,0,0,0,2.79-1.24A3.62,3.62,0,0,0,665.24,805.84Z" transform="translate(-135.64)"/><path class="cls-21" d="M678.16,790.05a2.47,2.47,0,0,1-.23,1,2.85,2.85,0,0,1-.6.85,3.08,3.08,0,0,1-.87.58,2.82,2.82,0,0,1-1.08.22,2.67,2.67,0,0,1-1-.22,2.89,2.89,0,0,1-.86-.58,3,3,0,0,1-.58-.85,2.62,2.62,0,0,1-.22-1,2.78,2.78,0,0,1,.22-1.08,2.94,2.94,0,0,1,.58-.87,2.89,2.89,0,0,1,.86-.58,2.67,2.67,0,0,1,1-.22,2.82,2.82,0,0,1,1.08.22,3.08,3.08,0,0,1,.87.58,2.82,2.82,0,0,1,.6.87A2.62,2.62,0,0,1,678.16,790.05Zm-.64,5.19V813h-4.29v-17.8Z" transform="translate(-135.64)"/><path class="cls-21" d="M682.48,800.48l13.75-7.17v3.05a1.17,1.17,0,0,1-.18.64,1.34,1.34,0,0,1-.57.49l-6.3,3.23a6.24,6.24,0,0,1-.84.36l-1,.27c.34.08.65.17,1,.26a6.24,6.24,0,0,1,.84.36l6.3,3.25a1.28,1.28,0,0,1,.57.49,1.16,1.16,0,0,1,.18.63v3.06l-13.75-7.19Z" transform="translate(-135.64)"/><path class="cls-21" d="M702.56,796.73h15.38v3.17H702.56Zm0,6.11h15.38V806H702.56Z" transform="translate(-135.64)"/><path class="cls-21" d="M728.37,813.2a13.52,13.52,0,0,1-3.81-1.11,10.75,10.75,0,0,1-3-2.07l1.32-2a1.58,1.58,0,0,1,.46-.43,1.17,1.17,0,0,1,.6-.16,1.59,1.59,0,0,1,.82.27l1,.63a12,12,0,0,0,1.26.73,6.33,6.33,0,0,0,1.69.54l.66-7.78a23.3,23.3,0,0,1-2.44-.82,7.86,7.86,0,0,1-2.17-1.24,5.82,5.82,0,0,1-1.56-2,7.15,7.15,0,0,1-.06-5.55,7,7,0,0,1,1.54-2.25,8.18,8.18,0,0,1,2.48-1.64,8.37,8.37,0,0,1,3.39-.65l.19-2.21a1.23,1.23,0,0,1,.34-.75,1.08,1.08,0,0,1,.82-.33h1.58l-.3,3.41a9.6,9.6,0,0,1,3.18,1,11.9,11.9,0,0,1,2.33,1.68l-1,1.58a1.89,1.89,0,0,1-.48.52,1,1,0,0,1-.59.18,1.57,1.57,0,0,1-.62-.17c-.23-.11-.51-.24-.81-.4s-.65-.31-1-.47a6.82,6.82,0,0,0-1.23-.4l-.61,7.19c.83.25,1.66.53,2.47.84a8.83,8.83,0,0,1,2.21,1.19,5.78,5.78,0,0,1,1.59,1.81,5.58,5.58,0,0,1,.6,2.72,8.4,8.4,0,0,1-.53,3,7.56,7.56,0,0,1-1.57,2.5,8,8,0,0,1-2.55,1.76,10.34,10.34,0,0,1-3.45.82l-.21,2.55a1.24,1.24,0,0,1-.35.74,1.06,1.06,0,0,1-.81.33h-1.58Zm-1.75-18.72a2.87,2.87,0,0,0,.22,1.17,2.76,2.76,0,0,0,.64.89,4.75,4.75,0,0,0,1,.7,9.15,9.15,0,0,0,1.22.54l.53-6.42a6.25,6.25,0,0,0-1.63.41,3.58,3.58,0,0,0-1.11.7,2.56,2.56,0,0,0-.63.93A2.8,2.8,0,0,0,726.62,794.48Zm8.43,11.36a2.6,2.6,0,0,0-.23-1.15,2.83,2.83,0,0,0-.66-.88,4.57,4.57,0,0,0-1-.66,11.22,11.22,0,0,0-1.25-.5l-.59,7a4.48,4.48,0,0,0,2.79-1.24A3.62,3.62,0,0,0,735.05,805.84Z" transform="translate(-135.64)"/><path class="cls-21" d="M742.76,813v-17.8h2.62a1,1,0,0,1,1.09.78l.28,1.32a9.84,9.84,0,0,1,1-1,6.29,6.29,0,0,1,1.1-.75,6,6,0,0,1,1.25-.49,5.56,5.56,0,0,1,1.46-.18,4.15,4.15,0,0,1,2.77.91,5.51,5.51,0,0,1,1.62,2.42,5.6,5.6,0,0,1,1-1.52,5.91,5.91,0,0,1,1.38-1,6.12,6.12,0,0,1,1.58-.59,7.57,7.57,0,0,1,1.7-.19,7.16,7.16,0,0,1,2.62.45,5,5,0,0,1,1.92,1.32,5.77,5.77,0,0,1,1.19,2.12,9.22,9.22,0,0,1,.41,2.86V813h-4.29V801.71a3.85,3.85,0,0,0-.74-2.56,2.76,2.76,0,0,0-2.19-.86,3.23,3.23,0,0,0-1.22.23,2.75,2.75,0,0,0-1,.65,2.87,2.87,0,0,0-.67,1.06,4.21,4.21,0,0,0-.24,1.48V813h-4.31V801.71a3.86,3.86,0,0,0-.72-2.6,2.66,2.66,0,0,0-2.12-.82,3.4,3.4,0,0,0-1.73.46,5.85,5.85,0,0,0-1.5,1.26v13Z" transform="translate(-135.64)"/><path class="cls-21" d="M777.2,790.05a2.47,2.47,0,0,1-.23,1,2.85,2.85,0,0,1-.6.85,3,3,0,0,1-.88.58,2.73,2.73,0,0,1-1.07.22,2.67,2.67,0,0,1-1-.22,2.89,2.89,0,0,1-.86-.58,2.79,2.79,0,0,1-.58-.85,2.46,2.46,0,0,1-.22-1,2.61,2.61,0,0,1,.22-1.08,2.76,2.76,0,0,1,.58-.87,2.89,2.89,0,0,1,.86-.58,2.67,2.67,0,0,1,1-.22,2.73,2.73,0,0,1,1.07.22,3,3,0,0,1,.88.58,2.82,2.82,0,0,1,.6.87A2.62,2.62,0,0,1,777.2,790.05Zm-.65,5.19V813h-4.28v-17.8Z" transform="translate(-135.64)"/><path class="cls-21" d="M781.4,813v-17.8H784a1.05,1.05,0,0,1,1.09.78l.3,1.4a8.89,8.89,0,0,1,1.13-1,7.92,7.92,0,0,1,1.27-.79,6.53,6.53,0,0,1,1.43-.5,7.94,7.94,0,0,1,1.67-.17,6.35,6.35,0,0,1,2.58.49,5.2,5.2,0,0,1,1.89,1.39,6.18,6.18,0,0,1,1.14,2.14,9,9,0,0,1,.39,2.73V813h-4.28V801.71a3.84,3.84,0,0,0-.76-2.53,2.81,2.81,0,0,0-2.26-.89,4.54,4.54,0,0,0-2.09.5,7.79,7.79,0,0,0-1.84,1.37V813Z" transform="translate(-135.64)"/><path class="cls-21" d="M800.8,798.31a2.78,2.78,0,0,1,.2-1,2.39,2.39,0,0,1,.56-.83,2.45,2.45,0,0,1,.84-.55,2.58,2.58,0,0,1,1-.21,2.52,2.52,0,0,1,1,.21,2.55,2.55,0,0,1,.84.55,2.67,2.67,0,0,1,.55.83,2.6,2.6,0,0,1,.21,1,2.53,2.53,0,0,1-.21,1,2.62,2.62,0,0,1-.55.82,2.4,2.4,0,0,1-.84.55,2.69,2.69,0,0,1-1,.2,2.75,2.75,0,0,1-1-.2,2.32,2.32,0,0,1-.84-.55,2.35,2.35,0,0,1-.56-.82A2.7,2.7,0,0,1,800.8,798.31Zm.12,12.1a2.36,2.36,0,0,1,.18-.92,2.42,2.42,0,0,1,.52-.74,2.34,2.34,0,0,1,.8-.51,2.8,2.8,0,0,1,1-.18,2.52,2.52,0,0,1,1.14.24,2.25,2.25,0,0,1,.82.64,2.72,2.72,0,0,1,.49.94A4,4,0,0,1,806,811a6.54,6.54,0,0,1-.25,1.75,8.86,8.86,0,0,1-.74,1.84,10.9,10.9,0,0,1-1.19,1.79,10.76,10.76,0,0,1-1.64,1.59l-.74-.67a.81.81,0,0,1-.31-.65.71.71,0,0,1,.09-.31,1.39,1.39,0,0,1,.23-.31l.47-.51a8.57,8.57,0,0,0,.56-.7A7.64,7.64,0,0,0,803,814a3.56,3.56,0,0,0,.34-1,2.31,2.31,0,0,1-1-.2,2.23,2.23,0,0,1-.77-.54,2.76,2.76,0,0,1-.51-.82A2.8,2.8,0,0,1,800.92,810.41Z" transform="translate(-135.64)"/><path class="cls-21" d="M513,396.83v9.85h-5.21v-28h9.12a16,16,0,0,1,4.86.66,9.36,9.36,0,0,1,3.38,1.84,7.24,7.24,0,0,1,2,2.82,10.51,10.51,0,0,1,0,7.33,7.7,7.7,0,0,1-2,2.91,9.45,9.45,0,0,1-3.39,1.9,15.14,15.14,0,0,1-4.76.68Zm0-4.07h3.91a7.78,7.78,0,0,0,2.49-.36,4.66,4.66,0,0,0,1.77-1,4.26,4.26,0,0,0,1-1.63,6.28,6.28,0,0,0,.35-2.14,5.69,5.69,0,0,0-.35-2,4,4,0,0,0-1-1.55,4.87,4.87,0,0,0-1.77-1,8.42,8.42,0,0,0-2.49-.34H513Z" transform="translate(-135.64)"/><path class="cls-21" d="M555.39,406.68h-5.24V394.45H537v12.23h-5.25v-28H537v12h13.13v-12h5.24Z" transform="translate(-135.64)"/><path class="cls-21" d="M566.43,396.83v9.85h-5.21v-28h9.12a16,16,0,0,1,4.86.66,9.36,9.36,0,0,1,3.38,1.84,7.14,7.14,0,0,1,2,2.82,9.8,9.8,0,0,1,.64,3.6,10,10,0,0,1-.68,3.73,7.7,7.7,0,0,1-2,2.91,9.36,9.36,0,0,1-3.39,1.9,15.14,15.14,0,0,1-4.76.68Zm0-4.07h3.91a7.74,7.74,0,0,0,2.49-.36,4.66,4.66,0,0,0,1.77-1,4.26,4.26,0,0,0,1-1.63,6.28,6.28,0,0,0,.35-2.14,5.69,5.69,0,0,0-.35-2,4,4,0,0,0-1-1.55,4.87,4.87,0,0,0-1.77-1,8.37,8.37,0,0,0-2.49-.34h-3.91Z" transform="translate(-135.64)"/><path class="cls-21" d="M1073.23,801.06a.92.92,0,0,1,.69.3l1.9,2.07a10.33,10.33,0,0,1-3.89,3,13.34,13.34,0,0,1-5.55,1.05,13.07,13.07,0,0,1-5.2-1,11.55,11.55,0,0,1-4-2.75,12.25,12.25,0,0,1-2.51-4.21,15.82,15.82,0,0,1-.87-5.34,14.57,14.57,0,0,1,1-5.37,12.24,12.24,0,0,1,2.74-4.19,12.4,12.4,0,0,1,4.21-2.75,14.6,14.6,0,0,1,5.42-1,12.73,12.73,0,0,1,5.06.93,11.8,11.8,0,0,1,3.72,2.45l-1.62,2.25a1.66,1.66,0,0,1-.37.38,1,1,0,0,1-.62.16,1.45,1.45,0,0,1-.85-.32,9.13,9.13,0,0,0-2.77-1.41,8.88,8.88,0,0,0-2.58-.32,8.58,8.58,0,0,0-3.37.64,7.43,7.43,0,0,0-2.65,1.82,8.48,8.48,0,0,0-1.72,2.89,10.93,10.93,0,0,0-.62,3.82,11.24,11.24,0,0,0,.62,3.9,8.48,8.48,0,0,0,1.68,2.88,7.18,7.18,0,0,0,2.5,1.79,7.79,7.79,0,0,0,3.09.62,13.86,13.86,0,0,0,1.79-.11,7.92,7.92,0,0,0,1.47-.34,7.13,7.13,0,0,0,1.28-.6,8,8,0,0,0,1.19-.91,1.51,1.51,0,0,1,.38-.26A.91.91,0,0,1,1073.23,801.06Z" transform="translate(-135.64)"/><path class="cls-21" d="M1089,786.1v7.37h7v3.29h-7v7.41h-3.6v-7.41h-7v-3.29h7V786.1Z" transform="translate(-135.64)"/><path class="cls-21" d="M1109.89,786.1v7.37h7v3.29h-7v7.41h-3.59v-7.41h-7v-3.29h7V786.1Z" transform="translate(-135.64)"/><path class="cls-21" d="M1086.47,555a12.5,12.5,0,0,1-.5,3.7,7.84,7.84,0,0,1-1.5,2.8,6.57,6.57,0,0,1-2.5,1.78,8.85,8.85,0,0,1-3.47.62,13,13,0,0,1-1.78-.11,14.23,14.23,0,0,1-1.83-.34l.23-2.69a.89.89,0,0,1,.28-.59,1,1,0,0,1,.71-.23,3.16,3.16,0,0,1,.75.12,4.84,4.84,0,0,0,1.17.11,4.91,4.91,0,0,0,1.69-.27,2.91,2.91,0,0,0,1.24-.88,4,4,0,0,0,.74-1.57,9.36,9.36,0,0,0,.26-2.35V539.39h4.51Z" transform="translate(-135.64)"/><path class="cls-21" d="M1111.85,563.67h-3.49a1.53,1.53,0,0,1-1-.29,1.63,1.63,0,0,1-.54-.73L1105,557.7H1095l-1.81,4.95a1.66,1.66,0,0,1-.53.71,1.48,1.48,0,0,1-1,.31h-3.52l9.54-24.28h4.62Zm-15.72-9.17h7.74l-2.95-8.07c-.14-.36-.28-.79-.45-1.27s-.32-1-.48-1.59c-.15.57-.31,1.1-.46,1.6s-.3.92-.44,1.29Z" transform="translate(-135.64)"/><path class="cls-21" d="M1109.13,539.39h3.65a1.49,1.49,0,0,1,1,.28,1.8,1.8,0,0,1,.56.74l5.71,14.82c.19.48.37,1,.54,1.58s.34,1.19.5,1.83a20.94,20.94,0,0,1,1-3.41l5.69-14.82a1.75,1.75,0,0,1,.54-.7,1.48,1.48,0,0,1,1-.32h3.64L1123,563.67h-4.08Z" transform="translate(-135.64)"/><path class="cls-21" d="M1153.87,563.67h-3.49a1.48,1.48,0,0,1-1-.29,1.58,1.58,0,0,1-.55-.73l-1.81-4.95H1137l-1.82,4.95a1.58,1.58,0,0,1-.53.71,1.48,1.48,0,0,1-1,.31h-3.51l9.54-24.28h4.62Zm-15.72-9.17h7.75l-3-8.07c-.13-.36-.28-.79-.44-1.27s-.33-1-.48-1.59c-.16.57-.31,1.1-.46,1.6s-.3.92-.45,1.29Z" transform="translate(-135.64)"/><path class="cls-21" d="M1089.72,584.11a1.4,1.4,0,0,1-.43.53,1.11,1.11,0,0,1-.58.15,1.5,1.5,0,0,1-.76-.26c-.28-.18-.61-.37-1-.58a7.18,7.18,0,0,0-1.33-.58,5.49,5.49,0,0,0-1.81-.26,5.38,5.38,0,0,0-1.64.22,3.45,3.45,0,0,0-1.17.63,2.54,2.54,0,0,0-.72,1,3.28,3.28,0,0,0-.23,1.23,2.15,2.15,0,0,0,.48,1.43,4,4,0,0,0,1.27,1,13.32,13.32,0,0,0,1.79.72c.67.21,1.36.44,2.06.68a19.33,19.33,0,0,1,2.06.84,7,7,0,0,1,1.79,1.21,5.33,5.33,0,0,1,1.27,1.79,6.17,6.17,0,0,1,.48,2.57,8.51,8.51,0,0,1-.56,3.08,7.27,7.27,0,0,1-1.65,2.5,7.76,7.76,0,0,1-2.64,1.68,9.74,9.74,0,0,1-3.58.61,11.59,11.59,0,0,1-2.28-.22,12.85,12.85,0,0,1-2.16-.65,11,11,0,0,1-1.93-1,9.48,9.48,0,0,1-1.61-1.31l1.31-2.17a1.89,1.89,0,0,1,.45-.39,1,1,0,0,1,.58-.16,1.63,1.63,0,0,1,.9.34c.33.23.71.49,1.15.77a9.19,9.19,0,0,0,1.57.76,6,6,0,0,0,2.15.35,4.42,4.42,0,0,0,3-.92A3.27,3.27,0,0,0,1087,597a2.44,2.44,0,0,0-.48-1.56,3.88,3.88,0,0,0-1.26-1,9.25,9.25,0,0,0-1.8-.7c-.67-.19-1.36-.4-2-.62a19,19,0,0,1-2.05-.81,6.54,6.54,0,0,1-1.8-1.23,5.66,5.66,0,0,1-1.27-1.88,7.41,7.41,0,0,1-.47-2.8,6.7,6.7,0,0,1,2.07-4.82,7.65,7.65,0,0,1,2.49-1.56,9,9,0,0,1,3.38-.59,11.27,11.27,0,0,1,4,.67,9.06,9.06,0,0,1,3.09,1.88Z" transform="translate(-135.64)"/><path class="cls-21" d="M1106.59,590.4a2.12,2.12,0,0,1-.36.37.8.8,0,0,1-.51.13,1.12,1.12,0,0,1-.62-.19c-.2-.13-.44-.28-.72-.44a5.54,5.54,0,0,0-1-.44,4.61,4.61,0,0,0-1.44-.19,4.29,4.29,0,0,0-1.91.4,3.58,3.58,0,0,0-1.37,1.13,5,5,0,0,0-.81,1.79,9.53,9.53,0,0,0-.27,2.37,9.23,9.23,0,0,0,.29,2.46,5.37,5.37,0,0,0,.85,1.8,3.65,3.65,0,0,0,1.34,1.11,4.11,4.11,0,0,0,1.78.38,4.28,4.28,0,0,0,1.61-.25,5.48,5.48,0,0,0,1-.53l.73-.54a1.12,1.12,0,0,1,.7-.24.83.83,0,0,1,.75.38l1.19,1.51a7.32,7.32,0,0,1-1.49,1.36,8.31,8.31,0,0,1-1.67.87,8.41,8.41,0,0,1-1.79.46,12.74,12.74,0,0,1-1.83.14,7.63,7.63,0,0,1-3-.6,7.08,7.08,0,0,1-2.46-1.74,8.32,8.32,0,0,1-1.66-2.8,10.76,10.76,0,0,1-.61-3.77,11,11,0,0,1,.54-3.51,8,8,0,0,1,1.61-2.81,7.35,7.35,0,0,1,2.62-1.86,9.16,9.16,0,0,1,3.59-.67,8,8,0,0,1,6,2.4Z" transform="translate(-135.64)"/><path class="cls-21" d="M1110.51,604V586.75h2.43a1.26,1.26,0,0,1,.89.24,1.33,1.33,0,0,1,.34.8l.25,2.09a8.09,8.09,0,0,1,2.17-2.52,4.55,4.55,0,0,1,2.79-.93,3.6,3.6,0,0,1,2.11.59l-.53,3.11a.71.71,0,0,1-.22.43.81.81,0,0,1-.46.12,2.91,2.91,0,0,1-.69-.12,5,5,0,0,0-1.15-.11,3.47,3.47,0,0,0-2.22.71,5.41,5.41,0,0,0-1.56,2.09V604Z" transform="translate(-135.64)"/><path class="cls-21" d="M1129.27,581.73a2.33,2.33,0,0,1-.22,1,2.83,2.83,0,0,1-.58.82,2.62,2.62,0,0,1-.85.56,2.58,2.58,0,0,1-1,.21,2.44,2.44,0,0,1-1-.21,2.69,2.69,0,0,1-.84-.56,2.77,2.77,0,0,1-.56-.82,2.47,2.47,0,0,1-.21-1,2.58,2.58,0,0,1,.21-1,2.63,2.63,0,0,1,.56-.84,2.69,2.69,0,0,1,.84-.56,2.44,2.44,0,0,1,1-.21,2.58,2.58,0,0,1,1,.21,2.62,2.62,0,0,1,.85.56,2.68,2.68,0,0,1,.58.84A2.43,2.43,0,0,1,1129.27,581.73Zm-.62,5V604h-4.15V586.75Z" transform="translate(-135.64)"/><path class="cls-21" d="M1133.33,609.61V586.75h2.54a1.19,1.19,0,0,1,.69.19.86.86,0,0,1,.37.57l.33,1.59a8.87,8.87,0,0,1,2.4-1.93,6.5,6.5,0,0,1,3.16-.74,5.69,5.69,0,0,1,2.58.59,5.76,5.76,0,0,1,2,1.71,8.27,8.27,0,0,1,1.31,2.75,14.15,14.15,0,0,1,.46,3.75,12,12,0,0,1-.52,3.58,8.93,8.93,0,0,1-1.49,2.86,7,7,0,0,1-2.33,1.89,6.89,6.89,0,0,1-3.07.68,6.14,6.14,0,0,1-2.48-.45,6.35,6.35,0,0,1-1.82-1.23v7.05Zm8.06-19.9a4.25,4.25,0,0,0-2.2.54,6.6,6.6,0,0,0-1.71,1.54v7.73a3.92,3.92,0,0,0,1.54,1.21,4.61,4.61,0,0,0,1.79.35,4.1,4.1,0,0,0,1.7-.35,3.45,3.45,0,0,0,1.3-1.08,5.36,5.36,0,0,0,.81-1.82,10.47,10.47,0,0,0,.29-2.6,11.66,11.66,0,0,0-.25-2.56,4.68,4.68,0,0,0-.7-1.7,2.65,2.65,0,0,0-1.1-1A3.45,3.45,0,0,0,1141.39,589.71Z" transform="translate(-135.64)"/><path class="cls-21" d="M1158,604.25a4.5,4.5,0,0,1-3.44-1.27,4.84,4.84,0,0,1-1.21-3.5v-9.62h-1.75a.82.82,0,0,1-.58-.22.84.84,0,0,1-.24-.65v-1.65l2.77-.45.87-4.71a.89.89,0,0,1,.31-.52,1,1,0,0,1,.61-.18h2.15v5.42H1162v3h-4.54v9.34a1.85,1.85,0,0,0,.41,1.26,1.36,1.36,0,0,0,1.07.45,2,2,0,0,0,.65-.09,3.18,3.18,0,0,0,.45-.2,3.69,3.69,0,0,0,.35-.19.58.58,0,0,1,.3-.09.49.49,0,0,1,.3.09,1.44,1.44,0,0,1,.25.28l1.25,2a6.26,6.26,0,0,1-2.09,1.15A7.92,7.92,0,0,1,1158,604.25Z" transform="translate(-135.64)"/><path class="cls-87" d="M1050.76,682a3,3,0,0,0-.12-4.45L892.53,536.44a1.49,1.49,0,0,0-1.61-.23h0a1.48,1.48,0,0,0-.36,2.42l156,143.39a3,3,0,0,0,4.15-.06Z" transform="translate(-135.64)"/><path class="cls-88" d="M1143.21,1029.27a2.62,2.62,0,0,1,.07-.68c3.39-13.42,20.18-21.78,20.18-21.78l6.66.53c3.83,11.82,3.33,19.07,2.72,22.31,0,.09,0,.17-.07.26A158.25,158.25,0,0,1,1143.21,1029.27Z" transform="translate(-135.64)"/><path class="cls-89" d="M1172.77,1029.91a2.88,2.88,0,0,1-2.11,2.13c-7.81,1.65-20.23.32-25.44-.36a2.42,2.42,0,0,1-2-2.41A158.25,158.25,0,0,0,1172.77,1029.91Z" transform="translate(-135.64)"/><path class="cls-90" d="M1199.13,791.76c4.11,4.38,10.16,8.18,14.42,10.54-6.36,7.86-15,15.74-26.36,23.44l-3.26,7.32-10.45-12.52S1192.23,811.21,1199.13,791.76Z" transform="translate(-135.64)"/><path class="cls-91" d="M1172.8,997.42,1170,1011a2.22,2.22,0,0,1-1.9,1.83,18.54,18.54,0,0,1-4.37-.07,2.8,2.8,0,0,1-2.21-3.28l2-12.05Z" transform="translate(-135.64)"/><path class="cls-92" d="M1114.39,1029.77c7.35-.2,11.15-1.07,13.12-1.87,0,.73,0,1.47,0,2.24a1.45,1.45,0,0,1-1.38,1.48l-40.36-.26a1.84,1.84,0,0,1-1.49-2.68C1089.54,1029.11,1103,1030.09,1114.39,1029.77Z" transform="translate(-135.64)"/><path class="cls-93" d="M1084.25,1028.68a1.82,1.82,0,0,1,.16-.31c3.57-5,12.65-14.9,30.58-19.2l8.61-.27s3.83,6.66,3.91,19c-2,.8-5.77,1.67-13.12,1.87C1103,1030.09,1089.54,1029.11,1084.25,1028.68Z" transform="translate(-135.64)"/><path class="cls-94" d="M1125.2,995.86c-.1.64-1.28,10.39-1.73,14.17a1.87,1.87,0,0,1-1.58,1.69,19.77,19.77,0,0,1-5.92-.09,2.55,2.55,0,0,1-1.93-2.56v-15.3Z" transform="translate(-135.64)"/><path class="cls-95" d="M1132.1,817.93s-20.76,78.88-20.38,178.15a3.86,3.86,0,0,0,3,3.75,44.65,44.65,0,0,0,9.62,1.11,3.57,3.57,0,0,0,3.4-3c2.91-17.06,19.61-113.22,29.13-128.83,0,0,6.26,85.64,4.26,130.07a2.1,2.1,0,0,0,1.86,2.19,35.5,35.5,0,0,0,7.72,0,2.81,2.81,0,0,0,2.51-2.39c2.07-14.45,14-100.43,13.5-162.37,0-3.49-9.24-18.68-9.24-18.68Z" transform="translate(-135.64)"/><path class="cls-96" d="M1100.27,711.68c3.63-9.29,9.77-15.65,15.93-23,23.11,4.19,61,7.93,76.78,9.92a20.08,20.08,0,0,1,12.69,6.81c12.89,14.92,41.17,55.75,7.88,96.89-4.26-2.36-10.31-6.16-14.42-10.54,3.68-10.38,4-23.65-3.73-39.92a38.23,38.23,0,0,1-1,3.82c-10.64,33.7-11.21,61.75-11.18,68.21a2.13,2.13,0,0,1-1.34,2c-14,5.61-41,2.27-50,.93a3.05,3.05,0,0,1-2.55-3.46c4.44-32.16-18.34-85.07-24.36-98.33a8.77,8.77,0,0,0-4.37-4.37c-1-.44-1.93-.89-2.87-1.34A77,77,0,0,1,1100.27,711.68Z" transform="translate(-135.64)"/><path class="cls-97" d="M1168.78,667.66l1.65,28.75a1.76,1.76,0,0,1-1.33,1.82c-3.65.92-13.73,2.75-22.51-2.24a2.87,2.87,0,0,1-1.31-3.27l7.34-25.84Z" transform="translate(-135.64)"/><path class="cls-98" d="M1150.79,636.24c-.37.35-15.75,30.55-15.75,30.55l17.43,8.41,18.83-26.46S1157,630.36,1150.79,636.24Z" transform="translate(-135.64)"/><path class="cls-99" d="M1163.58,649.48a2.76,2.76,0,0,1-.2,2.44l-8.7,14.49a2.71,2.71,0,0,1-.47.59c-1,1-4.58,3.77-7.32,0-2.33-3.25-4.52-6.2-6.86-7.42a2.79,2.79,0,0,0-3.76,1.23,103.92,103.92,0,0,0-5.94,14.12,2.76,2.76,0,0,0,1.61,3.39,77.39,77.39,0,0,0,16.69,4.87,2.78,2.78,0,0,0,2.63-1.12c2.66-3.65,10.17-13.84,12.73-16.39,2.38-2.37,6.77-1.48,8.75-.91a2.83,2.83,0,0,0,2.22-.29c2-1.21,5.51-4.23,2.31-9.32a2.78,2.78,0,0,1,.86-3.78c2.24-1.48,4.67-4.25,2.36-8.73s-6.54-5-9.39-4.6a2.88,2.88,0,0,1-3-1.68,1.83,1.83,0,0,0-1.44-1.13,2.7,2.7,0,0,1-2.18-3.17c.5-2.57.12-5.91-4-8.16-7.52-4.13-14.11,2.6-15.78,8.29s6.73,9.71,12,10.38C1160.6,643,1162.73,647.26,1163.58,649.48Z" transform="translate(-135.64)"/><path class="cls-100" d="M1160.72,671s3.35-9.79,7.63-9.43,7.65,4.63,2.34,9.42C1164.1,676.9,1160.72,671,1160.72,671Z" transform="translate(-135.64)"/><path class="cls-101" d="M1196.81,749.32c5.64-15.44,3.59-34.09,3.57-34.27l-1.55.18c0,.18,2,18.47-3.49,33.55Z" transform="translate(-135.64)"/><path class="cls-102" d="M1157.68,867.12a.78.78,0,0,0,.76-.58c1.72-6.64,14.61-13.94,14.74-14a.79.79,0,0,0,.3-1.07.79.79,0,0,0-1.07-.3c-.55.31-13.6,7.7-15.49,15a.79.79,0,0,0,.56,1Z" transform="translate(-135.64)"/><path class="cls-103" d="M1047.41,697.6c22,8,68.79-8.92,68.79-8.92l3.22,38.26c-37.49,11.85-61.89,8.4-77.75-1.55C1040.68,714.08,1044.08,704.24,1047.41,697.6Z" transform="translate(-135.64)"/><path class="cls-104" d="M1012.43,658.12l9.19-1.82s2.51,29.26,23,40.07a21.53,21.53,0,0,0,2.8,1.23c-3.33,6.64-6.73,16.48-5.74,27.79C1009.43,705.17,1012.43,658.12,1012.43,658.12Z" transform="translate(-135.64)"/><path class="cls-105" d="M1021.15,658.85l.47-2.55a14,14,0,0,0-3.15-12.36c-7.34-8.86-12.7-5.6-12.7-5.6a19.49,19.49,0,0,1,.35,3.57,1.58,1.58,0,0,1-2.65,1.13l-12-11s-3.36,17.47,22.31,29.47Z" transform="translate(-135.64)"/></g></g></svg>